<svg xmlns="http://www.w3.org/2000/svg" xmlns:xlink="http://www.w3.org/1999/xlink" contentStyleType="text/css" data-diagram-type="STATE" height="1500px" preserveAspectRatio="none" style="width:855px;height:1500px;background:#FFFFFF;" version="1.1" viewBox="0 0 855 1500" width="855px" zoomAndPan="magnify"><title>Chunk Processing State Machine</title><defs/><g><g class="title" data-source-line="2"><text fill="#000000" font-family="Verdana" font-size="22" font-weight="bold" lengthAdjust="spacing" textLength="401.5967" x="222.5733" y="37.1182">Chunk Processing State Machine</text></g><g id="Created"><rect fill="#90EE90" height="66.1826" rx="12.5" ry="12.5" style="stroke:#000000;stroke-width:1;" width="183.0371" x="377.71" y="182.9473"/><line style="stroke:#000000;stroke-width:1;" x1="377.71" x2="560.7471" y1="209.962" y2="209.962"/><text fill="#000000" font-family="Verdana" font-size="14" lengthAdjust="spacing" textLength="55.0771" x="441.69" y="202.0225">Created</text><text fill="#000000" font-family="Verdana" font-size="12" lengthAdjust="spacing" textLength="163.0371" x="382.71" y="227.0264">Initial state after allocation</text><text fill="#000000" font-family="Verdana" font-size="12" lengthAdjust="spacing" textLength="127.2129" x="382.71" y="241.6104">No data assigned yet</text></g><g id="Reading"><rect fill="#ADD8E6" height="66.1826" rx="12.5" ry="12.5" style="stroke:#000000;stroke-width:1;" width="175.7598" x="381.35" y="372.8473"/><line style="stroke:#000000;stroke-width:1;" x1="381.35" x2="557.1098" y1="399.862" y2="399.862"/><text fill="#000000" font-family="Verdana" font-size="14" lengthAdjust="spacing" textLength="56.6289" x="440.9154" y="391.9225">Reading</text><text fill="#000000" font-family="Verdana" font-size="12" lengthAdjust="spacing" textLength="152.7539" x="386.35" y="416.9264">I/O operation in progress</text><text fill="#000000" font-family="Verdana" font-size="12" lengthAdjust="spacing" textLength="155.7598" x="386.35" y="431.5104">Reading data from source</text></g><g id="Read"><rect fill="#FFFFFF" height="66.1826" rx="12.5" ry="12.5" style="stroke:#000000;stroke-width:1;" width="168.2129" x="385.13" y="523.0373"/><line style="stroke:#000000;stroke-width:1;" x1="385.13" x2="553.3429" y1="550.052" y2="550.052"/><text fill="#000000" font-family="Verdana" font-size="14" lengthAdjust="spacing" textLength="35.2051" x="451.6339" y="542.1125">Read</text><text fill="#000000" font-family="Verdana" font-size="12" lengthAdjust="spacing" textLength="148.2129" x="390.13" y="567.1164">Data successfully loaded</text><text fill="#000000" font-family="Verdana" font-size="12" lengthAdjust="spacing" textLength="126.4863" x="390.13" y="581.7004">Ready for processing</text></g><g id="Processing"><rect fill="#FFFFE0" height="66.1826" rx="12.5" ry="12.5" style="stroke:#000000;stroke-width:1;" width="183.4238" x="317.52" y="689.2373"/><line style="stroke:#000000;stroke-width:1;" x1="317.52" x2="500.9438" y1="716.252" y2="716.252"/><text fill="#000000" font-family="Verdana" font-size="14" lengthAdjust="spacing" textLength="74.5596" x="371.9521" y="708.3125">Processing</text><text fill="#000000" font-family="Verdana" font-size="12" lengthAdjust="spacing" textLength="163.4238" x="322.52" y="733.3164">Transformation in progress</text><text fill="#000000" font-family="Verdana" font-size="12" lengthAdjust="spacing" textLength="139.8867" x="322.52" y="747.9004">Applying pipeline stage</text></g><g id="Processed"><rect fill="#FFFFFF" height="66.1826" rx="12.5" ry="12.5" style="stroke:#000000;stroke-width:1;" width="143.1289" x="337.67" y="851.9273"/><line style="stroke:#000000;stroke-width:1;" x1="337.67" x2="480.7989" y1="878.942" y2="878.942"/><text fill="#000000" font-family="Verdana" font-size="14" lengthAdjust="spacing" textLength="70.1982" x="374.1353" y="871.0025">Processed</text><text fill="#000000" font-family="Verdana" font-size="12" lengthAdjust="spacing" textLength="123.1289" x="342.67" y="896.0064">Processing complete</text><text fill="#000000" font-family="Verdana" font-size="12" lengthAdjust="spacing" textLength="101.7422" x="342.67" y="910.5904">Ready for output</text></g><g id="Writing"><rect fill="#ADD8E6" height="66.1826" rx="12.5" ry="12.5" style="stroke:#000000;stroke-width:1;" width="172.7539" x="417.85" y="1014.6173"/><line style="stroke:#000000;stroke-width:1;" x1="417.85" x2="590.6039" y1="1041.632" y2="1041.632"/><text fill="#000000" font-family="Verdana" font-size="14" lengthAdjust="spacing" textLength="50.5996" x="478.9271" y="1033.6925">Writing</text><text fill="#000000" font-family="Verdana" font-size="12" lengthAdjust="spacing" textLength="152.7539" x="422.85" y="1058.6964">I/O operation in progress</text><text fill="#000000" font-family="Verdana" font-size="12" lengthAdjust="spacing" textLength="130.418" x="422.85" y="1073.2804">Writing to destination</text></g><g id="Written"><rect fill="#FFB6C1" height="66.1826" rx="12.5" ry="12.5" style="stroke:#000000;stroke-width:1;" width="170.7617" x="418.85" y="1161.3073"/><line style="stroke:#000000;stroke-width:1;" x1="418.85" x2="589.6117" y1="1188.322" y2="1188.322"/><text fill="#000000" font-family="Verdana" font-size="14" lengthAdjust="spacing" textLength="51.8916" x="478.2851" y="1180.3825">Written</text><text fill="#000000" font-family="Verdana" font-size="12" lengthAdjust="spacing" textLength="62.5664" x="423.85" y="1205.3864">Final state</text><text fill="#000000" font-family="Verdana" font-size="12" lengthAdjust="spacing" textLength="150.7617" x="423.85" y="1219.9704">Data successfully written</text></g><ellipse cx="469.23" cy="68.7373" fill="#FFFFFF" rx="10" ry="10" style="stroke:#000000;stroke-width:1;"/><ellipse cx="504.23" cy="1341.0873" fill="none" rx="11" ry="11" style="stroke:#000000;stroke-width:1;"/><ellipse cx="504.23" cy="1341.0873" fill="#FFFFFF" rx="6" ry="6" style="stroke:#000000;stroke-width:1;"/><g class="entity" data-entity="GMN2" data-source-line="42" data-uid="ent0003" id="entity_GMN2"><path d="M595.73,155.7373 L595.73,212.0373 L561.14,216.0373 L595.73,220.0373 L595.73,276.3325 A0,0 0 0 0 595.73,276.3325 L848.7432,276.3325 A0,0 0 0 0 848.7432,276.3325 L848.7432,165.7373 L838.7432,155.7373 L595.73,155.7373 A0,0 0 0 0 595.73,155.7373" fill="#FFFFFF" style="stroke:#000000;stroke-width:1;"/><path d="M838.7432,155.7373 L838.7432,165.7373 L848.7432,165.7373 L838.7432,155.7373" fill="#FFFFFF" style="stroke:#000000;stroke-width:1;"/><text fill="#000000" font-family="Verdana" font-size="13" font-weight="bold" lengthAdjust="spacing" textLength="105.4854" x="601.73" y="173.8071">Preconditions:</text><text fill="#000000" font-family="Verdana" font-size="13" lengthAdjust="spacing" textLength="168.6445" x="601.73" y="189.6064">- Chunk number assigned</text><text fill="#000000" font-family="Verdana" font-size="13" lengthAdjust="spacing" textLength="100.4517" x="601.73" y="205.4058">- Size allocated</text><text fill="#000000" font-family="Verdana" font-size="13" lengthAdjust="spacing" textLength="135.0654" x="601.73" y="221.2051">- Data pointer is null</text><text fill="#000000" font-family="Verdana" font-size="13" lengthAdjust="spacing" textLength="4.5703" x="601.73" y="237.0044">&#160;</text><text fill="#000000" font-family="Verdana" font-size="13" font-weight="bold" lengthAdjust="spacing" textLength="112.9502" x="601.73" y="252.8037">Postconditions:</text><text fill="#000000" font-family="Verdana" font-size="13" lengthAdjust="spacing" textLength="232.0132" x="601.73" y="268.603">- Can transition to Reading or Read</text></g><g class="entity" data-entity="GMN5" data-source-line="52" data-uid="ent0006" id="entity_GMN5"><path d="M591.92,369.3373 L591.92,401.9373 L557.28,405.9373 L591.92,409.9373 L591.92,442.5346 A0,0 0 0 0 591.92,442.5346 L806.5489,442.5346 A0,0 0 0 0 806.5489,442.5346 L806.5489,379.3373 L796.5489,369.3373 L591.92,369.3373 A0,0 0 0 0 591.92,369.3373" fill="#FFFFFF" style="stroke:#000000;stroke-width:1;"/><path d="M796.5489,369.3373 L796.5489,379.3373 L806.5489,379.3373 L796.5489,369.3373" fill="#FFFFFF" style="stroke:#000000;stroke-width:1;"/><text fill="#000000" font-family="Verdana" font-size="13" font-weight="bold" lengthAdjust="spacing" textLength="119.5835" x="597.92" y="387.4071">Active I/O State</text><text fill="#000000" font-family="Verdana" font-size="13" lengthAdjust="spacing" textLength="144.0029" x="597.92" y="403.2064">- File read in progress</text><text fill="#000000" font-family="Verdana" font-size="13" lengthAdjust="spacing" textLength="193.6289" x="597.92" y="419.0058">- Network receive in progress</text><text fill="#000000" font-family="Verdana" font-size="13" lengthAdjust="spacing" textLength="138.0996" x="597.92" y="434.8051">- Can retry on failure</text></g><g class="entity" data-entity="GMN8" data-source-line="59" data-uid="ent0009" id="entity_GMN8"><path d="M588.78,519.5373 L588.78,552.1273 L553.58,556.1273 L588.78,560.1273 L588.78,592.7346 A0,0 0 0 0 588.78,592.7346 L821.6838,592.7346 A0,0 0 0 0 821.6838,592.7346 L821.6838,529.5373 L811.6838,519.5373 L588.78,519.5373 A0,0 0 0 0 588.78,519.5373" fill="#FFFFFF" style="stroke:#000000;stroke-width:1;"/><path d="M811.6838,519.5373 L811.6838,529.5373 L821.6838,529.5373 L811.6838,519.5373" fill="#FFFFFF" style="stroke:#000000;stroke-width:1;"/><text fill="#000000" font-family="Verdana" font-size="13" font-weight="bold" lengthAdjust="spacing" textLength="104.3809" x="594.78" y="537.6071">Decision Point</text><text fill="#000000" font-family="Verdana" font-size="13" lengthAdjust="spacing" textLength="200.1035" x="594.78" y="553.4064">- Data available for processing</text><text fill="#000000" font-family="Verdana" font-size="13" lengthAdjust="spacing" textLength="200.3638" x="594.78" y="569.2058">- Can skip to Writing if needed</text><text fill="#000000" font-family="Verdana" font-size="13" lengthAdjust="spacing" textLength="211.9038" x="594.78" y="585.0051">- Can retry Processing on failure</text></g><g class="entity" data-entity="GMN11" data-source-line="66" data-uid="ent0012" id="entity_GMN11"><path d="M91.74,685.7273 L91.74,758.9246 A0,0 0 0 0 91.74,758.9246 L282.7175,758.9246 A0,0 0 0 0 282.7175,758.9246 L282.7175,726.3273 L317.06,722.3273 L282.7175,718.3273 L282.7175,695.7273 L272.7175,685.7273 L91.74,685.7273 A0,0 0 0 0 91.74,685.7273" fill="#FFFFFF" style="stroke:#000000;stroke-width:1;"/><path d="M272.7175,685.7273 L272.7175,695.7273 L282.7175,695.7273 L272.7175,685.7273" fill="#FFFFFF" style="stroke:#000000;stroke-width:1;"/><text fill="#000000" font-family="Verdana" font-size="13" font-weight="bold" lengthAdjust="spacing" textLength="124.1982" x="97.74" y="703.7971">CPU-bound State</text><text fill="#000000" font-family="Verdana" font-size="13" lengthAdjust="spacing" textLength="149.1255" x="97.74" y="719.5964">- Algorithm application</text><text fill="#000000" font-family="Verdana" font-size="13" lengthAdjust="spacing" textLength="142.543" x="97.74" y="735.3958">- Data transformation</text><text fill="#000000" font-family="Verdana" font-size="13" lengthAdjust="spacing" textLength="169.9775" x="97.74" y="751.1951">- Compression/Encryption</text></g><g class="entity" data-entity="GMN14" data-source-line="73" data-uid="ent0015" id="entity_GMN14"><path d="M83.36,856.3173 L83.36,913.7153 A0,0 0 0 0 83.36,913.7153 L303.0988,913.7153 A0,0 0 0 0 303.0988,913.7153 L303.0988,889.0173 L337.26,885.0173 L303.0988,881.0173 L303.0988,866.3173 L293.0988,856.3173 L83.36,856.3173 A0,0 0 0 0 83.36,856.3173" fill="#FFFFFF" style="stroke:#000000;stroke-width:1;"/><path d="M293.0988,856.3173 L293.0988,866.3173 L303.0988,866.3173 L293.0988,856.3173" fill="#FFFFFF" style="stroke:#000000;stroke-width:1;"/><text fill="#000000" font-family="Verdana" font-size="13" font-weight="bold" lengthAdjust="spacing" textLength="125.3091" x="89.36" y="874.3871">Ready for Output</text><text fill="#000000" font-family="Verdana" font-size="13" lengthAdjust="spacing" textLength="198.7388" x="89.36" y="890.1864">- All transformations complete</text><text fill="#000000" font-family="Verdana" font-size="13" lengthAdjust="spacing" textLength="189.6553" x="89.36" y="905.9858">- Can retry Writing on failure</text></g><g class="entity" data-entity="GMN17" data-source-line="79" data-uid="ent0018" id="entity_GMN17"><path d="M183.9,1011.1073 L183.9,1084.3046 A0,0 0 0 0 183.9,1084.3046 L382.5582,1084.3046 A0,0 0 0 0 382.5582,1084.3046 L382.5582,1051.7073 L417.53,1047.7073 L382.5582,1043.7073 L382.5582,1021.1073 L372.5582,1011.1073 L183.9,1011.1073 A0,0 0 0 0 183.9,1011.1073" fill="#FFFFFF" style="stroke:#000000;stroke-width:1;"/><path d="M372.5582,1011.1073 L372.5582,1021.1073 L382.5582,1021.1073 L372.5582,1011.1073" fill="#FFFFFF" style="stroke:#000000;stroke-width:1;"/><text fill="#000000" font-family="Verdana" font-size="13" font-weight="bold" lengthAdjust="spacing" textLength="119.5835" x="189.9" y="1029.1771">Active I/O State</text><text fill="#000000" font-family="Verdana" font-size="13" lengthAdjust="spacing" textLength="147.4243" x="189.9" y="1044.9764">- File write in progress</text><text fill="#000000" font-family="Verdana" font-size="13" lengthAdjust="spacing" textLength="177.6582" x="189.9" y="1060.7758">- Network send in progress</text><text fill="#000000" font-family="Verdana" font-size="13" lengthAdjust="spacing" textLength="138.0996" x="189.9" y="1076.5751">- Can retry on failure</text></g><g class="entity" data-entity="GMN20" data-source-line="86" data-uid="ent0021" id="entity_GMN20"><path d="M145.46,1304.4873 L145.46,1377.6846 L389.0025,1377.6846 L389.0025,1314.4873 L379.0025,1304.4873 L145.46,1304.4873" fill="#FFFFFF" style="stroke:#000000;stroke-width:1;"/><path d="M379.0025,1304.4873 L379.0025,1314.4873 L389.0025,1314.4873 L379.0025,1304.4873" fill="#FFFFFF" style="stroke:#000000;stroke-width:1;"/><text fill="#000000" font-family="Verdana" font-size="13" font-weight="bold" lengthAdjust="spacing" textLength="107.3833" x="151.46" y="1322.5571">Terminal State</text><text fill="#000000" font-family="Verdana" font-size="13" lengthAdjust="spacing" textLength="155.1685" x="151.46" y="1338.3564">- No transitions allowed</text><text fill="#000000" font-family="Verdana" font-size="13" lengthAdjust="spacing" textLength="222.5425" x="151.46" y="1354.1558">- Must call Reset() to reuse chunk</text><text fill="#000000" font-family="Verdana" font-size="13" lengthAdjust="spacing" textLength="210.1455" x="151.46" y="1369.9551">- Chunk can be returned to pool</text></g><g class="entity" data-entity="GMN23" data-source-line="93" data-uid="ent0024" id="entity_GMN23"><path d="M11,1173.5973 L11,1215.1959 L383.4634,1215.1959 L383.4634,1183.5973 L373.4634,1173.5973 L11,1173.5973" fill="#FFFFFF" style="stroke:#000000;stroke-width:1;"/><path d="M373.4634,1173.5973 L373.4634,1183.5973 L383.4634,1183.5973 L373.4634,1173.5973" fill="#FFFFFF" style="stroke:#000000;stroke-width:1;"/><text fill="#000000" font-family="Verdana" font-size="13" lengthAdjust="spacing" textLength="239.0845" x="17" y="1191.6671">State Transition Validation Function:</text><text fill="#000000" font-family="Verdana" font-size="13" lengthAdjust="spacing" textLength="351.4634" x="17" y="1207.4664">Is_Valid_Transition(From, To) validates all transitions</text></g><!--link *start* to Created--><g class="link" data-entity-1=".start." data-entity-2="Created" data-source-line="11" data-uid="lnk3" id="link_.start._Created"><path d="M469.23,78.8273 C469.23,99.1473 469.23,143.0673 469.23,176.4973" fill="none" id="*start*-to-Created" style="stroke:#000000;stroke-width:1;"/><polygon fill="#000000" points="469.23,182.4973,473.23,173.4973,469.23,177.4973,465.23,173.4973,469.23,182.4973" style="stroke:#000000;stroke-width:1;"/><text fill="#000000" font-family="Verdana" font-size="13" lengthAdjust="spacing" textLength="54.8501" x="470.23" y="122.8071">Create()</text></g><!--link Created to Reading--><g class="link" data-entity-1="Created" data-entity-2="Reading" data-source-line="22" data-uid="lnk4" id="link_Created_Reading"><path d="M422.41,249.4473 C404.76,264.4873 386.68,283.9873 377.23,306.3373 C371.52,319.8473 370.52,326.2973 377.23,339.3373 C383.97,352.4173 389.9139,359.7865 401.6539,368.8665" fill="none" id="Created-to-Reading" style="stroke:#000000;stroke-width:1;"/><polygon fill="#000000" points="406.4,372.5373,401.728,363.8671,402.4449,369.4783,396.8337,370.1952,406.4,372.5373" style="stroke:#000000;stroke-width:1;"/><text fill="#000000" font-family="Verdana" font-size="13" lengthAdjust="spacing" textLength="136.7856" x="378.23" y="328.4071">Begin read operation</text></g><!--link Reading to Created--><g class="link" data-entity-1="Reading" data-entity-2="Created" data-source-line="30" data-uid="lnk10" id="link_Reading_Created"><path d="M500.62,372.3473 C508.19,362.4973 515.25,351.1373 519.23,339.3373 C529.69,308.3673 516.4181,278.9154 499.5781,254.5154" fill="none" id="Reading-to-Created" style="stroke:#000000;stroke-width:1;"/><polygon fill="#000000" points="496.17,249.5773,497.9901,259.2565,499.0101,253.6924,504.5742,254.7124,496.17,249.5773" style="stroke:#000000;stroke-width:1;"/><text fill="#000000" font-family="Verdana" font-size="13" lengthAdjust="spacing" textLength="72.6172" x="523.48" y="320.4071">Read failed</text><text fill="#000000" font-family="Verdana" font-size="13" lengthAdjust="spacing" textLength="43.4624" x="538.0574" y="336.2064">(retry)</text></g><!--link Reading to Read--><g class="link" data-entity-1="Reading" data-entity-2="Read" data-source-line="23" data-uid="lnk5" id="link_Reading_Read"><path d="M469.23,439.4573 C469.23,464.1673 469.23,491.9973 469.23,516.6873" fill="none" id="Reading-to-Read" style="stroke:#000000;stroke-width:1;"/><polygon fill="#000000" points="469.23,522.6873,473.23,513.6873,469.23,517.6873,465.23,513.6873,469.23,522.6873" style="stroke:#000000;stroke-width:1;"/><text fill="#000000" font-family="Verdana" font-size="13" lengthAdjust="spacing" textLength="103.4604" x="470.23" y="486.6071">Read successful</text></g><!--link Read to Processing--><g class="link" data-entity-1="Read" data-entity-2="Processing" data-source-line="24" data-uid="lnk6" id="link_Read_Processing"><path d="M384.83,574.6373 C359.06,584.3573 333.52,599.4273 318.23,622.7273 C302.45,646.7873 318.1909,667.0993 343.7609,685.2893" fill="none" id="Read-to-Processing" style="stroke:#000000;stroke-width:1;"/><polygon fill="#000000" points="348.65,688.7673,343.635,680.2909,344.5757,685.869,338.9977,686.8097,348.65,688.7673" style="stroke:#000000;stroke-width:1;"/><text fill="#000000" font-family="Verdana" font-size="13" lengthAdjust="spacing" textLength="106.5518" x="319.23" y="644.7971">Start processing</text></g><!--link Processing to Read--><g class="link" data-entity-1="Processing" data-entity-2="Read" data-source-line="31" data-uid="lnk11" id="link_Processing_Read"><path d="M421.06,688.9573 C431.57,660.1873 444.8007,623.9929 455.3207,595.2029" fill="none" id="Processing-to-Read" style="stroke:#000000;stroke-width:1;"/><polygon fill="#000000" points="457.38,589.5673,450.5341,596.6478,455.664,594.2636,458.0481,599.3935,457.38,589.5673" style="stroke:#000000;stroke-width:1;"/><text fill="#000000" font-family="Verdana" font-size="13" lengthAdjust="spacing" textLength="109.1606" x="445.61" y="636.7971">Processing failed</text><text fill="#000000" font-family="Verdana" font-size="13" lengthAdjust="spacing" textLength="43.4624" x="478.4591" y="652.5964">(retry)</text></g><!--link Processing to Processed--><g class="link" data-entity-1="Processing" data-entity-2="Processed" data-source-line="25" data-uid="lnk7" id="link_Processing_Processed"><path d="M409.23,755.8473 C409.23,783.7273 409.23,817.6873 409.23,845.5473" fill="none" id="Processing-to-Processed" style="stroke:#000000;stroke-width:1;"/><polygon fill="#000000" points="409.23,851.5473,413.23,842.5473,409.23,846.5473,405.23,842.5473,409.23,851.5473" style="stroke:#000000;stroke-width:1;"/><text fill="#000000" font-family="Verdana" font-size="13" lengthAdjust="spacing" textLength="133.3896" x="410.23" y="810.9971">Processing complete</text></g><!--link Processed to Writing--><g class="link" data-entity-1="Processed" data-entity-2="Writing" data-source-line="26" data-uid="lnk8" id="link_Processed_Writing"><path d="M390.07,918.1773 C381.24,937.4773 374.95,961.9273 386.23,981.1073 C394.13,994.5473 400.903,1002.0912 413.983,1010.8412" fill="none" id="Processed-to-Writing" style="stroke:#000000;stroke-width:1;"/><polygon fill="#000000" points="418.97,1014.1773,413.7136,1005.8485,414.8142,1011.3972,409.2654,1012.4978,418.97,1014.1773" style="stroke:#000000;stroke-width:1;"/><text fill="#000000" font-family="Verdana" font-size="13" lengthAdjust="spacing" textLength="73.7407" x="387.23" y="970.1771">Begin write</text></g><!--link Writing to Processed--><g class="link" data-entity-1="Writing" data-entity-2="Processed" data-source-line="32" data-uid="lnk12" id="link_Writing_Processed"><path d="M494.66,1014.2573 C488.01,994.3273 478.04,968.7573 465.23,948.1073 C458.8,937.7473 454.5681,931.9622 446.4081,922.8722" fill="none" id="Writing-to-Processed" style="stroke:#000000;stroke-width:1;"/><polygon fill="#000000" points="442.4,918.4073,445.4355,927.7767,445.7401,922.128,451.3887,922.4326,442.4,918.4073" style="stroke:#000000;stroke-width:1;"/><text fill="#000000" font-family="Verdana" font-size="13" lengthAdjust="spacing" textLength="74.7627" x="482.22" y="962.1771">Write failed</text><text fill="#000000" font-family="Verdana" font-size="13" lengthAdjust="spacing" textLength="43.4624" x="497.8701" y="977.9764">(retry)</text></g><!--link Writing to Written--><g class="link" data-entity-1="Writing" data-entity-2="Written" data-source-line="27" data-uid="lnk9" id="link_Writing_Written"><path d="M504.23,1081.1773 C504.23,1105.0073 504.23,1131.2273 504.23,1155.0373" fill="none" id="Writing-to-Written" style="stroke:#000000;stroke-width:1;"/><polygon fill="#000000" points="504.23,1161.0373,508.23,1152.0373,504.23,1156.0373,500.23,1152.0373,504.23,1161.0373" style="stroke:#000000;stroke-width:1;"/><text fill="#000000" font-family="Verdana" font-size="13" lengthAdjust="spacing" textLength="105.606" x="505.23" y="1128.3771">Write successful</text></g><!--link Read to Writing--><g class="link" data-entity-1="Read" data-entity-2="Writing" data-source-line="35" data-uid="lnk13" id="link_Read_Writing"><path d="M533.82,589.6873 C545.64,598.7173 556.38,609.6973 563.23,622.7273 C637.33,763.7273 623.5,832.8673 565.23,981.1073 C560.45,993.2673 556.3072,1000.0962 547.4372,1009.7162" fill="none" id="Read-to-Writing" style="stroke:#000000;stroke-width:1;"/><polygon fill="#000000" points="543.37,1014.1273,552.4115,1010.2221,546.7593,1010.4514,546.5301,1004.7992,543.37,1014.1273" style="stroke:#000000;stroke-width:1;"/><text fill="#000000" font-family="Verdana" font-size="13" lengthAdjust="spacing" textLength="102.3115" x="614.97" y="802.9971">Skip processing</text><text fill="#000000" font-family="Verdana" font-size="13" lengthAdjust="spacing" textLength="98.5029" x="616.8743" y="818.7964">(pass-through)</text></g><!--link Written to *end*--><g class="link" data-entity-1="Written" data-entity-2=".end." data-source-line="38" data-uid="lnk15" id="link_Written_.end."><path d="M504.23,1227.8673 C504.23,1260.5273 504.23,1302.9573 504.23,1323.8673" fill="none" id="Written-to-*end*" style="stroke:#000000;stroke-width:1;"/><polygon fill="#000000" points="504.23,1329.8673,508.23,1320.8673,504.23,1324.8673,500.23,1320.8673,504.23,1329.8673" style="stroke:#000000;stroke-width:1;"/><text fill="#000000" font-family="Verdana" font-size="13" lengthAdjust="spacing" textLength="111.4141" x="505.23" y="1271.5571">Reset() for reuse</text></g><!--link Written to GMN20--><g class="link" data-entity-1="Written" data-entity-2="GMN20" data-source-line="86" data-uid="lnk22" id="link_Written_GMN20"><path d="M451.04,1227.8673 C413.92,1250.5373 364.37,1280.7873 326.06,1304.1673" fill="none" id="Written-GMN20" style="stroke:#000000;stroke-width:1;stroke-dasharray:7,7;"/></g><!--link GMN23 to GMN20--><g class="link" data-entity-1="GMN23" data-entity-2="GMN20" data-source-line="93" data-uid="lnk25" id="link_GMN23_GMN20"><path d="M206.96,1215.5173 C218.05,1238.4273 236.37,1276.2873 249.9,1304.2673" fill="none" id="GMN23-GMN20" style="stroke:#000000;stroke-width:1;stroke-dasharray:7,7;"/></g><g class="legend" data-source-line="96"><rect fill="none" height="99.0732" rx="7.5" ry="7.5" style="stroke:#000000;stroke-width:1;" width="187.3447" x="649.3985" y="1388.6846"/><text fill="#000000" font-family="Verdana" font-size="14" font-weight="bold" lengthAdjust="spacing" textLength="41.0977" x="659.1836" y="1409.7598">Color</text><text fill="#000000" font-family="Verdana" font-size="14" font-weight="bold" lengthAdjust="spacing" textLength="83.877" x="709.8516" y="1409.7598">State Type</text><rect fill="#90EE90" height="17.0146" style="stroke:none;stroke-width:1;" width="50.668" x="654.3985" y="1412.6992"/><text fill="#000000" font-family="Verdana" font-size="14" lengthAdjust="spacing" textLength="4.9219" x="654.3985" y="1426.7744">&#160;</text><text fill="#000000" font-family="Verdana" font-size="14" lengthAdjust="spacing" textLength="82.4756" x="709.9883" y="1426.7744">Initial State</text><rect fill="#FFB6C1" height="17.0146" style="stroke:none;stroke-width:1;" width="50.668" x="654.3985" y="1429.7139"/><text fill="#000000" font-family="Verdana" font-size="14" lengthAdjust="spacing" textLength="4.9219" x="654.3985" y="1443.7891">&#160;</text><text fill="#000000" font-family="Verdana" font-size="14" lengthAdjust="spacing" textLength="103.7832" x="709.9883" y="1443.7891">Terminal State</text><rect fill="#FFFFE0" height="17.0146" style="stroke:none;stroke-width:1;" width="50.668" x="654.3985" y="1446.7285"/><text fill="#000000" font-family="Verdana" font-size="14" lengthAdjust="spacing" textLength="4.9219" x="654.3985" y="1460.8037">&#160;</text><text fill="#000000" font-family="Verdana" font-size="14" lengthAdjust="spacing" textLength="116.833" x="709.9883" y="1460.8037">Processing State</text><rect fill="#ADD8E6" height="17.0146" style="stroke:none;stroke-width:1;" width="50.668" x="654.3985" y="1463.7432"/><text fill="#000000" font-family="Verdana" font-size="14" lengthAdjust="spacing" textLength="4.9219" x="654.3985" y="1477.8184">&#160;</text><text fill="#000000" font-family="Verdana" font-size="14" lengthAdjust="spacing" textLength="65.543" x="709.9883" y="1477.8184">I/O State</text><line style="stroke:#000000;stroke-width:1;" x1="654.3985" x2="831.7432" y1="1395.6846" y2="1395.6846"/><line style="stroke:#000000;stroke-width:1;" x1="654.3985" x2="831.7432" y1="1412.6992" y2="1412.6992"/><line style="stroke:#000000;stroke-width:1;" x1="654.3985" x2="831.7432" y1="1429.7139" y2="1429.7139"/><line style="stroke:#000000;stroke-width:1;" x1="654.3985" x2="831.7432" y1="1446.7285" y2="1446.7285"/><line style="stroke:#000000;stroke-width:1;" x1="654.3985" x2="831.7432" y1="1463.7432" y2="1463.7432"/><line style="stroke:#000000;stroke-width:1;" x1="654.3985" x2="831.7432" y1="1480.7578" y2="1480.7578"/><line style="stroke:#000000;stroke-width:1;" x1="654.3985" x2="654.3985" y1="1395.6846" y2="1480.7578"/><line style="stroke:#000000;stroke-width:1;" x1="705.0664" x2="705.0664" y1="1395.6846" y2="1480.7578"/><line style="stroke:#000000;stroke-width:1;" x1="831.7432" x2="831.7432" y1="1395.6846" y2="1480.7578"/></g><!--SRC=[dLRVZnet47xVls9wVGYWegGlKOAk9zrnK4LABYXtRLNrgiZi3ek5iLUszn1j-hztnckpXf2awXDcv_Fucsz-sD_vDMuH6YMaBhpq2c6wRlK65jQKw9pKDTnxuH7UYN8jDHQ5sqZT22ksu8BXxmBWHfIRsffMLrEZZBsyb5fwATJL5RoLzTh_R17rEPn7kvMw1owatfp3DGSw2VaxAcLsPyys2NEZMYp-AOe_Hd_2U7m5Kul4k899N0s654u8uYAQBY3dFe4ttJg6AbR45mGTN0elZNxKTmOguGK8ubPhShr7drn-G54HuU3ITDwUlmVJe0sRGMgWi6fBSJtg2EwyhQmXTKrhIyoTNP2BMxQxjcGrLgrIUr16L5Xr7lQmCXPwiTBkFflCvaZC2JnOeHtjsvwXTTqqQi-y6jcWelop4ZMU-CL0BIkPqcmRXHvpLgRrJNiGvpTBmlvNSI8OFAcDZfO1axlogDbLLauJcFEgozoZ_botNRUjA9x17GUlcELEs0ey2oBv25Uaak7oIJcQm0tMH91CLK-vIEO49LpuwKyDa63Fj9fmWrcVPospPk1Gk6T4BdexevDOYIN7YKNwcX0KEI5uXJb14kC3UhlFDO01Mai9j5YQ9xJxuL6aVK-5u5P2Agx6WMKtmzDGeYxPrzCDET4yy8xgAPhutczaSvIoWyYz4W7J2qpx6-hOiL_JtAZNmSr3B9skO8ga4VlXyS7XEVI3OQXbYwt3hd8yEg1w3RjSeUa_M9uzO5P96nfIez62vTDLnt4o6j77SPorkjqkUQx46H8iz_8lJ9CcVWebt1YfUGX9HzkK8aFdtJX_nhtGcJBSFYbp50Cl2zGLCEVYX7d41T_NfPTF6FepN0NH-PmoqRL0rgl1SeT-P-o62mPvvwcTQONyiN2SqTRYLva46hTOIiTXB5Y2I29e8fx8XrWIdPFfbmvpeKJCeI3a2ZHY5NNjwMHb-MLc2bU1s28_PpIQBduPB_aMEXBfMjM63brlGT0abTsrqJFtHwEtOqDTpKhH_-SpNTfz4qnV9n5hh1-sxyEmFP1G9oUvVdWSAv0K-dRu4VdD2WdZvuibujZx_wcFfV6UBib8n8VNnMXqQEAS1jtH-JJZfjh5rBzhdOUIlXowcweaD3UKt9fPavP4Qia5xrlB5pq16sDKnkjPV2az2IMhxXQphKf3mPkc6_MqVkXxyjSUF6zroOl9etxZFWR3nnuvcDEZu0TuCCDq08POZaOVSNYBDL4gLFZfseYY-FGJXDSHBoA7VOFmYKrm-Vth5xFPwnTNj4uFdWwKxFFvpSlfZsm_LZW3pEUpuE2pXsE2ND_Ulfgz36UaEY4RaUoe5ly2]--></g></svg>
