<svg xmlns="http://www.w3.org/2000/svg" xmlns:xlink="http://www.w3.org/1999/xlink" contentStyleType="text/css" data-diagram-type="DESCRIPTION" height="763px" preserveAspectRatio="none" style="width:1020px;height:763px;background:#FFFFFF;" version="1.1" viewBox="0 0 1020 763" width="1020px" zoomAndPan="magnify"><title>Example: Processing a Log File with Pipelib</title><defs/><g><g class="title" data-source-line="2"><text fill="#000000" font-family="Verdana" font-size="22" font-weight="bold" lengthAdjust="spacing" textLength="535.5732" x="237.7725" y="37.1182">Example: Processing a Log File with Pipelib</text></g><!--cluster Pipeline--><g class="cluster" data-entity="Pipeline" data-source-line="22" data-uid="ent0009" id="cluster_Pipeline"><rect fill="#FFFFFF" height="255.22" rx="2.5" ry="2.5" style="stroke:#000000;stroke-width:1;" width="303" x="195.41" y="393.4773"/><text fill="#000000" font-family="Verdana" font-size="14" font-weight="bold" lengthAdjust="spacing" textLength="120.8252" x="286.4974" y="409.5525">Pipeline Stages</text></g><!--entity S1--><g class="entity" data-entity="S1" data-source-line="23" data-uid="ent0010" id="entity_S1"><rect fill="#FFC0CB" height="54.0293" rx="2.5" ry="2.5" style="stroke:#000000;stroke-width:1;" width="103.0498" x="219.89" y="437.4773"/><text fill="#000000" font-family="Verdana" font-size="14" lengthAdjust="spacing" textLength="60.7373" x="241.0463" y="461.5525">Stage 1:</text><text fill="#000000" font-family="Verdana" font-size="14" lengthAdjust="spacing" textLength="83.0498" x="229.89" y="478.5671">Filter Errors</text></g><!--entity S2--><g class="entity" data-entity="S2" data-source-line="24" data-uid="ent0011" id="entity_S2"><rect fill="#FFC0CB" height="54.0293" rx="2.5" ry="2.5" style="stroke:#000000;stroke-width:1;" width="96.3984" x="358.21" y="437.4773"/><text fill="#000000" font-family="Verdana" font-size="14" lengthAdjust="spacing" textLength="60.7373" x="376.0406" y="461.5525">Stage 2:</text><text fill="#000000" font-family="Verdana" font-size="14" lengthAdjust="spacing" textLength="76.3984" x="368.21" y="478.5671">Extract IPs</text></g><!--entity S3--><g class="entity" data-entity="S3" data-source-line="25" data-uid="ent0012" id="entity_S3"><rect fill="#FFC0CB" height="54.0293" rx="2.5" ry="2.5" style="stroke:#000000;stroke-width:1;" width="89.5146" x="226.65" y="570.6673"/><text fill="#000000" font-family="Verdana" font-size="14" lengthAdjust="spacing" textLength="60.7373" x="241.0387" y="594.7425">Stage 3:</text><text fill="#000000" font-family="Verdana" font-size="14" lengthAdjust="spacing" textLength="69.5146" x="236.65" y="611.7571">Compress</text></g><!--entity Input--><g class="entity" data-entity="Input" data-source-line="10" data-uid="ent0002" id="entity_Input"><rect fill="#ADD8E6" height="71.0439" rx="2.5" ry="2.5" style="stroke:#000000;stroke-width:1;" width="103.0771" x="370.87" y="59.8073"/><text fill="#000000" font-family="Verdana" font-size="14" lengthAdjust="spacing" textLength="66.8418" x="388.9877" y="83.8825">Input File</text><text fill="#000000" font-family="Verdana" font-size="14" lengthAdjust="spacing" textLength="83.0771" x="380.87" y="100.8971">(server.log)</text><text fill="#000000" font-family="Verdana" font-size="14" lengthAdjust="spacing" textLength="53.0195" x="395.8988" y="117.9118">100 MB</text></g><!--entity Chunking--><g class="entity" data-entity="Chunking" data-source-line="12" data-uid="ent0003" id="entity_Chunking"><rect fill="#90EE90" height="54.0293" rx="2.5" ry="2.5" style="stroke:#000000;stroke-width:1;" width="131.207" x="356.81" y="191.9273"/><text fill="#000000" font-family="Verdana" font-size="14" lengthAdjust="spacing" textLength="66.0625" x="389.3823" y="216.0025">Chunking</text><text fill="#000000" font-family="Verdana" font-size="14" lengthAdjust="spacing" textLength="111.207" x="366.81" y="233.0171">(16 MB chunks)</text></g><!--entity C1--><g class="entity" data-entity="C1" data-source-line="15" data-uid="ent0004" id="entity_C1"><rect fill="#E0FFFF" height="54.0293" rx="2.5" ry="2.5" style="stroke:#000000;stroke-width:1;" width="87.1699" x="150.82" y="305.9573"/><text fill="#000000" font-family="Verdana" font-size="14" lengthAdjust="spacing" textLength="58.4609" x="165.1745" y="330.0325">Chunk 1</text><text fill="#000000" font-family="Verdana" font-size="14" lengthAdjust="spacing" textLength="67.1699" x="160.82" y="347.0471">[0-16MB]</text></g><!--entity C2--><g class="entity" data-entity="C2" data-source-line="16" data-uid="ent0005" id="entity_C2"><rect fill="#E0FFFF" height="54.0293" rx="2.5" ry="2.5" style="stroke:#000000;stroke-width:1;" width="96.0703" x="615.37" y="305.9573"/><text fill="#000000" font-family="Verdana" font-size="14" lengthAdjust="spacing" textLength="58.4609" x="634.1747" y="330.0325">Chunk 2</text><text fill="#000000" font-family="Verdana" font-size="14" lengthAdjust="spacing" textLength="76.0703" x="625.37" y="347.0471">[16-32MB]</text></g><!--entity C3--><g class="entity" data-entity="C3" data-source-line="17" data-uid="ent0006" id="entity_C3"><rect fill="#E0FFFF" height="54.0293" rx="2.5" ry="2.5" style="stroke:#000000;stroke-width:1;" width="96.0703" x="273.37" y="305.9573"/><text fill="#000000" font-family="Verdana" font-size="14" lengthAdjust="spacing" textLength="58.4609" x="292.1747" y="330.0325">Chunk 3</text><text fill="#000000" font-family="Verdana" font-size="14" lengthAdjust="spacing" textLength="76.0703" x="283.37" y="347.0471">[32-48MB]</text></g><!--entity C4--><g class="entity" data-entity="C4" data-source-line="18" data-uid="ent0007" id="entity_C4"><rect fill="#E0FFFF" height="54.0293" rx="2.5" ry="2.5" style="stroke:#000000;stroke-width:1;" width="35.2783" x="404.77" y="305.9573"/><text fill="#000000" font-family="Verdana" font-size="14" lengthAdjust="spacing" textLength="15.2783" x="414.77" y="330.0325">...</text><text fill="#000000" font-family="Verdana" font-size="14" lengthAdjust="spacing" textLength="4.9219" x="419.9482" y="347.0471">&#160;</text></g><!--entity C7--><g class="entity" data-entity="C7" data-source-line="19" data-uid="ent0008" id="entity_C7"><rect fill="#E0FFFF" height="54.0293" rx="2.5" ry="2.5" style="stroke:#000000;stroke-width:1;" width="104.9707" x="474.92" y="305.9573"/><text fill="#000000" font-family="Verdana" font-size="14" lengthAdjust="spacing" textLength="58.4609" x="498.1749" y="330.0325">Chunk 7</text><text fill="#000000" font-family="Verdana" font-size="14" lengthAdjust="spacing" textLength="84.9707" x="484.92" y="347.0471">[96-100MB]</text></g><!--entity R1--><g class="entity" data-entity="R1" data-source-line="29" data-uid="ent0013" id="entity_R1"><rect fill="#FFFFE0" height="37.0146" rx="2.5" ry="2.5" style="stroke:#000000;stroke-width:1;" width="77.4082" x="530.71" y="579.1773"/><text fill="#000000" font-family="Verdana" font-size="14" lengthAdjust="spacing" textLength="57.4082" x="540.71" y="603.2525">Result 1</text></g><!--entity R2--><g class="entity" data-entity="R2" data-source-line="30" data-uid="ent0014" id="entity_R2"><rect fill="#FFFFE0" height="37.0146" rx="2.5" ry="2.5" style="stroke:#000000;stroke-width:1;" width="77.4082" x="642.71" y="579.1773"/><text fill="#000000" font-family="Verdana" font-size="14" lengthAdjust="spacing" textLength="57.4082" x="652.71" y="603.2525">Result 2</text></g><!--entity R3--><g class="entity" data-entity="R3" data-source-line="31" data-uid="ent0015" id="entity_R3"><rect fill="#FFFFE0" height="37.0146" rx="2.5" ry="2.5" style="stroke:#000000;stroke-width:1;" width="77.4082" x="754.71" y="579.1773"/><text fill="#000000" font-family="Verdana" font-size="14" lengthAdjust="spacing" textLength="57.4082" x="764.71" y="603.2525">Result 3</text></g><!--entity R4--><g class="entity" data-entity="R4" data-source-line="32" data-uid="ent0016" id="entity_R4"><rect fill="#FFFFE0" height="37.0146" rx="2.5" ry="2.5" style="stroke:#000000;stroke-width:1;" width="35.2783" x="866.77" y="579.1773"/><text fill="#000000" font-family="Verdana" font-size="14" lengthAdjust="spacing" textLength="15.2783" x="876.77" y="603.2525">...</text></g><!--entity R7--><g class="entity" data-entity="R7" data-source-line="33" data-uid="ent0017" id="entity_R7"><rect fill="#FFFFE0" height="37.0146" rx="2.5" ry="2.5" style="stroke:#000000;stroke-width:1;" width="77.4082" x="936.71" y="579.1773"/><text fill="#000000" font-family="Verdana" font-size="14" lengthAdjust="spacing" textLength="57.4082" x="946.71" y="603.2525">Result 7</text></g><!--entity Output--><g class="entity" data-entity="Output" data-source-line="36" data-uid="ent0018" id="entity_Output"><rect fill="#ADD8E6" height="71.0439" rx="2.5" ry="2.5" style="stroke:#000000;stroke-width:1;" width="122.0947" x="676.36" y="686.3873"/><text fill="#000000" font-family="Verdana" font-size="14" lengthAdjust="spacing" textLength="77.4854" x="698.6647" y="710.4625">Output File</text><text fill="#000000" font-family="Verdana" font-size="14" lengthAdjust="spacing" textLength="102.0947" x="686.36" y="727.4771">(errors.log.gz)</text><text fill="#000000" font-family="Verdana" font-size="14" lengthAdjust="spacing" textLength="55.5762" x="709.6193" y="744.4918">~10 MB</text></g><g class="entity" data-entity="GMN40" data-source-line="65" data-uid="ent0041" id="entity_GMN40"><path d="M735.41,419.9873 L735.41,508.9839 L945.4178,508.9839 L945.4178,429.9873 L935.4178,419.9873 L735.41,419.9873" fill="#FFFFE0" style="stroke:#000000;stroke-width:1;"/><path d="M935.4178,419.9873 L935.4178,429.9873 L945.4178,429.9873 L935.4178,419.9873" fill="#FFFFE0" style="stroke:#000000;stroke-width:1;"/><text fill="#000000" font-family="Verdana" font-size="13" lengthAdjust="spacing" textLength="165.731" x="753.0484" y="438.0571">Each chunk goes through</text><text fill="#000000" font-family="Verdana" font-size="13" lengthAdjust="spacing" textLength="123.5" x="774.1639" y="453.8564">all stages in order:</text><text fill="#000000" font-family="Verdana" font-size="13" lengthAdjust="spacing" textLength="176.0142" x="747.9068" y="469.6558">1. Filter (find ERROR lines)</text><text fill="#000000" font-family="Verdana" font-size="13" lengthAdjust="spacing" textLength="189.0078" x="741.41" y="485.4551">2. Extract (get IP addresses)</text><text fill="#000000" font-family="Verdana" font-size="13" lengthAdjust="spacing" textLength="172.1104" x="749.8587" y="501.2544">3. Compress (reduce size)</text></g><g class="entity" data-entity="GMN43" data-source-line="73" data-uid="ent0044" id="entity_GMN43"><path d="M534.81,435.7873 L534.81,493.1853 A0,0 0 0 0 534.81,493.1853 L700.0097,493.1853 A0,0 0 0 0 700.0097,493.1853 L700.0097,445.7873 L690.0097,435.7873 L631.34,435.7873 L654.1,360.1873 L623.34,435.7873 L534.81,435.7873 A0,0 0 0 0 534.81,435.7873" fill="#FFFFE0" style="stroke:#000000;stroke-width:1;"/><path d="M690.0097,435.7873 L690.0097,445.7873 L700.0097,445.7873 L690.0097,435.7873" fill="#FFFFE0" style="stroke:#000000;stroke-width:1;"/><text fill="#000000" font-family="Verdana" font-size="13" lengthAdjust="spacing" textLength="143.9077" x="540.956" y="453.8571">Chunks are processed</text><text fill="#000000" font-family="Verdana" font-size="13" lengthAdjust="spacing" textLength="144.1997" x="540.81" y="469.6564">in parallel by different</text><text fill="#000000" font-family="Verdana" font-size="13" lengthAdjust="spacing" textLength="65.73" x="580.0449" y="485.4558">CPU cores</text></g><g class="entity" data-entity="GMN46" data-source-line="79" data-uid="ent0047" id="entity_GMN46"><path d="M11,568.9873 L11,626.3853 L171.8198,626.3853 L171.8198,578.9873 L161.8198,568.9873 L11,568.9873" fill="#FFFFE0" style="stroke:#000000;stroke-width:1;"/><path d="M161.8198,568.9873 L161.8198,578.9873 L171.8198,578.9873 L161.8198,568.9873" fill="#FFFFE0" style="stroke:#000000;stroke-width:1;"/><text fill="#000000" font-family="Verdana" font-size="13" lengthAdjust="spacing" textLength="139.8198" x="17" y="587.0571">Results are written in</text><text fill="#000000" font-family="Verdana" font-size="13" lengthAdjust="spacing" textLength="136.519" x="18.6504" y="602.8564">correct order despite</text><text fill="#000000" font-family="Verdana" font-size="13" lengthAdjust="spacing" textLength="121.7734" x="26.0232" y="618.6558">parallel processing</text></g><g class="entity" data-entity="GMN49" data-source-line="86" data-uid="ent0050" id="entity_GMN49"><path d="M117.1,58.7373 L117.1,131.9346 A0,0 0 0 0 117.1,131.9346 L335.7152,131.9346 A0,0 0 0 0 335.7152,131.9346 L335.7152,99.3273 L370.7,95.3273 L335.7152,91.3273 L335.7152,68.7373 L325.7152,58.7373 L117.1,58.7373 A0,0 0 0 0 117.1,58.7373" fill="#FFFFE0" style="stroke:#000000;stroke-width:1;"/><path d="M325.7152,58.7373 L325.7152,68.7373 L335.7152,68.7373 L325.7152,58.7373" fill="#FFFFE0" style="stroke:#000000;stroke-width:1;"/><text fill="#000000" font-family="Verdana" font-size="13" font-weight="bold" lengthAdjust="spacing" textLength="165.3374" x="139.2389" y="76.8071">Performance Example:</text><text fill="#000000" font-family="Verdana" font-size="13" lengthAdjust="spacing" textLength="163.4839" x="140.1657" y="92.6064">Sequential: ~10 seconds</text><text fill="#000000" font-family="Verdana" font-size="13" lengthAdjust="spacing" textLength="197.6152" x="123.1" y="108.4058">Parallel (4 cores): ~3 seconds</text><text fill="#000000" font-family="Verdana" font-size="13" lengthAdjust="spacing" textLength="96.3257" x="173.7448" y="124.2051">Speedup: 3.3x</text></g><!--link Input to Chunking--><g class="link" data-entity-1="Input" data-entity-2="Chunking" data-source-line="39" data-uid="lnk19" id="link_Input_Chunking"><path d="M422.41,131.1773 C422.41,150.4173 422.41,167.9073 422.41,185.5973" fill="none" id="Input-to-Chunking" style="stroke:#000000;stroke-width:1;"/><polygon fill="#000000" points="422.41,191.5973,426.41,182.5973,422.41,186.5973,418.41,182.5973,422.41,191.5973" style="stroke:#000000;stroke-width:1;"/></g><!--link Chunking to C1--><g class="link" data-entity-1="Chunking" data-entity-2="C1" data-source-line="40" data-uid="lnk20" id="link_Chunking_C1"><path d="M363.17,246.3673 C331.02,261.0173 290.74,279.8873 255.41,297.9573 C249.8,300.8273 249.2219,301.0725 243.4619,304.2025" fill="none" id="Chunking-to-C1" style="stroke:#000000;stroke-width:1;"/><polygon fill="#000000" points="238.19,307.0673,248.0077,306.2848,242.5833,304.68,244.188,299.2555,238.19,307.0673" style="stroke:#000000;stroke-width:1;"/></g><!--link Chunking to C2--><g class="link" data-entity-1="Chunking" data-entity-2="C2" data-source-line="41" data-uid="lnk21" id="link_Chunking_C2"><path d="M483.95,246.3673 C517.66,261.0973 560.08,280.0373 597.41,297.9573 C603.1,300.6973 603.6826,300.9258 609.5526,303.8858" fill="none" id="Chunking-to-C2" style="stroke:#000000;stroke-width:1;"/><polygon fill="#000000" points="614.91,306.5873,608.6749,298.9634,610.4455,304.336,605.0729,306.1066,614.91,306.5873" style="stroke:#000000;stroke-width:1;"/></g><!--link Chunking to C3--><g class="link" data-entity-1="Chunking" data-entity-2="C3" data-source-line="42" data-uid="lnk22" id="link_Chunking_C3"><path d="M398.73,246.2073 C382.64,264.0573 365.4479,283.1313 349.3079,301.0313" fill="none" id="Chunking-to-C3" style="stroke:#000000;stroke-width:1;"/><polygon fill="#000000" points="345.29,305.4873,354.2876,301.4818,348.6383,301.7739,348.3462,296.1246,345.29,305.4873" style="stroke:#000000;stroke-width:1;"/></g><!--link Chunking to C4--><g class="link" data-entity-1="Chunking" data-entity-2="C4" data-source-line="43" data-uid="lnk23" id="link_Chunking_C4"><path d="M422.41,246.2073 C422.41,264.0573 422.41,281.5873 422.41,299.4873" fill="none" id="Chunking-to-C4" style="stroke:#000000;stroke-width:1;"/><polygon fill="#000000" points="422.41,305.4873,426.41,296.4873,422.41,300.4873,418.41,296.4873,422.41,305.4873" style="stroke:#000000;stroke-width:1;"/></g><!--link Chunking to C7--><g class="link" data-entity-1="Chunking" data-entity-2="C7" data-source-line="44" data-uid="lnk24" id="link_Chunking_C7"><path d="M447.03,246.2073 C463.76,264.0573 481.7078,283.2087 498.4778,301.1087" fill="none" id="Chunking-to-C7" style="stroke:#000000;stroke-width:1;"/><polygon fill="#000000" points="502.58,305.4873,499.3458,296.1846,499.1615,301.8385,493.5077,301.6542,502.58,305.4873" style="stroke:#000000;stroke-width:1;"/></g><!--link C1 to Pipeline--><g class="link" data-entity-1="C1" data-entity-2="Pipeline" data-source-line="46" data-uid="lnk25" id="link_C1_Pipeline"><path d="M235.97,360.4273 C242.28,363.4673 248.88,366.1373 255.41,367.9873 C278.41,374.5173 452.02,362.1973 470.41,377.4773 C474.125,380.5623 477.2286,384.1903 479.815,388.1809 C480.4616,389.1786 481.0759,390.1989 481.6593,391.239 C481.951,391.7591 482.235,392.2842 482.5115,392.8138 C482.5806,392.9463 479.9119,387.7398 479.9801,387.8727" fill="none" id="C1-to-Pipeline" style="stroke:#000000;stroke-width:1;"/><polygon fill="#000000" points="482.7174,393.2119,482.1709,383.3783,480.4363,388.7626,475.052,387.028,482.7174,393.2119" style="stroke:#000000;stroke-width:1;"/></g><!--link C2 to Pipeline--><g class="link" data-entity-1="C2" data-entity-2="Pipeline" data-source-line="47" data-uid="lnk26" id="link_C2_Pipeline"><path d="M617.05,360.4473 C610.6,363.3573 603.94,365.9873 597.41,367.9873 C580.29,373.2273 531.19,366.0473 517.41,377.4773 C509.82,383.7698 504.3306,392.1742 500.3677,401.27 C499.8723,402.4069 499.4008,403.5547 498.952,404.7105 C498.8398,404.9995 498.729,405.2889 498.6196,405.5788 C498.5649,405.7238 500.6019,400.2451 500.5479,400.3903" fill="none" id="C2-to-Pipeline" style="stroke:#000000;stroke-width:1;"/><polygon fill="#000000" points="498.4566,406.014,505.3427,398.9726,500.1994,401.3276,497.8444,396.1842,498.4566,406.014" style="stroke:#000000;stroke-width:1;"/></g><!--link C3 to Pipeline--><g class="link" data-entity-1="C3" data-entity-2="Pipeline" data-source-line="48" data-uid="lnk27" id="link_C3_Pipeline"><path d="M367.76,360.4773 C374.21,363.3873 380.87,366.0073 387.41,367.9873 C405.17,373.3873 456.55,365.1173 470.41,377.4773 C474.015,380.6898 477.0356,384.414 479.5611,388.4754 C480.1925,389.4907 480.7929,390.5271 481.3638,391.5819 C481.6492,392.1093 479.2222,387.2856 479.493,387.8218" fill="none" id="C3-to-Pipeline" style="stroke:#000000;stroke-width:1;"/><polygon fill="#000000" points="482.1981,393.1775,481.7109,383.3407,479.9439,388.7144,474.5701,386.9474,482.1981,393.1775" style="stroke:#000000;stroke-width:1;"/></g><!--link C4 to Pipeline--><g class="link" data-entity-1="C4" data-entity-2="Pipeline" data-source-line="49" data-uid="lnk28" id="link_C4_Pipeline"><path d="M440.48,352.4873 C445.79,357.6573 451.71,363.1773 457.41,367.9873 C462.88,372.5973 466.46,371.5073 470.41,377.4773 C473.0325,381.4411 475.3131,385.7061 477.2962,390.1412 C477.5441,390.6956 477.7873,391.2527 478.026,391.8121 C478.1453,392.0919 478.2635,392.3722 478.3806,392.6531 C478.4391,392.7936 476.2121,387.3864 476.2701,387.5271" fill="none" id="C4-to-Pipeline" style="stroke:#000000;stroke-width:1;"/><polygon fill="#000000" points="478.5554,393.0749,478.826,383.2297,476.651,388.4517,471.429,386.2767,478.5554,393.0749" style="stroke:#000000;stroke-width:1;"/></g><!--link C7 to Pipeline--><g class="link" data-entity-1="C7" data-entity-2="Pipeline" data-source-line="50" data-uid="lnk29" id="link_C7_Pipeline"><path d="M519.92,360.1873 C514.6,378.8123 507.3675,404.1273 501.3938,425.0348 C500.647,427.6482 499.92,430.1928 499.2188,432.6468 C499.0435,433.2603 498.8698,433.8682 498.6978,434.47 C498.6119,434.771 500.1747,429.3013 500.0896,429.5992" fill="none" id="C7-to-Pipeline" style="stroke:#000000;stroke-width:1;"/><polygon fill="#000000" points="498.4412,435.3683,504.7599,427.8136,499.8149,430.5607,497.0677,425.6157,498.4412,435.3683" style="stroke:#000000;stroke-width:1;"/></g><!--link Pipeline to R1--><g class="link" data-entity-1="Pipeline" data-entity-2="R1" data-source-line="52" data-uid="lnk30" id="link_Pipeline_R1"><path d="M498.4508,478.8403 C498.598,479.0848 498.7468,479.332 498.8972,479.5818 C503.7106,487.5776 510.1788,498.3204 517.2525,510.0686 C531.4,533.5648 544.8751,555.9421 555.4751,573.5471" fill="none" id="Pipeline-to-R1" style="stroke:#000000;stroke-width:1;"/><polygon fill="#000000" points="558.57,578.6873,557.3544,568.9138,555.9909,574.4038,550.5008,573.0403,558.57,578.6873" style="stroke:#000000;stroke-width:1;"/></g><!--link Pipeline to R2--><g class="link" data-entity-1="Pipeline" data-entity-2="R2" data-source-line="53" data-uid="lnk31" id="link_Pipeline_R2"><path d="M498.4616,482.86 C498.4987,482.929 498.5359,482.9982 498.5732,483.0674 C498.7224,483.3444 498.8734,483.6229 499.0263,483.9028 C499.3322,484.4625 499.6454,485.0277 499.966,485.5972 C500.6071,486.7362 501.2775,487.8925 501.9762,489.0571 C503.3736,491.3863 504.8843,493.7488 506.5008,496.0731 C509.7338,500.7217 513.39,505.2173 517.41,508.9873 C527.72,518.6473 595.2127,553.3755 640.2827,576.1055" fill="none" id="Pipeline-to-R2" style="stroke:#000000;stroke-width:1;"/><polygon fill="#000000" points="645.64,578.8073,639.4053,571.1831,641.1756,576.5558,635.8029,578.3261,645.64,578.8073" style="stroke:#000000;stroke-width:1;"/></g><!--link Pipeline to R3--><g class="link" data-entity-1="Pipeline" data-entity-2="R3" data-source-line="54" data-uid="lnk32" id="link_Pipeline_R3"><path d="M498.4717,484.9144 C498.5089,484.986 498.5463,485.0576 498.5838,485.1293 C498.6589,485.2727 498.7345,485.4163 498.8105,485.5601 C498.9627,485.8479 499.117,486.1365 499.2734,486.4258 C499.899,487.5833 500.5581,488.7529 501.2511,489.9242 C502.6371,492.2668 504.1583,494.6167 505.8159,496.8917 C509.1313,501.4417 512.9925,505.6923 517.41,508.9873 C598.65,569.5773 642.66,533.0173 737.41,568.9873 C744.81,571.7973 747.1468,572.6486 754.4168,576.1586" fill="none" id="Pipeline-to-R3" style="stroke:#000000;stroke-width:1;"/><polygon fill="#000000" points="759.82,578.7673,753.4543,571.2521,755.3173,576.5934,749.9761,578.4564,759.82,578.7673" style="stroke:#000000;stroke-width:1;"/></g><!--link Pipeline to R4--><g class="link" data-entity-1="Pipeline" data-entity-2="R4" data-source-line="55" data-uid="lnk33" id="link_Pipeline_R4"><path d="M498.4559,485.6809 C498.4933,485.7533 498.5308,485.8257 498.5685,485.8982 C498.7192,486.1881 498.872,486.4788 499.0271,486.7701 C499.6474,487.9353 500.3028,489.1104 500.994,490.2845 C502.3763,492.6329 503.9015,494.9775 505.5739,497.232 C508.9188,501.7411 512.8525,505.8898 517.41,508.9873 C641.42,593.2873 712.75,507.2773 849.41,568.9873 C855.34,571.6673 856.4362,571.8551 861.5662,575.8951" fill="none" id="Pipeline-to-R4" style="stroke:#000000;stroke-width:1;"/><polygon fill="#000000" points="866.28,579.6073,861.6842,570.8965,862.3519,576.5138,856.7346,577.1815,866.28,579.6073" style="stroke:#000000;stroke-width:1;"/></g><!--link Pipeline to R7--><g class="link" data-entity-1="Pipeline" data-entity-2="R7" data-source-line="56" data-uid="lnk34" id="link_Pipeline_R7"><path d="M498.4879,486.0187 C498.638,486.3094 498.7904,486.6008 498.945,486.8928 C499.5633,488.0607 500.2174,489.2377 500.9078,490.4129 C502.2887,492.7631 503.8151,495.1057 505.4923,497.3529 C508.8469,501.8473 512.805,505.9598 517.41,508.9873 C668.34,608.2473 747.03,514.9573 919.41,568.9873 C927.48,571.5173 930.4389,572.4643 938.1489,576.1943" fill="none" id="Pipeline-to-R7" style="stroke:#000000;stroke-width:1;"/><polygon fill="#000000" points="943.55,578.8073,937.1903,571.2871,939.0491,576.6298,933.7063,578.4886,943.55,578.8073" style="stroke:#000000;stroke-width:1;"/></g><!--link R1 to Output--><g class="link" data-entity-1="R1" data-entity-2="Output" data-source-line="58" data-uid="lnk35" id="link_R1_Output"><path d="M581.56,616.6773 C591.94,631.0373 607.92,650.9573 625.41,664.6973 C640.63,676.6673 653.4329,684.4453 670.6629,692.9753" fill="none" id="R1-to-Output" style="stroke:#000000;stroke-width:1;"/><polygon fill="#000000" points="676.04,695.6373,669.749,688.0595,671.5591,693.4189,666.1996,695.229,676.04,695.6373" style="stroke:#000000;stroke-width:1;"/></g><!--link R2 to Output--><g class="link" data-entity-1="R2" data-entity-2="Output" data-source-line="59" data-uid="lnk36" id="link_R2_Output"><path d="M689.55,616.4573 C697.86,634.5973 708.4909,657.7825 718.8909,680.4825" fill="none" id="R2-to-Output" style="stroke:#000000;stroke-width:1;"/><polygon fill="#000000" points="721.39,685.9373,721.2779,676.0891,719.3074,681.3917,714.0048,679.4212,721.39,685.9373" style="stroke:#000000;stroke-width:1;"/></g><!--link R3 to Output--><g class="link" data-entity-1="R3" data-entity-2="Output" data-source-line="60" data-uid="lnk37" id="link_R3_Output"><path d="M785.27,616.4573 C776.96,634.5973 766.3291,657.7825 755.9291,680.4825" fill="none" id="R3-to-Output" style="stroke:#000000;stroke-width:1;"/><polygon fill="#000000" points="753.43,685.9373,760.8152,679.4212,755.5126,681.3917,753.5421,676.0891,753.43,685.9373" style="stroke:#000000;stroke-width:1;"/></g><!--link R4 to Output--><g class="link" data-entity-1="R4" data-entity-2="Output" data-source-line="61" data-uid="lnk38" id="link_R4_Output"><path d="M878.42,616.5573 C872.82,631.0373 863.23,651.1873 849.41,664.6973 C835.1,678.6973 822.0136,687.2795 804.1936,695.8795" fill="none" id="R4-to-Output" style="stroke:#000000;stroke-width:1;"/><polygon fill="#000000" points="798.79,698.4873,808.634,698.178,803.293,696.3141,805.1569,690.9732,798.79,698.4873" style="stroke:#000000;stroke-width:1;"/></g><!--link R7 to Output--><g class="link" data-entity-1="R7" data-entity-2="Output" data-source-line="62" data-uid="lnk39" id="link_R7_Output"><path d="M964.43,616.5773 C954.43,631.4773 938.35,652.1973 919.41,664.6973 C883.12,688.6573 841.9517,701.5464 804.7917,709.6664" fill="none" id="R7-to-Output" style="stroke:#000000;stroke-width:1;"/><polygon fill="#000000" points="798.93,710.9473,808.5764,712.9338,803.8147,709.8799,806.8686,705.1182,798.93,710.9473" style="stroke:#000000;stroke-width:1;"/></g><!--link Pipeline to GMN40--><g class="link" data-entity-1="Pipeline" data-entity-2="GMN40" data-source-line="65" data-uid="lnk42" id="link_Pipeline_GMN40"><path d="M498.4191,409.5477 C498.6104,408.9828 498.8062,408.4185 499.0066,407.8552 C499.8084,405.6021 500.6839,403.3645 501.64,401.1604 C505.4644,392.3442 510.5775,384.0648 517.41,377.4773 C523.21,371.8773 526.92,373.7973 534.91,372.7273 C571.26,367.8973 663.56,367.8973 699.91,372.7273 C735.29,377.4373 768.98,398.6473 794.5,419.4973" fill="none" id="Pipeline-GMN40" style="stroke:#000000;stroke-width:1;stroke-dasharray:7,7;"/></g><!--link GMN46 to Output--><g class="link" data-entity-1="GMN46" data-entity-2="Output" data-source-line="79" data-uid="lnk48" id="link_GMN46_Output"><path d="M129.6,626.7473 C150.38,640.5473 177.15,656.0373 203.41,664.6973 C289.83,693.2173 555.06,710.9273 676.07,717.7273" fill="none" id="GMN46-Output" style="stroke:#000000;stroke-width:1;stroke-dasharray:7,7;"/></g><!--SRC=[XLLHRzem47xthxXr3mKaeYP1iF4mQI0wLUfK1Dl3DFRW9aUmwjYPOrRQgVljEyUGagmTBuZFztsVB-Sx-utTO8vGI2uKiy9AXDcEvuN4CSoDJh0iXSg0mxNEu59G-5xO3Sn5WLBSCbRU2LLmmtD8SSstqdx1dVqeHQPoL1OI-a5pn5BQ8lnc01EUt6L6RrKwrL8Rk1RPndv3AVMzYsgJel6HYIGgUsBCO6AvoYY7iojLR6sLpqfrIZI_q0HIPzsL2YykuFFa37W9dlIsSfx8BJOSffkjegmoqeT3Ka3Y5ifkfJm4z-9F1b4nPdM6L2vJvT-sWd2blb_qm-7doG_l4UxLqmUkNX9490Y7_JYg5T49HKoAEEeFtjMA-5L540GhvKc34xOZidq_x5FbQj_HiQHPUd_q2c5fUOPbnQ_NMfMfA12ELugEYXe1PiPeupLBgizSgBkN514fPZjhU6BXQhxdHw_pO-9FTLuOQbTFZlVafzUFRO4bzIk4bM1nEAsw1VzbHfuPdMR6dXd_Xqdduqc3qtOZpnmrcSrZkTdQev70givk98BiaQRYJrXFnPvuF1RdSEaC_Rpq-n_g_cVr85IhOGj7BHotyA25HupHLBY_XuPXrFDD7BVme8L7JSpgrdFBYx25enQEMtZGmfJXmcVeoyGMKGF53JHeeD4nOjL5ProDGQ-VymMOyMJZBnl8D9PWDtGBPXkAS2cXh8OAX8Bg1XpJSXZ0VdewQw5Ic2qMDmjmRcMNmb40Xr7fKAFJl01FKpS9FXu7S1WDw1XCjmb2AHwnov3CN9hxP6-rjJftsTB1Wk-14hYXry4_19ZICcNcRd8fKSBj0wHYlKP3jxnJpBz2eccZjhFLXRFTbmR0jxNtlZV2MbJaIm5IkvRstqulIba8wsfMxrZKJzBH7kU79mkio5sesbJYkYfzrTNaqUlDqQoroRbAdX-vNez2I_ovfKyGN8x1JKg9YLPfIP7vOUFEm7zQbnZn4M5P89Mq65EPuzrpJdy1]--></g></svg>
