<svg xmlns="http://www.w3.org/2000/svg" xmlns:xlink="http://www.w3.org/1999/xlink" contentStyleType="text/css" data-diagram-type="SEQUENCE" height="2318px" preserveAspectRatio="none" style="width:1295px;height:2318px;background:#FFFFFF;" version="1.1" viewBox="0 0 1295 2318" width="1295px" zoomAndPan="magnify"><title>Pipeline Processing - Sequence Diagram</title><defs/><g><text fill="#000000" font-family="Verdana" font-size="22" font-weight="bold" lengthAdjust="spacing" textLength="497.8896" x="397.2498" y="37.1182">Pipeline Processing - Sequence Diagram</text><rect fill="#FFFFFF" height="968.9795" style="stroke:#000000;stroke-width:1;" width="1126.5781" x="151.811" y="752.9536"/><rect fill="#FFFFFF" height="245.9639" style="stroke:#000000;stroke-width:1;" width="713.1836" x="141.811" y="2002.3276"/><rect fill="#FFFFFF" height="154.5659" style="stroke:#000000;stroke-width:1;" width="675.0161" x="151.811" y="2086.7256"/><rect fill="#FFFFFF" height="100.9673" style="stroke:none;stroke-width:1;" width="675.0161" x="151.811" y="2140.3242"/><g><title>Client</title><rect fill="#000000" fill-opacity="0.00000" height="2163.5249" width="8" x="43.0874" y="101.7666"/><line style="stroke:#000000;stroke-width:1;" x1="47" x2="47" y1="101.7666" y2="2265.2915"/></g><g><title>Pipeline</title><rect fill="#000000" fill-opacity="0.00000" height="2163.5249" width="8" x="219.1455" y="101.7666"/><line style="stroke:#000000;stroke-width:1;" x1="222.811" x2="222.811" y1="101.7666" y2="2265.2915"/></g><g><title>Pipeline</title><rect fill="#000000" fill-opacity="0.00000" height="2163.5249" width="8" x="392.3091" y="101.7666"/><line style="stroke:#000000;stroke-width:1;" x1="396.1943" x2="396.1943" y1="101.7666" y2="2265.2915"/></g><g><title>File Reader</title><rect fill="#000000" fill-opacity="0.00000" height="2163.5249" width="8" x="548.998" y="101.7666"/><line style="stroke:#000000;stroke-width:1;" x1="552.7427" x2="552.7427" y1="101.7666" y2="2265.2915"/></g><g><title>Chunk</title><rect fill="#000000" fill-opacity="0.00000" height="2163.5249" width="8" x="672.6157" y="101.7666"/><line style="stroke:#000000;stroke-width:1;" x1="676.2964" x2="676.2964" y1="101.7666" y2="2265.2915"/></g><g><title>Stage 1</title><rect fill="#000000" fill-opacity="0.00000" height="2163.5249" width="8" x="781.4648" y="101.7666"/><line style="stroke:#000000;stroke-width:1;" x1="784.9351" x2="784.9351" y1="101.7666" y2="2265.2915"/></g><g><title>Stage 2</title><rect fill="#000000" fill-opacity="0.00000" height="2163.5249" width="8" x="927.7407" y="101.7666"/><line style="stroke:#000000;stroke-width:1;" x1="930.9946" x2="930.9946" y1="101.7666" y2="2265.2915"/></g><g><title>Progress</title><rect fill="#000000" fill-opacity="0.00000" height="2163.5249" width="8" x="1061.7563" y="101.7666"/><line style="stroke:#000000;stroke-width:1;" x1="1065.4868" x2="1065.4868" y1="101.7666" y2="2265.2915"/></g><g><title>File Writer</title><rect fill="#000000" fill-opacity="0.00000" height="2163.5249" width="8" x="1172.2666" y="101.7666"/><line style="stroke:#000000;stroke-width:1;" x1="1176.0259" x2="1176.0259" y1="101.7666" y2="2265.2915"/></g><g class="participant participant-head" data-participant="Client"><rect fill="#FFFFFF" height="31.0146" rx="2.5" ry="2.5" style="stroke:#000000;stroke-width:1;" width="54.1748" x="20" y="69.752"/><text fill="#000000" font-family="Verdana" font-size="14" lengthAdjust="spacing" textLength="40.1748" x="27" y="90.8271">Client</text></g><g class="participant participant-tail" data-participant="Client"><rect fill="#FFFFFF" height="31.0146" rx="2.5" ry="2.5" style="stroke:#000000;stroke-width:1;" width="54.1748" x="20" y="2264.2915"/><text fill="#000000" font-family="Verdana" font-size="14" lengthAdjust="spacing" textLength="40.1748" x="27" y="2285.3667">Client</text></g><g class="participant participant-head" data-participant="Orchestrator"><rect fill="#FFFFFF" height="48.0293" rx="2.5" ry="2.5" style="stroke:#000000;stroke-width:1;" width="102.6689" x="171.811" y="52.7373"/><text fill="#000000" font-family="Verdana" font-size="14" lengthAdjust="spacing" textLength="54.2295" x="196.0308" y="73.8125">Pipeline</text><text fill="#000000" font-family="Verdana" font-size="14" lengthAdjust="spacing" textLength="88.6689" x="178.811" y="90.8271">Orchestrator</text></g><g class="participant participant-tail" data-participant="Orchestrator"><rect fill="#FFFFFF" height="48.0293" rx="2.5" ry="2.5" style="stroke:#000000;stroke-width:1;" width="102.6689" x="171.811" y="2264.2915"/><text fill="#000000" font-family="Verdana" font-size="14" lengthAdjust="spacing" textLength="54.2295" x="196.0308" y="2285.3667">Pipeline</text><text fill="#000000" font-family="Verdana" font-size="14" lengthAdjust="spacing" textLength="88.6689" x="178.811" y="2302.3813">Orchestrator</text></g><g class="participant participant-head" data-participant="Factory"><rect fill="#FFFFFF" height="48.0293" rx="2.5" ry="2.5" style="stroke:#000000;stroke-width:1;" width="68.2295" x="362.1943" y="52.7373"/><text fill="#000000" font-family="Verdana" font-size="14" lengthAdjust="spacing" textLength="54.2295" x="369.1943" y="73.8125">Pipeline</text><text fill="#000000" font-family="Verdana" font-size="14" lengthAdjust="spacing" textLength="52.0215" x="370.2983" y="90.8271">Factory</text></g><g class="participant participant-tail" data-participant="Factory"><rect fill="#FFFFFF" height="48.0293" rx="2.5" ry="2.5" style="stroke:#000000;stroke-width:1;" width="68.2295" x="362.1943" y="2264.2915"/><text fill="#000000" font-family="Verdana" font-size="14" lengthAdjust="spacing" textLength="54.2295" x="369.1943" y="2285.3667">Pipeline</text><text fill="#000000" font-family="Verdana" font-size="14" lengthAdjust="spacing" textLength="52.0215" x="370.2983" y="2302.3813">Factory</text></g><g class="participant participant-head" data-participant="Reader"><rect fill="#FFFFFF" height="31.0146" rx="2.5" ry="2.5" style="stroke:#000000;stroke-width:1;" width="92.5107" x="506.7427" y="69.752"/><text fill="#000000" font-family="Verdana" font-size="14" lengthAdjust="spacing" textLength="78.5107" x="513.7427" y="90.8271">File Reader</text></g><g class="participant participant-tail" data-participant="Reader"><rect fill="#FFFFFF" height="31.0146" rx="2.5" ry="2.5" style="stroke:#000000;stroke-width:1;" width="92.5107" x="506.7427" y="2264.2915"/><text fill="#000000" font-family="Verdana" font-size="14" lengthAdjust="spacing" textLength="78.5107" x="513.7427" y="2285.3667">File Reader</text></g><g class="participant participant-head" data-participant="Chunk"><rect fill="#FFFFFF" height="31.0146" rx="2.5" ry="2.5" style="stroke:#000000;stroke-width:1;" width="58.6387" x="647.2964" y="69.752"/><text fill="#000000" font-family="Verdana" font-size="14" lengthAdjust="spacing" textLength="44.6387" x="654.2964" y="90.8271">Chunk</text></g><g class="participant participant-tail" data-participant="Chunk"><rect fill="#FFFFFF" height="31.0146" rx="2.5" ry="2.5" style="stroke:#000000;stroke-width:1;" width="58.6387" x="647.2964" y="2264.2915"/><text fill="#000000" font-family="Verdana" font-size="14" lengthAdjust="spacing" textLength="44.6387" x="654.2964" y="2285.3667">Chunk</text></g><g class="participant participant-head" data-participant="Stage1"><rect fill="#FFFFFF" height="48.0293" rx="2.5" ry="2.5" style="stroke:#000000;stroke-width:1;" width="99.0596" x="735.9351" y="52.7373"/><text fill="#000000" font-family="Verdana" font-size="14" lengthAdjust="spacing" textLength="54.3799" x="758.2749" y="73.8125">Stage 1</text><text fill="#000000" font-family="Verdana" font-size="14" lengthAdjust="spacing" textLength="85.0596" x="742.9351" y="90.8271">(e.g., Hash)</text></g><g class="participant participant-tail" data-participant="Stage1"><rect fill="#FFFFFF" height="48.0293" rx="2.5" ry="2.5" style="stroke:#000000;stroke-width:1;" width="99.0596" x="735.9351" y="2264.2915"/><text fill="#000000" font-family="Verdana" font-size="14" lengthAdjust="spacing" textLength="54.3799" x="758.2749" y="2285.3667">Stage 1</text><text fill="#000000" font-family="Verdana" font-size="14" lengthAdjust="spacing" textLength="85.0596" x="742.9351" y="2302.3813">(e.g., Hash)</text></g><g class="participant participant-head" data-participant="Stage2"><rect fill="#FFFFFF" height="48.0293" rx="2.5" ry="2.5" style="stroke:#000000;stroke-width:1;" width="133.4922" x="864.9946" y="52.7373"/><text fill="#000000" font-family="Verdana" font-size="14" lengthAdjust="spacing" textLength="54.3799" x="904.5508" y="73.8125">Stage 2</text><text fill="#000000" font-family="Verdana" font-size="14" lengthAdjust="spacing" textLength="119.4922" x="871.9946" y="90.8271">(e.g., Compress)</text></g><g class="participant participant-tail" data-participant="Stage2"><rect fill="#FFFFFF" height="48.0293" rx="2.5" ry="2.5" style="stroke:#000000;stroke-width:1;" width="133.4922" x="864.9946" y="2264.2915"/><text fill="#000000" font-family="Verdana" font-size="14" lengthAdjust="spacing" textLength="54.3799" x="904.5508" y="2285.3667">Stage 2</text><text fill="#000000" font-family="Verdana" font-size="14" lengthAdjust="spacing" textLength="119.4922" x="871.9946" y="2302.3813">(e.g., Compress)</text></g><g class="participant participant-head" data-participant="Progress"><rect fill="#FFFFFF" height="48.0293" rx="2.5" ry="2.5" style="stroke:#000000;stroke-width:1;" width="74.5391" x="1028.4868" y="52.7373"/><text fill="#000000" font-family="Verdana" font-size="14" lengthAdjust="spacing" textLength="60.5391" x="1035.4868" y="73.8125">Progress</text><text fill="#000000" font-family="Verdana" font-size="14" lengthAdjust="spacing" textLength="52.9033" x="1039.3047" y="90.8271">Tracker</text></g><g class="participant participant-tail" data-participant="Progress"><rect fill="#FFFFFF" height="48.0293" rx="2.5" ry="2.5" style="stroke:#000000;stroke-width:1;" width="74.5391" x="1028.4868" y="2264.2915"/><text fill="#000000" font-family="Verdana" font-size="14" lengthAdjust="spacing" textLength="60.5391" x="1035.4868" y="2285.3667">Progress</text><text fill="#000000" font-family="Verdana" font-size="14" lengthAdjust="spacing" textLength="52.9033" x="1039.3047" y="2302.3813">Tracker</text></g><g class="participant participant-head" data-participant="Writer"><rect fill="#FFFFFF" height="31.0146" rx="2.5" ry="2.5" style="stroke:#000000;stroke-width:1;" width="86.4814" x="1133.0259" y="69.752"/><text fill="#000000" font-family="Verdana" font-size="14" lengthAdjust="spacing" textLength="72.4814" x="1140.0259" y="90.8271">File Writer</text></g><g class="participant participant-tail" data-participant="Writer"><rect fill="#FFFFFF" height="31.0146" rx="2.5" ry="2.5" style="stroke:#000000;stroke-width:1;" width="86.4814" x="1133.0259" y="2264.2915"/><text fill="#000000" font-family="Verdana" font-size="14" lengthAdjust="spacing" textLength="72.4814" x="1140.0259" y="2285.3667">File Writer</text></g><rect fill="#FFFFFF" height="3" style="stroke:#FFFFFF;stroke-width:1;" width="1283.3892" x="5" y="132.6663"/><line style="stroke:#000000;stroke-width:0.5;" x1="5" x2="1288.3892" y1="132.6663" y2="132.6663"/><line style="stroke:#000000;stroke-width:0.5;" x1="5" x2="1288.3892" y1="135.6663" y2="135.6663"/><rect fill="#FFFFFF" height="23.7993" style="stroke:#000000;stroke-width:1;" width="160.4341" x="566.4775" y="121.7666"/><text fill="#000000" font-family="Verdana" font-size="13" font-weight="bold" lengthAdjust="spacing" textLength="141.9907" x="572.4775" y="138.8364">Initialization Phase</text><g class="message" data-participant-1="Client" data-participant-2="Orchestrator"><polygon fill="#000000" points="211.1455,173.3652,221.1455,177.3652,211.1455,181.3652,215.1455,177.3652" style="stroke:#000000;stroke-width:1;"/><line style="stroke:#000000;stroke-width:1;" x1="47.0874" x2="217.1455" y1="177.3652" y2="177.3652"/><text fill="#000000" font-family="Verdana" font-size="13" lengthAdjust="spacing" textLength="152.0581" x="54.0874" y="172.6357">Create pipeline request</text></g><g class="message" data-participant-1="Orchestrator" data-participant-2="Factory"><polygon fill="#000000" points="384.3091,203.1646,394.3091,207.1646,384.3091,211.1646,388.3091,207.1646" style="stroke:#000000;stroke-width:1;"/><line style="stroke:#000000;stroke-width:1;" x1="223.1455" x2="390.3091" y1="207.1646" y2="207.1646"/><text fill="#000000" font-family="Verdana" font-size="13" lengthAdjust="spacing" textLength="149.1636" x="230.1455" y="202.4351">Create pipeline(config)</text></g><g class="message" data-participant-1="Factory" data-participant-2="Factory"><line style="stroke:#000000;stroke-width:1;" x1="396.3091" x2="438.3091" y1="236.9639" y2="236.9639"/><line style="stroke:#000000;stroke-width:1;" x1="438.3091" x2="438.3091" y1="236.9639" y2="249.9639"/><line style="stroke:#000000;stroke-width:1;" x1="397.3091" x2="438.3091" y1="249.9639" y2="249.9639"/><polygon fill="#000000" points="407.3091,245.9639,397.3091,249.9639,407.3091,253.9639,403.3091,249.9639" style="stroke:#000000;stroke-width:1;"/><text fill="#000000" font-family="Verdana" font-size="13" lengthAdjust="spacing" textLength="142.689" x="403.3091" y="232.2344">Validate configuration</text></g><g class="message" data-participant-1="Factory" data-participant-2="Stage1"><polygon fill="#000000" points="773.4648,275.7632,783.4648,279.7632,773.4648,283.7632,777.4648,279.7632" style="stroke:#000000;stroke-width:1;"/><line style="stroke:#000000;stroke-width:1;" x1="396.3091" x2="779.4648" y1="279.7632" y2="279.7632"/><text fill="#000000" font-family="Verdana" font-size="13" lengthAdjust="spacing" textLength="83.1606" x="403.3091" y="275.0337">Create stage</text></g><g class="message" data-participant-1="Factory" data-participant-2="Stage2"><polygon fill="#000000" points="919.7407,305.5625,929.7407,309.5625,919.7407,313.5625,923.7407,309.5625" style="stroke:#000000;stroke-width:1;"/><line style="stroke:#000000;stroke-width:1;" x1="396.3091" x2="925.7407" y1="309.5625" y2="309.5625"/><text fill="#000000" font-family="Verdana" font-size="13" lengthAdjust="spacing" textLength="83.1606" x="403.3091" y="304.833">Create stage</text></g><g class="message" data-participant-1="Factory" data-participant-2="Progress"><polygon fill="#000000" points="1053.7563,335.3618,1063.7563,339.3618,1053.7563,343.3618,1057.7563,339.3618" style="stroke:#000000;stroke-width:1;"/><line style="stroke:#000000;stroke-width:1;" x1="396.3091" x2="1059.7563" y1="339.3618" y2="339.3618"/><text fill="#000000" font-family="Verdana" font-size="13" lengthAdjust="spacing" textLength="189.3506" x="403.3091" y="334.6323">Create tracker(total_chunks)</text></g><g class="message" data-participant-1="Factory" data-participant-2="Orchestrator"><polygon fill="#000000" points="234.1455,365.1611,224.1455,369.1611,234.1455,373.1611,230.1455,369.1611" style="stroke:#000000;stroke-width:1;"/><line style="stroke:#000000;stroke-width:1;stroke-dasharray:2,2;" x1="228.1455" x2="395.3091" y1="369.1611" y2="369.1611"/><text fill="#000000" font-family="Verdana" font-size="13" lengthAdjust="spacing" textLength="109.167" x="240.1455" y="364.4316">Pipeline instance</text></g><rect fill="#FFFFFF" height="3" style="stroke:#FFFFFF;stroke-width:1;" width="1283.3892" x="5" y="398.0608"/><line style="stroke:#000000;stroke-width:0.5;" x1="5" x2="1288.3892" y1="398.0608" y2="398.0608"/><line style="stroke:#000000;stroke-width:0.5;" x1="5" x2="1288.3892" y1="401.0608" y2="401.0608"/><rect fill="#FFFFFF" height="23.7993" style="stroke:#000000;stroke-width:1;" width="108.8467" x="592.2712" y="387.1611"/><text fill="#000000" font-family="Verdana" font-size="13" font-weight="bold" lengthAdjust="spacing" textLength="90.4033" x="598.2712" y="404.231">Setup Phase</text><g class="message" data-participant-1="Orchestrator" data-participant-2="Reader"><polygon fill="#000000" points="540.998,438.7598,550.998,442.7598,540.998,446.7598,544.998,442.7598" style="stroke:#000000;stroke-width:1;"/><line style="stroke:#000000;stroke-width:1;" x1="223.1455" x2="546.998" y1="442.7598" y2="442.7598"/><text fill="#000000" font-family="Verdana" font-size="13" lengthAdjust="spacing" textLength="107.0659" x="230.1455" y="438.0303">Open(input_file)</text></g><g class="message" data-participant-1="Reader" data-participant-2="Reader"><line style="stroke:#000000;stroke-width:1;" x1="552.998" x2="594.998" y1="472.5591" y2="472.5591"/><line style="stroke:#000000;stroke-width:1;" x1="594.998" x2="594.998" y1="472.5591" y2="485.5591"/><line style="stroke:#000000;stroke-width:1;" x1="553.998" x2="594.998" y1="485.5591" y2="485.5591"/><polygon fill="#000000" points="563.998,481.5591,553.998,485.5591,563.998,489.5591,559.998,485.5591" style="stroke:#000000;stroke-width:1;"/><text fill="#000000" font-family="Verdana" font-size="13" lengthAdjust="spacing" textLength="109.6177" x="559.998" y="467.8296">Memory map file</text></g><g class="message" data-participant-1="Reader" data-participant-2="Orchestrator"><polygon fill="#000000" points="234.1455,511.3584,224.1455,515.3584,234.1455,519.3584,230.1455,515.3584" style="stroke:#000000;stroke-width:1;"/><line style="stroke:#000000;stroke-width:1;stroke-dasharray:2,2;" x1="228.1455" x2="551.998" y1="515.3584" y2="515.3584"/><text fill="#000000" font-family="Verdana" font-size="13" lengthAdjust="spacing" textLength="51.9492" x="240.1455" y="510.6289">Success</text></g><g class="message" data-participant-1="Orchestrator" data-participant-2="Writer"><polygon fill="#000000" points="1164.2666,541.1577,1174.2666,545.1577,1164.2666,549.1577,1168.2666,545.1577" style="stroke:#000000;stroke-width:1;"/><line style="stroke:#000000;stroke-width:1;" x1="223.1455" x2="1170.2666" y1="545.1577" y2="545.1577"/><text fill="#000000" font-family="Verdana" font-size="13" lengthAdjust="spacing" textLength="116.5112" x="230.1455" y="540.4282">Open(output_file)</text></g><g class="message" data-participant-1="Writer" data-participant-2="Orchestrator"><polygon fill="#000000" points="234.1455,570.957,224.1455,574.957,234.1455,578.957,230.1455,574.957" style="stroke:#000000;stroke-width:1;"/><line style="stroke:#000000;stroke-width:1;stroke-dasharray:2,2;" x1="228.1455" x2="1175.2666" y1="574.957" y2="574.957"/><text fill="#000000" font-family="Verdana" font-size="13" lengthAdjust="spacing" textLength="51.9492" x="240.1455" y="570.2275">Success</text></g><g class="message" data-participant-1="Orchestrator" data-participant-2="Stage1"><polygon fill="#000000" points="773.4648,600.7563,783.4648,604.7563,773.4648,608.7563,777.4648,604.7563" style="stroke:#000000;stroke-width:1;"/><line style="stroke:#000000;stroke-width:1;" x1="223.1455" x2="779.4648" y1="604.7563" y2="604.7563"/><text fill="#000000" font-family="Verdana" font-size="13" lengthAdjust="spacing" textLength="67.2788" x="230.1455" y="600.0269">Initialize()</text></g><g class="message" data-participant-1="Stage1" data-participant-2="Orchestrator"><polygon fill="#000000" points="234.1455,630.5557,224.1455,634.5557,234.1455,638.5557,230.1455,634.5557" style="stroke:#000000;stroke-width:1;"/><line style="stroke:#000000;stroke-width:1;stroke-dasharray:2,2;" x1="228.1455" x2="784.4648" y1="634.5557" y2="634.5557"/><text fill="#000000" font-family="Verdana" font-size="13" lengthAdjust="spacing" textLength="40.3838" x="240.1455" y="629.8262">Ready</text></g><g class="message" data-participant-1="Orchestrator" data-participant-2="Stage2"><polygon fill="#000000" points="919.7407,660.355,929.7407,664.355,919.7407,668.355,923.7407,664.355" style="stroke:#000000;stroke-width:1;"/><line style="stroke:#000000;stroke-width:1;" x1="223.1455" x2="925.7407" y1="664.355" y2="664.355"/><text fill="#000000" font-family="Verdana" font-size="13" lengthAdjust="spacing" textLength="67.2788" x="230.1455" y="659.6255">Initialize()</text></g><g class="message" data-participant-1="Stage2" data-participant-2="Orchestrator"><polygon fill="#000000" points="234.1455,690.1543,224.1455,694.1543,234.1455,698.1543,230.1455,694.1543" style="stroke:#000000;stroke-width:1;"/><line style="stroke:#000000;stroke-width:1;stroke-dasharray:2,2;" x1="228.1455" x2="930.7407" y1="694.1543" y2="694.1543"/><text fill="#000000" font-family="Verdana" font-size="13" lengthAdjust="spacing" textLength="40.3838" x="240.1455" y="689.4248">Ready</text></g><rect fill="#FFFFFF" height="3" style="stroke:#FFFFFF;stroke-width:1;" width="1283.3892" x="5" y="723.054"/><line style="stroke:#000000;stroke-width:0.5;" x1="5" x2="1288.3892" y1="723.054" y2="723.054"/><line style="stroke:#000000;stroke-width:0.5;" x1="5" x2="1288.3892" y1="726.054" y2="726.054"/><rect fill="#FFFFFF" height="23.7993" style="stroke:#000000;stroke-width:1;" width="146.1201" x="573.6345" y="712.1543"/><text fill="#000000" font-family="Verdana" font-size="13" font-weight="bold" lengthAdjust="spacing" textLength="127.6768" x="579.6345" y="729.2241">Processing Phase</text><path d="M151.811,752.9536 L228.1938,752.9536 L228.1938,760.7529 L218.1938,770.7529 L151.811,770.7529 L151.811,752.9536" fill="#FFFFFF" style="stroke:#000000;stroke-width:1;"/><rect fill="none" height="968.9795" style="stroke:#000000;stroke-width:1;" width="1126.5781" x="151.811" y="752.9536"/><text fill="#000000" font-family="Verdana" font-size="13" font-weight="bold" lengthAdjust="spacing" textLength="31.3828" x="166.811" y="767.0234">loop</text><text fill="#000000" font-family="Verdana" font-size="11" font-weight="bold" lengthAdjust="spacing" textLength="105.9717" x="243.1938" y="766.0127">[For each chunk]</text><g class="message" data-participant-1="Orchestrator" data-participant-2="Reader"><polygon fill="#000000" points="540.998,788.5522,550.998,792.5522,540.998,796.5522,544.998,792.5522" style="stroke:#000000;stroke-width:1;"/><line style="stroke:#000000;stroke-width:1;" x1="223.1455" x2="546.998" y1="792.5522" y2="792.5522"/><text fill="#000000" font-family="Verdana" font-size="13" lengthAdjust="spacing" textLength="178.915" x="230.1455" y="787.8228">Read_Chunk(number, size)</text></g><g class="message" data-participant-1="Reader" data-participant-2="Chunk"><polygon fill="#000000" points="664.6157,818.3516,674.6157,822.3516,664.6157,826.3516,668.6157,822.3516" style="stroke:#000000;stroke-width:1;"/><line style="stroke:#000000;stroke-width:1;" x1="552.998" x2="670.6157" y1="822.3516" y2="822.3516"/><text fill="#000000" font-family="Verdana" font-size="13" lengthAdjust="spacing" textLength="83.6875" x="559.998" y="817.6221">Create(data)</text></g><g class="message" data-participant-1="Reader" data-participant-2="Orchestrator"><polygon fill="#000000" points="234.1455,848.1509,224.1455,852.1509,234.1455,856.1509,230.1455,852.1509" style="stroke:#000000;stroke-width:1;"/><line style="stroke:#000000;stroke-width:1;stroke-dasharray:2,2;" x1="228.1455" x2="551.998" y1="852.1509" y2="852.1509"/><text fill="#000000" font-family="Verdana" font-size="13" lengthAdjust="spacing" textLength="41.4502" x="240.1455" y="847.4214">Chunk</text></g><g class="message" data-participant-1="Orchestrator" data-participant-2="Chunk"><polygon fill="#000000" points="664.6157,877.9502,674.6157,881.9502,664.6157,885.9502,668.6157,881.9502" style="stroke:#000000;stroke-width:1;"/><line style="stroke:#000000;stroke-width:1;" x1="223.1455" x2="670.6157" y1="881.9502" y2="881.9502"/><text fill="#000000" font-family="Verdana" font-size="13" lengthAdjust="spacing" textLength="129.0923" x="230.1455" y="877.2207">Set_State(Reading)</text></g><g class="message" data-participant-1="Orchestrator" data-participant-2="Progress"><polygon fill="#000000" points="1053.7563,907.7495,1063.7563,911.7495,1053.7563,915.7495,1057.7563,911.7495" style="stroke:#000000;stroke-width:1;"/><line style="stroke:#000000;stroke-width:1;" x1="223.1455" x2="1059.7563" y1="911.7495" y2="911.7495"/><text fill="#000000" font-family="Verdana" font-size="13" lengthAdjust="spacing" textLength="154.2227" x="230.1455" y="907.02">Update_Read_Count(1)</text></g><g class="message" data-participant-1="Orchestrator" data-participant-2="Chunk"><polygon fill="#000000" points="664.6157,937.5488,674.6157,941.5488,664.6157,945.5488,668.6157,941.5488" style="stroke:#000000;stroke-width:1;"/><line style="stroke:#000000;stroke-width:1;" x1="223.1455" x2="670.6157" y1="941.5488" y2="941.5488"/><text fill="#000000" font-family="Verdana" font-size="13" lengthAdjust="spacing" textLength="109.1987" x="230.1455" y="936.8193">Set_State(Read)</text></g><rect fill="#FFFFFF" height="3" style="stroke:#FFFFFF;stroke-width:1;" width="1283.3892" x="5" y="970.4485"/><line style="stroke:#000000;stroke-width:0.5;" x1="5" x2="1288.3892" y1="970.4485" y2="970.4485"/><line style="stroke:#000000;stroke-width:0.5;" x1="5" x2="1288.3892" y1="973.4485" y2="973.4485"/><rect fill="#FFFFFF" height="23.7993" style="stroke:#000000;stroke-width:1;" width="157.5522" x="567.9185" y="959.5488"/><text fill="#000000" font-family="Verdana" font-size="13" font-weight="bold" lengthAdjust="spacing" textLength="139.1089" x="573.9185" y="976.6187">Stage 1 Processing</text><g class="message" data-participant-1="Orchestrator" data-participant-2="Chunk"><polygon fill="#000000" points="664.6157,1011.1475,674.6157,1015.1475,664.6157,1019.1475,668.6157,1015.1475" style="stroke:#000000;stroke-width:1;"/><line style="stroke:#000000;stroke-width:1;" x1="223.1455" x2="670.6157" y1="1015.1475" y2="1015.1475"/><text fill="#000000" font-family="Verdana" font-size="13" lengthAdjust="spacing" textLength="145.7422" x="230.1455" y="1010.418">Set_State(Processing)</text></g><g class="message" data-participant-1="Orchestrator" data-participant-2="Stage1"><polygon fill="#000000" points="773.4648,1040.9468,783.4648,1044.9468,773.4648,1048.9468,777.4648,1044.9468" style="stroke:#000000;stroke-width:1;"/><line style="stroke:#000000;stroke-width:1;" x1="223.1455" x2="779.4648" y1="1044.9468" y2="1044.9468"/><text fill="#000000" font-family="Verdana" font-size="13" lengthAdjust="spacing" textLength="100.293" x="230.1455" y="1040.2173">Process(chunk)</text></g><g class="message" data-participant-1="Stage1" data-participant-2="Stage1"><line style="stroke:#000000;stroke-width:1;" x1="785.4648" x2="827.4648" y1="1074.7461" y2="1074.7461"/><line style="stroke:#000000;stroke-width:1;" x1="827.4648" x2="827.4648" y1="1074.7461" y2="1087.7461"/><line style="stroke:#000000;stroke-width:1;" x1="786.4648" x2="827.4648" y1="1087.7461" y2="1087.7461"/><polygon fill="#000000" points="796.4648,1083.7461,786.4648,1087.7461,796.4648,1091.7461,792.4648,1087.7461" style="stroke:#000000;stroke-width:1;"/><text fill="#000000" font-family="Verdana" font-size="13" lengthAdjust="spacing" textLength="103.3906" x="792.4648" y="1070.0166">Apply algorithm</text></g><g class="message" data-participant-1="Stage1" data-participant-2="Chunk"><polygon fill="#000000" points="687.6157,1113.5454,677.6157,1117.5454,687.6157,1121.5454,683.6157,1117.5454" style="stroke:#000000;stroke-width:1;"/><line style="stroke:#000000;stroke-width:1;" x1="681.6157" x2="784.4648" y1="1117.5454" y2="1117.5454"/><text fill="#000000" font-family="Verdana" font-size="13" lengthAdjust="spacing" textLength="79.7964" x="693.6157" y="1112.8159">Update data</text></g><g class="message" data-participant-1="Stage1" data-participant-2="Orchestrator"><polygon fill="#000000" points="234.1455,1143.3447,224.1455,1147.3447,234.1455,1151.3447,230.1455,1147.3447" style="stroke:#000000;stroke-width:1;"/><line style="stroke:#000000;stroke-width:1;stroke-dasharray:2,2;" x1="228.1455" x2="784.4648" y1="1147.3447" y2="1147.3447"/><text fill="#000000" font-family="Verdana" font-size="13" lengthAdjust="spacing" textLength="40.4727" x="240.1455" y="1142.6152">Result</text></g><g class="message" data-participant-1="Orchestrator" data-participant-2="Chunk"><polygon fill="#000000" points="664.6157,1173.144,674.6157,1177.144,664.6157,1181.144,668.6157,1177.144" style="stroke:#000000;stroke-width:1;"/><line style="stroke:#000000;stroke-width:1;" x1="223.1455" x2="670.6157" y1="1177.144" y2="1177.144"/><text fill="#000000" font-family="Verdana" font-size="13" lengthAdjust="spacing" textLength="141.6924" x="230.1455" y="1172.4146">Set_State(Processed)</text></g><rect fill="#FFFFFF" height="3" style="stroke:#FFFFFF;stroke-width:1;" width="1283.3892" x="5" y="1206.0437"/><line style="stroke:#000000;stroke-width:0.5;" x1="5" x2="1288.3892" y1="1206.0437" y2="1206.0437"/><line style="stroke:#000000;stroke-width:0.5;" x1="5" x2="1288.3892" y1="1209.0437" y2="1209.0437"/><rect fill="#FFFFFF" height="23.7993" style="stroke:#000000;stroke-width:1;" width="157.5522" x="567.9185" y="1195.144"/><text fill="#000000" font-family="Verdana" font-size="13" font-weight="bold" lengthAdjust="spacing" textLength="139.1089" x="573.9185" y="1212.2139">Stage 2 Processing</text><g class="message" data-participant-1="Orchestrator" data-participant-2="Chunk"><polygon fill="#000000" points="664.6157,1246.7427,674.6157,1250.7427,664.6157,1254.7427,668.6157,1250.7427" style="stroke:#000000;stroke-width:1;"/><line style="stroke:#000000;stroke-width:1;" x1="223.1455" x2="670.6157" y1="1250.7427" y2="1250.7427"/><text fill="#000000" font-family="Verdana" font-size="13" lengthAdjust="spacing" textLength="145.7422" x="230.1455" y="1246.0132">Set_State(Processing)</text></g><g class="message" data-participant-1="Orchestrator" data-participant-2="Stage2"><polygon fill="#000000" points="919.7407,1276.542,929.7407,1280.542,919.7407,1284.542,923.7407,1280.542" style="stroke:#000000;stroke-width:1;"/><line style="stroke:#000000;stroke-width:1;" x1="223.1455" x2="925.7407" y1="1280.542" y2="1280.542"/><text fill="#000000" font-family="Verdana" font-size="13" lengthAdjust="spacing" textLength="100.293" x="230.1455" y="1275.8125">Process(chunk)</text></g><g class="message" data-participant-1="Stage2" data-participant-2="Stage2"><line style="stroke:#000000;stroke-width:1;" x1="931.7407" x2="973.7407" y1="1310.3413" y2="1310.3413"/><line style="stroke:#000000;stroke-width:1;" x1="973.7407" x2="973.7407" y1="1310.3413" y2="1323.3413"/><line style="stroke:#000000;stroke-width:1;" x1="932.7407" x2="973.7407" y1="1323.3413" y2="1323.3413"/><polygon fill="#000000" points="942.7407,1319.3413,932.7407,1323.3413,942.7407,1327.3413,938.7407,1323.3413" style="stroke:#000000;stroke-width:1;"/><text fill="#000000" font-family="Verdana" font-size="13" lengthAdjust="spacing" textLength="103.3906" x="938.7407" y="1305.6118">Apply algorithm</text></g><g class="message" data-participant-1="Stage2" data-participant-2="Chunk"><polygon fill="#000000" points="687.6157,1349.1406,677.6157,1353.1406,687.6157,1357.1406,683.6157,1353.1406" style="stroke:#000000;stroke-width:1;"/><line style="stroke:#000000;stroke-width:1;" x1="681.6157" x2="930.7407" y1="1353.1406" y2="1353.1406"/><text fill="#000000" font-family="Verdana" font-size="13" lengthAdjust="spacing" textLength="79.7964" x="693.6157" y="1348.4111">Update data</text></g><g class="message" data-participant-1="Stage2" data-participant-2="Orchestrator"><polygon fill="#000000" points="234.1455,1378.9399,224.1455,1382.9399,234.1455,1386.9399,230.1455,1382.9399" style="stroke:#000000;stroke-width:1;"/><line style="stroke:#000000;stroke-width:1;stroke-dasharray:2,2;" x1="228.1455" x2="930.7407" y1="1382.9399" y2="1382.9399"/><text fill="#000000" font-family="Verdana" font-size="13" lengthAdjust="spacing" textLength="40.4727" x="240.1455" y="1378.2104">Result</text></g><g class="message" data-participant-1="Orchestrator" data-participant-2="Chunk"><polygon fill="#000000" points="664.6157,1408.7393,674.6157,1412.7393,664.6157,1416.7393,668.6157,1412.7393" style="stroke:#000000;stroke-width:1;"/><line style="stroke:#000000;stroke-width:1;" x1="223.1455" x2="670.6157" y1="1412.7393" y2="1412.7393"/><text fill="#000000" font-family="Verdana" font-size="13" lengthAdjust="spacing" textLength="141.6924" x="230.1455" y="1408.0098">Set_State(Processed)</text></g><g class="message" data-participant-1="Orchestrator" data-participant-2="Progress"><polygon fill="#000000" points="1053.7563,1438.5386,1063.7563,1442.5386,1053.7563,1446.5386,1057.7563,1442.5386" style="stroke:#000000;stroke-width:1;"/><line style="stroke:#000000;stroke-width:1;" x1="223.1455" x2="1059.7563" y1="1442.5386" y2="1442.5386"/><text fill="#000000" font-family="Verdana" font-size="13" lengthAdjust="spacing" textLength="186.7163" x="230.1455" y="1437.8091">Update_Processed_Count(1)</text></g><rect fill="#FFFFFF" height="3" style="stroke:#FFFFFF;stroke-width:1;" width="1283.3892" x="5" y="1471.4382"/><line style="stroke:#000000;stroke-width:0.5;" x1="5" x2="1288.3892" y1="1471.4382" y2="1471.4382"/><line style="stroke:#000000;stroke-width:0.5;" x1="5" x2="1288.3892" y1="1474.4382" y2="1474.4382"/><rect fill="#FFFFFF" height="23.7993" style="stroke:#000000;stroke-width:1;" width="120.9961" x="586.1965" y="1460.5386"/><text fill="#000000" font-family="Verdana" font-size="13" font-weight="bold" lengthAdjust="spacing" textLength="102.5527" x="592.1965" y="1477.6084">Writing Phase</text><g class="message" data-participant-1="Orchestrator" data-participant-2="Chunk"><polygon fill="#000000" points="664.6157,1512.1372,674.6157,1516.1372,664.6157,1520.1372,668.6157,1516.1372" style="stroke:#000000;stroke-width:1;"/><line style="stroke:#000000;stroke-width:1;" x1="223.1455" x2="670.6157" y1="1516.1372" y2="1516.1372"/><text fill="#000000" font-family="Verdana" font-size="13" lengthAdjust="spacing" textLength="123.4937" x="230.1455" y="1511.4077">Set_State(Writing)</text></g><g class="message" data-participant-1="Orchestrator" data-participant-2="Writer"><polygon fill="#000000" points="1164.2666,1541.9365,1174.2666,1545.9365,1164.2666,1549.9365,1168.2666,1545.9365" style="stroke:#000000;stroke-width:1;"/><line style="stroke:#000000;stroke-width:1;" x1="223.1455" x2="1170.2666" y1="1545.9365" y2="1545.9365"/><text fill="#000000" font-family="Verdana" font-size="13" lengthAdjust="spacing" textLength="165.3247" x="230.1455" y="1541.207">Write(chunk.data, offset)</text></g><g class="message" data-participant-1="Writer" data-participant-2="Writer"><line style="stroke:#000000;stroke-width:1;" x1="1176.2666" x2="1218.2666" y1="1575.7358" y2="1575.7358"/><line style="stroke:#000000;stroke-width:1;" x1="1218.2666" x2="1218.2666" y1="1575.7358" y2="1588.7358"/><line style="stroke:#000000;stroke-width:1;" x1="1177.2666" x2="1218.2666" y1="1588.7358" y2="1588.7358"/><polygon fill="#000000" points="1187.2666,1584.7358,1177.2666,1588.7358,1187.2666,1592.7358,1183.2666,1588.7358" style="stroke:#000000;stroke-width:1;"/><text fill="#000000" font-family="Verdana" font-size="13" lengthAdjust="spacing" textLength="83.1226" x="1183.2666" y="1571.0063">Write to disk</text></g><g class="message" data-participant-1="Writer" data-participant-2="Orchestrator"><polygon fill="#000000" points="234.1455,1614.5352,224.1455,1618.5352,234.1455,1622.5352,230.1455,1618.5352" style="stroke:#000000;stroke-width:1;"/><line style="stroke:#000000;stroke-width:1;stroke-dasharray:2,2;" x1="228.1455" x2="1175.2666" y1="1618.5352" y2="1618.5352"/><text fill="#000000" font-family="Verdana" font-size="13" lengthAdjust="spacing" textLength="51.9492" x="240.1455" y="1613.8057">Success</text></g><g class="message" data-participant-1="Orchestrator" data-participant-2="Chunk"><polygon fill="#000000" points="664.6157,1644.3345,674.6157,1648.3345,664.6157,1652.3345,668.6157,1648.3345" style="stroke:#000000;stroke-width:1;"/><line style="stroke:#000000;stroke-width:1;" x1="223.1455" x2="670.6157" y1="1648.3345" y2="1648.3345"/><text fill="#000000" font-family="Verdana" font-size="13" lengthAdjust="spacing" textLength="124.6934" x="230.1455" y="1643.605">Set_State(Written)</text></g><g class="message" data-participant-1="Orchestrator" data-participant-2="Progress"><polygon fill="#000000" points="1053.7563,1674.1338,1063.7563,1678.1338,1053.7563,1682.1338,1057.7563,1678.1338" style="stroke:#000000;stroke-width:1;"/><line style="stroke:#000000;stroke-width:1;" x1="223.1455" x2="1059.7563" y1="1678.1338" y2="1678.1338"/><text fill="#000000" font-family="Verdana" font-size="13" lengthAdjust="spacing" textLength="169.7173" x="230.1455" y="1673.4043">Update_Written_Count(1)</text></g><g class="message" data-participant-1="Orchestrator" data-participant-2="Chunk"><polygon fill="#000000" points="664.6157,1706.9331,674.6157,1710.9331,664.6157,1714.9331,668.6157,1710.9331" style="stroke:#000000;stroke-width:1;"/><line style="stroke:#000000;stroke-width:1;" x1="223.1455" x2="670.6157" y1="1710.9331" y2="1710.9331"/><text fill="#000000" font-family="Verdana" font-size="13" lengthAdjust="spacing" textLength="48.2295" x="230.1455" y="1706.2036">Reset()</text></g><path d="M681,1691.1338 L681,1716.1338 L917,1716.1338 L917,1701.1338 L907,1691.1338 L681,1691.1338" fill="#FFFFFF" style="stroke:#000000;stroke-width:1;"/><path d="M907,1691.1338 L907,1701.1338 L917,1701.1338 L907,1691.1338" fill="#FFFFFF" style="stroke:#000000;stroke-width:1;"/><text fill="#000000" font-family="Verdana" font-size="13" lengthAdjust="spacing" textLength="215.0649" x="687" y="1709.2036">Chunk recycled for next iteration</text><rect fill="#FFFFFF" height="3" style="stroke:#FFFFFF;stroke-width:1;" width="1283.3892" x="5" y="1749.8328"/><line style="stroke:#000000;stroke-width:0.5;" x1="5" x2="1288.3892" y1="1749.8328" y2="1749.8328"/><line style="stroke:#000000;stroke-width:0.5;" x1="5" x2="1288.3892" y1="1752.8328" y2="1752.8328"/><rect fill="#FFFFFF" height="23.7993" style="stroke:#000000;stroke-width:1;" width="125.4839" x="583.9526" y="1738.9331"/><text fill="#000000" font-family="Verdana" font-size="13" font-weight="bold" lengthAdjust="spacing" textLength="107.0405" x="589.9526" y="1756.0029">Cleanup Phase</text><g class="message" data-participant-1="Orchestrator" data-participant-2="Progress"><polygon fill="#000000" points="1053.7563,1790.5317,1063.7563,1794.5317,1053.7563,1798.5317,1057.7563,1794.5317" style="stroke:#000000;stroke-width:1;"/><line style="stroke:#000000;stroke-width:1;" x1="223.1455" x2="1059.7563" y1="1794.5317" y2="1794.5317"/><text fill="#000000" font-family="Verdana" font-size="13" lengthAdjust="spacing" textLength="169.2158" x="230.1455" y="1789.8022">Mark_Writing_Complete()</text></g><g class="message" data-participant-1="Orchestrator" data-participant-2="Stage1"><polygon fill="#000000" points="773.4648,1820.3311,783.4648,1824.3311,773.4648,1828.3311,777.4648,1824.3311" style="stroke:#000000;stroke-width:1;"/><line style="stroke:#000000;stroke-width:1;" x1="223.1455" x2="779.4648" y1="1824.3311" y2="1824.3311"/><text fill="#000000" font-family="Verdana" font-size="13" lengthAdjust="spacing" textLength="64.5557" x="230.1455" y="1819.6016">Cleanup()</text></g><g class="message" data-participant-1="Orchestrator" data-participant-2="Stage2"><polygon fill="#000000" points="919.7407,1850.1304,929.7407,1854.1304,919.7407,1858.1304,923.7407,1854.1304" style="stroke:#000000;stroke-width:1;"/><line style="stroke:#000000;stroke-width:1;" x1="223.1455" x2="925.7407" y1="1854.1304" y2="1854.1304"/><text fill="#000000" font-family="Verdana" font-size="13" lengthAdjust="spacing" textLength="64.5557" x="230.1455" y="1849.4009">Cleanup()</text></g><g class="message" data-participant-1="Orchestrator" data-participant-2="Reader"><polygon fill="#000000" points="540.998,1879.9297,550.998,1883.9297,540.998,1887.9297,544.998,1883.9297" style="stroke:#000000;stroke-width:1;"/><line style="stroke:#000000;stroke-width:1;" x1="223.1455" x2="546.998" y1="1883.9297" y2="1883.9297"/><text fill="#000000" font-family="Verdana" font-size="13" lengthAdjust="spacing" textLength="46.8584" x="230.1455" y="1879.2002">Close()</text></g><g class="message" data-participant-1="Orchestrator" data-participant-2="Writer"><polygon fill="#000000" points="1164.2666,1909.729,1174.2666,1913.729,1164.2666,1917.729,1168.2666,1913.729" style="stroke:#000000;stroke-width:1;"/><line style="stroke:#000000;stroke-width:1;" x1="223.1455" x2="1170.2666" y1="1913.729" y2="1913.729"/><text fill="#000000" font-family="Verdana" font-size="13" lengthAdjust="spacing" textLength="46.8584" x="230.1455" y="1908.9995">Close()</text></g><g class="message" data-participant-1="Orchestrator" data-participant-2="Client"><polygon fill="#000000" points="58.0874,1939.5283,48.0874,1943.5283,58.0874,1947.5283,54.0874,1943.5283" style="stroke:#000000;stroke-width:1;"/><line style="stroke:#000000;stroke-width:1;stroke-dasharray:2,2;" x1="52.0874" x2="222.1455" y1="1943.5283" y2="1943.5283"/><text fill="#000000" font-family="Verdana" font-size="13" lengthAdjust="spacing" textLength="133.3896" x="64.0874" y="1938.7988">Processing complete</text></g><rect fill="#FFFFFF" height="3" style="stroke:#FFFFFF;stroke-width:1;" width="1283.3892" x="5" y="1972.428"/><line style="stroke:#000000;stroke-width:0.5;" x1="5" x2="1288.3892" y1="1972.428" y2="1972.428"/><line style="stroke:#000000;stroke-width:0.5;" x1="5" x2="1288.3892" y1="1975.428" y2="1975.428"/><rect fill="#FFFFFF" height="23.7993" style="stroke:#000000;stroke-width:1;" width="263.7549" x="514.8171" y="1961.5283"/><text fill="#000000" font-family="Verdana" font-size="13" font-weight="bold" lengthAdjust="spacing" textLength="245.3115" x="520.8171" y="1978.5981">Error Handling (Alternative Flow)</text><path d="M141.811,2002.3276 L205.8604,2002.3276 L205.8604,2010.127 L195.8604,2020.127 L141.811,2020.127 L141.811,2002.3276" fill="#FFFFFF" style="stroke:#000000;stroke-width:1;"/><rect fill="none" height="245.9639" style="stroke:#000000;stroke-width:1;" width="713.1836" x="141.811" y="2002.3276"/><text fill="#000000" font-family="Verdana" font-size="13" font-weight="bold" lengthAdjust="spacing" textLength="19.0493" x="156.811" y="2016.3975">alt</text><text fill="#000000" font-family="Verdana" font-size="11" font-weight="bold" lengthAdjust="spacing" textLength="114.3828" x="220.8604" y="2015.3867">[Processing Error]</text><g class="message" data-participant-1="Stage1" data-participant-2="Orchestrator"><polygon fill="#000000" points="234.1455,2037.9263,224.1455,2041.9263,234.1455,2045.9263,230.1455,2041.9263" style="stroke:#000000;stroke-width:1;"/><line style="stroke:#000000;stroke-width:1;stroke-dasharray:2,2;" x1="228.1455" x2="784.4648" y1="2041.9263" y2="2041.9263"/><text fill="#000000" font-family="Verdana" font-size="13" lengthAdjust="spacing" textLength="74.3057" x="240.1455" y="2037.1968">Error result</text></g><g class="message" data-participant-1="Orchestrator" data-participant-2="Chunk"><polygon fill="#000000" points="664.6157,2067.7256,674.6157,2071.7256,664.6157,2075.7256,668.6157,2071.7256" style="stroke:#000000;stroke-width:1;"/><line style="stroke:#000000;stroke-width:1;" x1="223.1455" x2="670.6157" y1="2071.7256" y2="2071.7256"/><text fill="#000000" font-family="Verdana" font-size="13" lengthAdjust="spacing" textLength="169.5269" x="230.1455" y="2066.9961">Increment_Retry_Count()</text></g><path d="M151.811,2086.7256 L215.8604,2086.7256 L215.8604,2094.5249 L205.8604,2104.5249 L151.811,2104.5249 L151.811,2086.7256" fill="#FFFFFF" style="stroke:#000000;stroke-width:1;"/><rect fill="none" height="154.5659" style="stroke:#000000;stroke-width:1;" width="675.0161" x="151.811" y="2086.7256"/><text fill="#000000" font-family="Verdana" font-size="13" font-weight="bold" lengthAdjust="spacing" textLength="19.0493" x="166.811" y="2100.7954">alt</text><text fill="#000000" font-family="Verdana" font-size="11" font-weight="bold" lengthAdjust="spacing" textLength="163.5444" x="230.8604" y="2099.7847">[Retry limit not exceeded]</text><g class="message" data-participant-1="Orchestrator" data-participant-2="Chunk"><polygon fill="#000000" points="664.6157,2125.3242,674.6157,2129.3242,664.6157,2133.3242,668.6157,2129.3242" style="stroke:#000000;stroke-width:1;"/><line style="stroke:#000000;stroke-width:1;" x1="223.1455" x2="670.6157" y1="2129.3242" y2="2129.3242"/><text fill="#000000" font-family="Verdana" font-size="13" lengthAdjust="spacing" textLength="109.1987" x="230.1455" y="2124.5947">Set_State(Read)</text></g><path d="M681,2109.5249 L681,2134.5249 L811,2134.5249 L811,2119.5249 L801,2109.5249 L681,2109.5249" fill="#FFFFFF" style="stroke:#000000;stroke-width:1;"/><path d="M801,2109.5249 L801,2119.5249 L811,2119.5249 L801,2109.5249" fill="#FFFFFF" style="stroke:#000000;stroke-width:1;"/><text fill="#000000" font-family="Verdana" font-size="13" lengthAdjust="spacing" textLength="109.2114" x="687" y="2127.5947">Retry processing</text><line style="stroke:#000000;stroke-width:1;stroke-dasharray:2,2;" x1="151.811" x2="826.8271" y1="2141.3242" y2="2141.3242"/><text fill="#000000" font-family="Verdana" font-size="11" font-weight="bold" lengthAdjust="spacing" textLength="139.3853" x="156.811" y="2152.3833">[Retry limit exceeded]</text><g class="message" data-participant-1="Orchestrator" data-participant-2="Orchestrator"><line style="stroke:#000000;stroke-width:1;" x1="223.1455" x2="265.1455" y1="2177.4922" y2="2177.4922"/><line style="stroke:#000000;stroke-width:1;" x1="265.1455" x2="265.1455" y1="2177.4922" y2="2190.4922"/><line style="stroke:#000000;stroke-width:1;" x1="224.1455" x2="265.1455" y1="2190.4922" y2="2190.4922"/><polygon fill="#000000" points="234.1455,2186.4922,224.1455,2190.4922,234.1455,2194.4922,230.1455,2190.4922" style="stroke:#000000;stroke-width:1;"/><text fill="#000000" font-family="Verdana" font-size="13" lengthAdjust="spacing" textLength="60.0742" x="230.1455" y="2172.7627">Log error</text></g><g class="message" data-participant-1="Orchestrator" data-participant-2="Orchestrator"><line style="stroke:#000000;stroke-width:1;" x1="223.1455" x2="265.1455" y1="2220.2915" y2="2220.2915"/><line style="stroke:#000000;stroke-width:1;" x1="265.1455" x2="265.1455" y1="2220.2915" y2="2233.2915"/><line style="stroke:#000000;stroke-width:1;" x1="224.1455" x2="265.1455" y1="2233.2915" y2="2233.2915"/><polygon fill="#000000" points="234.1455,2229.2915,224.1455,2233.2915,234.1455,2237.2915,230.1455,2233.2915" style="stroke:#000000;stroke-width:1;"/><text fill="#000000" font-family="Verdana" font-size="13" lengthAdjust="spacing" textLength="71.9634" x="230.1455" y="2215.562">Skip chunk</text></g><!--SRC=[jPRRQjj048RlzHJJN4cG1ABBW0l1RKYW8Q7kuIPWjj9OMhpQLLUZDkxJTm-IBDcI3z060cljDuVzPtQaTvHZWL0AncL0d0J22ozHS6aMMYLOLLncS0KB_5cZJ10-S9PfLWH1oJJnX9TC4bpC1KT95y0gyClXTklpLJxh9CUAD2Eb7Tv_C6LqpnApkt5yinwYzzma_XbPYjwfN-wacDToxJEqg-7cWbY6SFCgGxpEhY_XWLLvv62tSpD6nnqzLqMfZLGzYtZdB5fbbdYLNpHBrasQxTEHmtpNd1hABuDWDeD7oOapmVymuah2IyugXDaiy9h3rVk1d70BSusCJ7tRccfRneg20MRC6bNtBS94oHNFeg0b1l0taqjgSK_LskNLPxryMx-L_Rq7n0U0LgGjGbx2a1GniKniDQjUWligT2tDfN5lkjY9kK2gows6kvBu7ZBMpoNAaCkofkNAb2OAcfq-yuI5ZLsm4YpJ8VkvBEh4tgfWBvulSnjFrRGDs6oTuwtJlMiP3AEWUJhYo2QycN0JZxg93xWnwlQcHoUnKAg4UmCYIt9mXGl0_4rARnTBTrr3MHS_K5z2PLA8dDMs38xe-YCq7Sc6oCZ5w8AFPj1wD3soDASrJgqhSvXe5E_rwDVINeYbprpLaiARw8mGqJOdsw9-BFN5D3AUvcrhCnw_wv0635qzFDlsIO-wAqkn0IOoPPenBtQmDhm_FTWA38YnJgbgGUUT1KVbYV-VFF41UU81DIbFV5IU-5_BSxmxEuDXYxQwsdapkBYdfT6OZIVHZJUty6fUMo4kGQrM5P8tQqVThW6GWfHNwm4qFGzFJvXGdgfQWuzeDXNAL14fzA1KvXIQPpcruyUyZPDD8Z25bJ6J-4PWp-NVeIXJDqVd0fayz9xgvVd4z7hPL65fFqe4aftNarU_SJw5n0UHRahFXQh6mdGL70UiJlwxvRP_WvCcRtVwZreRz879LDYzy4uOZz8ez0lXNgZVaLM42UexS3P7fe_tguzViaUPQFE5BCbCTDARflQ-eZQkUmg25vniXG7V4iGKKmUSE_RtsiHxBxkpEGf5XOEuHsFk7FwJoW0xaKumMAnvsNjTszQq_ty1]--></g></svg>
