<svg xmlns="http://www.w3.org/2000/svg" xmlns:xlink="http://www.w3.org/1999/xlink" contentStyleType="text/css" data-diagram-type="SEQUENCE" height="1701px" preserveAspectRatio="none" style="width:818px;height:1701px;background:#FFFFFF;" version="1.1" viewBox="0 0 818 1701" width="818px" zoomAndPan="magnify"><title>Error Handling with Result Pattern</title><defs/><g><text fill="#000000" font-family="Verdana" font-size="22" font-weight="bold" lengthAdjust="spacing" textLength="428.2158" x="193.4783" y="37.1182">Error Handling with Result Pattern</text><rect fill="#FFFFFF" height="269.7632" style="stroke:#000000;stroke-width:1;" width="600.3394" x="153.9653" y="982.3335"/><rect fill="#FFFFFF" height="178.3652" style="stroke:#000000;stroke-width:1;" width="580.3394" x="163.9653" y="1066.7314"/><rect fill="#FFFFFF" height="160.5659" style="stroke:none;stroke-width:1;" width="580.3394" x="163.9653" y="1084.5308"/><rect fill="#FFFFFF" height="152.3652" style="stroke:#000000;stroke-width:1;" width="719.3047" x="25" y="1266.0967"/><rect fill="#FFFFFF" height="74.9673" style="stroke:none;stroke-width:1;" width="719.3047" x="25" y="1343.4946"/><g><title>Client</title><rect fill="#000000" fill-opacity="0.00000" height="1580.3018" width="8" x="68.0874" y="84.752"/><line style="stroke:#000000;stroke-width:1;" x1="72" x2="72" y1="84.752" y2="1665.0537"/></g><g><title>Use Case</title><rect fill="#000000" fill-opacity="0.00000" height="1580.3018" width="8" x="219.2754" y="84.752"/><line style="stroke:#000000;stroke-width:1;" x1="222.9653" x2="222.9653" y1="84.752" y2="1665.0537"/></g><g><title>Domain Service</title><rect fill="#000000" fill-opacity="0.00000" height="1580.3018" width="8" x="383.2578" y="84.752"/><line style="stroke:#000000;stroke-width:1;" x1="386.9688" x2="386.9688" y1="84.752" y2="1665.0537"/></g><g><title>Infrastructure</title><rect fill="#000000" fill-opacity="0.00000" height="1580.3018" width="8" x="531.3896" y="84.752"/><line style="stroke:#000000;stroke-width:1;" x1="534.5469" x2="534.5469" y1="84.752" y2="1665.0537"/></g><g><title>Result.T.E.</title><rect fill="#000000" fill-opacity="0.00000" height="1580.3018" width="8" x="668.7686" y="84.752"/><line style="stroke:#000000;stroke-width:1;" x1="672.2324" x2="672.2324" y1="84.752" y2="1665.0537"/></g><g class="participant participant-head" data-participant="Client"><rect fill="#FFFFFF" height="31.0146" rx="2.5" ry="2.5" style="stroke:#000000;stroke-width:1;" width="54.1748" x="45" y="52.7373"/><text fill="#000000" font-family="Verdana" font-size="14" lengthAdjust="spacing" textLength="40.1748" x="52" y="73.8125">Client</text></g><g class="participant participant-tail" data-participant="Client"><rect fill="#FFFFFF" height="31.0146" rx="2.5" ry="2.5" style="stroke:#000000;stroke-width:1;" width="54.1748" x="45" y="1664.0537"/><text fill="#000000" font-family="Verdana" font-size="14" lengthAdjust="spacing" textLength="40.1748" x="52" y="1685.1289">Client</text></g><g class="participant participant-head" data-participant="UseCase"><rect fill="#FFFFFF" height="31.0146" rx="2.5" ry="2.5" style="stroke:#000000;stroke-width:1;" width="78.6201" x="183.9653" y="52.7373"/><text fill="#000000" font-family="Verdana" font-size="14" lengthAdjust="spacing" textLength="64.6201" x="190.9653" y="73.8125">Use Case</text></g><g class="participant participant-tail" data-participant="UseCase"><rect fill="#FFFFFF" height="31.0146" rx="2.5" ry="2.5" style="stroke:#000000;stroke-width:1;" width="78.6201" x="183.9653" y="1664.0537"/><text fill="#000000" font-family="Verdana" font-size="14" lengthAdjust="spacing" textLength="64.6201" x="190.9653" y="1685.1289">Use Case</text></g><g class="participant participant-head" data-participant="Service"><rect fill="#FFFFFF" height="31.0146" rx="2.5" ry="2.5" style="stroke:#000000;stroke-width:1;" width="124.5781" x="324.9688" y="52.7373"/><text fill="#000000" font-family="Verdana" font-size="14" lengthAdjust="spacing" textLength="110.5781" x="331.9688" y="73.8125">Domain Service</text></g><g class="participant participant-tail" data-participant="Service"><rect fill="#FFFFFF" height="31.0146" rx="2.5" ry="2.5" style="stroke:#000000;stroke-width:1;" width="124.5781" x="324.9688" y="1664.0537"/><text fill="#000000" font-family="Verdana" font-size="14" lengthAdjust="spacing" textLength="110.5781" x="331.9688" y="1685.1289">Domain Service</text></g><g class="participant participant-head" data-participant="Infra"><rect fill="#FFFFFF" height="31.0146" rx="2.5" ry="2.5" style="stroke:#000000;stroke-width:1;" width="111.6855" x="479.5469" y="52.7373"/><text fill="#000000" font-family="Verdana" font-size="14" lengthAdjust="spacing" textLength="97.6855" x="486.5469" y="73.8125">Infrastructure</text></g><g class="participant participant-tail" data-participant="Infra"><rect fill="#FFFFFF" height="31.0146" rx="2.5" ry="2.5" style="stroke:#000000;stroke-width:1;" width="111.6855" x="479.5469" y="1664.0537"/><text fill="#000000" font-family="Verdana" font-size="14" lengthAdjust="spacing" textLength="97.6855" x="486.5469" y="1685.1289">Infrastructure</text></g><g class="participant participant-head" data-participant="Result"><rect fill="#FFFFFF" height="31.0146" rx="2.5" ry="2.5" style="stroke:#000000;stroke-width:1;" width="103.0723" x="621.2324" y="52.7373"/><text fill="#000000" font-family="Verdana" font-size="14" lengthAdjust="spacing" textLength="89.0723" x="628.2324" y="73.8125">Result&lt;T,E&gt;</text></g><g class="participant participant-tail" data-participant="Result"><rect fill="#FFFFFF" height="31.0146" rx="2.5" ry="2.5" style="stroke:#000000;stroke-width:1;" width="103.0723" x="621.2324" y="1664.0537"/><text fill="#000000" font-family="Verdana" font-size="14" lengthAdjust="spacing" textLength="89.0723" x="628.2324" y="1685.1289">Result&lt;T,E&gt;</text></g><rect fill="#FFFFFF" height="3" style="stroke:#FFFFFF;stroke-width:1;" width="806.1724" x="5" y="115.6516"/><line style="stroke:#000000;stroke-width:0.5;" x1="5" x2="811.1724" y1="115.6516" y2="115.6516"/><line style="stroke:#000000;stroke-width:0.5;" x1="5" x2="811.1724" y1="118.6516" y2="118.6516"/><rect fill="#FFFFFF" height="23.7993" style="stroke:#000000;stroke-width:1;" width="114.1343" x="351.019" y="104.752"/><text fill="#000000" font-family="Verdana" font-size="13" font-weight="bold" lengthAdjust="spacing" textLength="95.6909" x="357.019" y="121.8218">Success Path</text><g class="message" data-participant-1="Client" data-participant-2="UseCase"><polygon fill="#000000" points="211.2754,156.3506,221.2754,160.3506,211.2754,164.3506,215.2754,160.3506" style="stroke:#000000;stroke-width:1;"/><line style="stroke:#000000;stroke-width:1;" x1="72.0874" x2="217.2754" y1="160.3506" y2="160.3506"/><text fill="#000000" font-family="Verdana" font-size="13" lengthAdjust="spacing" textLength="127.188" x="79.0874" y="155.6211">Process file request</text></g><g class="message" data-participant-1="UseCase" data-participant-2="Service"><polygon fill="#000000" points="375.2578,186.1499,385.2578,190.1499,375.2578,194.1499,379.2578,190.1499" style="stroke:#000000;stroke-width:1;"/><line style="stroke:#000000;stroke-width:1;" x1="223.2754" x2="381.2578" y1="190.1499" y2="190.1499"/><text fill="#000000" font-family="Verdana" font-size="13" lengthAdjust="spacing" textLength="90.416" x="230.2754" y="185.4204">Validate input</text></g><g class="message" data-participant-1="Service" data-participant-2="Result"><polygon fill="#000000" points="660.7686,215.9492,670.7686,219.9492,660.7686,223.9492,664.7686,219.9492" style="stroke:#000000;stroke-width:1;"/><line style="stroke:#000000;stroke-width:1;" x1="387.2578" x2="666.7686" y1="219.9492" y2="219.9492"/><text fill="#000000" font-family="Verdana" font-size="13" lengthAdjust="spacing" textLength="126.3438" x="394.2578" y="215.2197">Ok(validated_data)</text></g><g class="message" data-participant-1="Result" data-participant-2="UseCase"><polygon fill="#000000" points="234.2754,245.7485,224.2754,249.7485,234.2754,253.7485,230.2754,249.7485" style="stroke:#000000;stroke-width:1;"/><line style="stroke:#000000;stroke-width:1;stroke-dasharray:2,2;" x1="228.2754" x2="671.7686" y1="249.7485" y2="249.7485"/><text fill="#000000" font-family="Verdana" font-size="13" lengthAdjust="spacing" textLength="132.9453" x="240.2754" y="245.019">Result.Is_Ok = True</text></g><g class="message" data-participant-1="UseCase" data-participant-2="Infra"><polygon fill="#000000" points="523.3896,275.5479,533.3896,279.5479,523.3896,283.5479,527.3896,279.5479" style="stroke:#000000;stroke-width:1;"/><line style="stroke:#000000;stroke-width:1;" x1="223.2754" x2="529.3896" y1="279.5479" y2="279.5479"/><text fill="#000000" font-family="Verdana" font-size="13" lengthAdjust="spacing" textLength="76.4067" x="230.2754" y="274.8184">Read chunk</text></g><g class="message" data-participant-1="Infra" data-participant-2="Infra"><line style="stroke:#000000;stroke-width:1;" x1="535.3896" x2="577.3896" y1="309.3472" y2="309.3472"/><line style="stroke:#000000;stroke-width:1;" x1="577.3896" x2="577.3896" y1="309.3472" y2="322.3472"/><line style="stroke:#000000;stroke-width:1;" x1="536.3896" x2="577.3896" y1="322.3472" y2="322.3472"/><polygon fill="#000000" points="546.3896,318.3472,536.3896,322.3472,546.3896,326.3472,542.3896,322.3472" style="stroke:#000000;stroke-width:1;"/><text fill="#000000" font-family="Verdana" font-size="13" lengthAdjust="spacing" textLength="121.4878" x="542.3896" y="304.6177">Try read operation</text></g><g class="message" data-participant-1="Infra" data-participant-2="Result"><polygon fill="#000000" points="660.7686,348.1465,670.7686,352.1465,660.7686,356.1465,664.7686,352.1465" style="stroke:#000000;stroke-width:1;"/><line style="stroke:#000000;stroke-width:1;" x1="535.3896" x2="666.7686" y1="352.1465" y2="352.1465"/><text fill="#000000" font-family="Verdana" font-size="13" lengthAdjust="spacing" textLength="105.9805" x="542.3896" y="347.417">Ok(chunk_data)</text></g><g class="message" data-participant-1="Result" data-participant-2="UseCase"><polygon fill="#000000" points="234.2754,377.9458,224.2754,381.9458,234.2754,385.9458,230.2754,381.9458" style="stroke:#000000;stroke-width:1;"/><line style="stroke:#000000;stroke-width:1;stroke-dasharray:2,2;" x1="228.2754" x2="671.7686" y1="381.9458" y2="381.9458"/><text fill="#000000" font-family="Verdana" font-size="13" lengthAdjust="spacing" textLength="132.9453" x="240.2754" y="377.2163">Result.Is_Ok = True</text></g><g class="message" data-participant-1="UseCase" data-participant-2="Service"><polygon fill="#000000" points="375.2578,407.7451,385.2578,411.7451,375.2578,415.7451,379.2578,411.7451" style="stroke:#000000;stroke-width:1;"/><line style="stroke:#000000;stroke-width:1;" x1="223.2754" x2="381.2578" y1="411.7451" y2="411.7451"/><text fill="#000000" font-family="Verdana" font-size="13" lengthAdjust="spacing" textLength="93.0566" x="230.2754" y="407.0156">Process chunk</text></g><g class="message" data-participant-1="Service" data-participant-2="Result"><polygon fill="#000000" points="660.7686,437.5444,670.7686,441.5444,660.7686,445.5444,664.7686,441.5444" style="stroke:#000000;stroke-width:1;"/><line style="stroke:#000000;stroke-width:1;" x1="387.2578" x2="666.7686" y1="441.5444" y2="441.5444"/><text fill="#000000" font-family="Verdana" font-size="13" lengthAdjust="spacing" textLength="132.2788" x="394.2578" y="436.8149">Ok(processed_data)</text></g><g class="message" data-participant-1="Result" data-participant-2="UseCase"><polygon fill="#000000" points="234.2754,467.3438,224.2754,471.3438,234.2754,475.3438,230.2754,471.3438" style="stroke:#000000;stroke-width:1;"/><line style="stroke:#000000;stroke-width:1;stroke-dasharray:2,2;" x1="228.2754" x2="671.7686" y1="471.3438" y2="471.3438"/><text fill="#000000" font-family="Verdana" font-size="13" lengthAdjust="spacing" textLength="132.9453" x="240.2754" y="466.6143">Result.Is_Ok = True</text></g><g class="message" data-participant-1="UseCase" data-participant-2="Result"><polygon fill="#000000" points="660.7686,497.1431,670.7686,501.1431,660.7686,505.1431,664.7686,501.1431" style="stroke:#000000;stroke-width:1;"/><line style="stroke:#000000;stroke-width:1;" x1="223.2754" x2="666.7686" y1="501.1431" y2="501.1431"/><text fill="#000000" font-family="Verdana" font-size="13" lengthAdjust="spacing" textLength="146.6309" x="230.2754" y="496.4136">Ok(success_response)</text></g><g class="message" data-participant-1="Result" data-participant-2="Client"><polygon fill="#000000" points="83.0874,526.9424,73.0874,530.9424,83.0874,534.9424,79.0874,530.9424" style="stroke:#000000;stroke-width:1;"/><line style="stroke:#000000;stroke-width:1;stroke-dasharray:2,2;" x1="77.0874" x2="671.7686" y1="530.9424" y2="530.9424"/><text fill="#000000" font-family="Verdana" font-size="13" lengthAdjust="spacing" textLength="51.9492" x="89.0874" y="526.2129">Success</text></g><rect fill="#FFFFFF" height="3" style="stroke:#FFFFFF;stroke-width:1;" width="806.1724" x="5" y="559.842"/><line style="stroke:#000000;stroke-width:0.5;" x1="5" x2="811.1724" y1="559.842" y2="559.842"/><line style="stroke:#000000;stroke-width:0.5;" x1="5" x2="811.1724" y1="562.842" y2="562.842"/><rect fill="#FFFFFF" height="23.7993" style="stroke:#000000;stroke-width:1;" width="93.4727" x="361.3499" y="548.9424"/><text fill="#000000" font-family="Verdana" font-size="13" font-weight="bold" lengthAdjust="spacing" textLength="75.0293" x="367.3499" y="566.0122">Error Path</text><g class="message" data-participant-1="Client" data-participant-2="UseCase"><polygon fill="#000000" points="211.2754,600.541,221.2754,604.541,211.2754,608.541,215.2754,604.541" style="stroke:#000000;stroke-width:1;"/><line style="stroke:#000000;stroke-width:1;" x1="72.0874" x2="217.2754" y1="604.541" y2="604.541"/><text fill="#000000" font-family="Verdana" font-size="13" lengthAdjust="spacing" textLength="127.188" x="79.0874" y="599.8115">Process file request</text></g><g class="message" data-participant-1="UseCase" data-participant-2="Service"><polygon fill="#000000" points="375.2578,630.3403,385.2578,634.3403,375.2578,638.3403,379.2578,634.3403" style="stroke:#000000;stroke-width:1;"/><line style="stroke:#000000;stroke-width:1;" x1="223.2754" x2="381.2578" y1="634.3403" y2="634.3403"/><text fill="#000000" font-family="Verdana" font-size="13" lengthAdjust="spacing" textLength="90.416" x="230.2754" y="629.6108">Validate input</text></g><g class="message" data-participant-1="Service" data-participant-2="Result"><polygon fill="#000000" points="660.7686,660.1396,670.7686,664.1396,660.7686,668.1396,664.7686,664.1396" style="stroke:#000000;stroke-width:1;"/><line style="stroke:#000000;stroke-width:1;" x1="387.2578" x2="666.7686" y1="664.1396" y2="664.1396"/><text fill="#000000" font-family="Verdana" font-size="13" lengthAdjust="spacing" textLength="160.6909" x="394.2578" y="659.4102">Err("Invalid chunk size")</text></g><g class="message" data-participant-1="Result" data-participant-2="UseCase"><polygon fill="#000000" points="234.2754,689.939,224.2754,693.939,234.2754,697.939,230.2754,693.939" style="stroke:#000000;stroke-width:1;"/><line style="stroke:#000000;stroke-width:1;stroke-dasharray:2,2;" x1="228.2754" x2="671.7686" y1="693.939" y2="693.939"/><text fill="#000000" font-family="Verdana" font-size="13" lengthAdjust="spacing" textLength="136.7793" x="240.2754" y="689.2095">Result.Is_Ok = False</text></g><g class="message" data-participant-1="UseCase" data-participant-2="UseCase"><line style="stroke:#000000;stroke-width:1;" x1="223.2754" x2="265.2754" y1="723.7383" y2="723.7383"/><line style="stroke:#000000;stroke-width:1;" x1="265.2754" x2="265.2754" y1="723.7383" y2="736.7383"/><line style="stroke:#000000;stroke-width:1;" x1="224.2754" x2="265.2754" y1="736.7383" y2="736.7383"/><polygon fill="#000000" points="234.2754,732.7383,224.2754,736.7383,234.2754,740.7383,230.2754,736.7383" style="stroke:#000000;stroke-width:1;"/><text fill="#000000" font-family="Verdana" font-size="13" lengthAdjust="spacing" textLength="149.9824" x="230.2754" y="719.0088">Handle validation error</text></g><g class="message" data-participant-1="UseCase" data-participant-2="Result"><polygon fill="#000000" points="660.7686,762.5376,670.7686,766.5376,660.7686,770.5376,664.7686,766.5376" style="stroke:#000000;stroke-width:1;"/><line style="stroke:#000000;stroke-width:1;" x1="223.2754" x2="666.7686" y1="766.5376" y2="766.5376"/><text fill="#000000" font-family="Verdana" font-size="13" lengthAdjust="spacing" textLength="128.4194" x="230.2754" y="761.8081">Err(ValidationError)</text></g><g class="message" data-participant-1="Result" data-participant-2="Client"><polygon fill="#000000" points="83.0874,792.3369,73.0874,796.3369,83.0874,800.3369,79.0874,796.3369" style="stroke:#000000;stroke-width:1;"/><line style="stroke:#000000;stroke-width:1;stroke-dasharray:2,2;" x1="77.0874" x2="671.7686" y1="796.3369" y2="796.3369"/><text fill="#000000" font-family="Verdana" font-size="13" lengthAdjust="spacing" textLength="112.1313" x="89.0874" y="791.6074">Error with details</text></g><rect fill="#FFFFFF" height="3" style="stroke:#FFFFFF;stroke-width:1;" width="806.1724" x="5" y="825.2366"/><line style="stroke:#000000;stroke-width:0.5;" x1="5" x2="811.1724" y1="825.2366" y2="825.2366"/><line style="stroke:#000000;stroke-width:0.5;" x1="5" x2="811.1724" y1="828.2366" y2="828.2366"/><rect fill="#FFFFFF" height="23.7993" style="stroke:#000000;stroke-width:1;" width="245.2515" x="285.4604" y="814.3369"/><text fill="#000000" font-family="Verdana" font-size="13" font-weight="bold" lengthAdjust="spacing" textLength="226.8081" x="291.4604" y="831.4067">Infrastructure Error with Retry</text><g class="message" data-participant-1="Client" data-participant-2="UseCase"><polygon fill="#000000" points="211.2754,865.9355,221.2754,869.9355,211.2754,873.9355,215.2754,869.9355" style="stroke:#000000;stroke-width:1;"/><line style="stroke:#000000;stroke-width:1;" x1="72.0874" x2="217.2754" y1="869.9355" y2="869.9355"/><text fill="#000000" font-family="Verdana" font-size="13" lengthAdjust="spacing" textLength="127.188" x="79.0874" y="865.2061">Process file request</text></g><g class="message" data-participant-1="UseCase" data-participant-2="Infra"><polygon fill="#000000" points="523.3896,895.7349,533.3896,899.7349,523.3896,903.7349,527.3896,899.7349" style="stroke:#000000;stroke-width:1;"/><line style="stroke:#000000;stroke-width:1;" x1="223.2754" x2="529.3896" y1="899.7349" y2="899.7349"/><text fill="#000000" font-family="Verdana" font-size="13" lengthAdjust="spacing" textLength="76.4067" x="230.2754" y="895.0054">Read chunk</text></g><g class="message" data-participant-1="Infra" data-participant-2="Infra"><line style="stroke:#000000;stroke-width:1;" x1="535.3896" x2="577.3896" y1="954.3335" y2="954.3335"/><line style="stroke:#000000;stroke-width:1;" x1="577.3896" x2="577.3896" y1="954.3335" y2="967.3335"/><line style="stroke:#000000;stroke-width:1;" x1="536.3896" x2="577.3896" y1="967.3335" y2="967.3335"/><polygon fill="#000000" points="546.3896,963.3335,536.3896,967.3335,546.3896,971.3335,542.3896,967.3335" style="stroke:#000000;stroke-width:1;"/><text fill="#000000" font-family="Verdana" font-size="13" lengthAdjust="spacing" textLength="121.4878" x="542.3896" y="949.604">Try read operation</text></g><path d="M153.9653,982.3335 L218.0146,982.3335 L218.0146,990.1328 L208.0146,1000.1328 L153.9653,1000.1328 L153.9653,982.3335" fill="#FFFFFF" style="stroke:#000000;stroke-width:1;"/><rect fill="none" height="269.7632" style="stroke:#000000;stroke-width:1;" width="600.3394" x="153.9653" y="982.3335"/><text fill="#000000" font-family="Verdana" font-size="13" font-weight="bold" lengthAdjust="spacing" textLength="19.0493" x="168.9653" y="996.4033">alt</text><text fill="#000000" font-family="Verdana" font-size="11" font-weight="bold" lengthAdjust="spacing" textLength="102.7974" x="233.0146" y="995.3926">[Read succeeds]</text><g class="message" data-participant-1="Infra" data-participant-2="Result"><polygon fill="#000000" points="660.7686,1017.9321,670.7686,1021.9321,660.7686,1025.9321,664.7686,1021.9321" style="stroke:#000000;stroke-width:1;"/><line style="stroke:#000000;stroke-width:1;" x1="535.3896" x2="666.7686" y1="1021.9321" y2="1021.9321"/><text fill="#000000" font-family="Verdana" font-size="13" lengthAdjust="spacing" textLength="105.9805" x="542.3896" y="1017.2026">Ok(chunk_data)</text></g><g class="message" data-participant-1="Result" data-participant-2="UseCase"><polygon fill="#000000" points="234.2754,1047.7314,224.2754,1051.7314,234.2754,1055.7314,230.2754,1051.7314" style="stroke:#000000;stroke-width:1;"/><line style="stroke:#000000;stroke-width:1;stroke-dasharray:2,2;" x1="228.2754" x2="671.7686" y1="1051.7314" y2="1051.7314"/><text fill="#000000" font-family="Verdana" font-size="13" lengthAdjust="spacing" textLength="51.9492" x="240.2754" y="1047.002">Success</text></g><path d="M163.9653,1066.7314 L250.5552,1066.7314 L250.5552,1074.5308 L240.5552,1084.5308 L163.9653,1084.5308 L163.9653,1066.7314" fill="#FFFFFF" style="stroke:#000000;stroke-width:1;"/><rect fill="none" height="178.3652" style="stroke:#000000;stroke-width:1;" width="580.3394" x="163.9653" y="1066.7314"/><text fill="#000000" font-family="Verdana" font-size="13" font-weight="bold" lengthAdjust="spacing" textLength="41.5898" x="178.9653" y="1080.8013">break</text><line style="stroke:#000000;stroke-width:1;stroke-dasharray:2,2;" x1="163.9653" x2="744.3047" y1="1085.5308" y2="1085.5308"/><text fill="#000000" font-family="Verdana" font-size="11" font-weight="bold" lengthAdjust="spacing" textLength="72.7031" x="168.9653" y="1096.5898">[Read fails]</text><g class="message" data-participant-1="Infra" data-participant-2="Result"><polygon fill="#000000" points="660.7686,1117.6987,670.7686,1121.6987,660.7686,1125.6987,664.7686,1121.6987" style="stroke:#000000;stroke-width:1;"/><line style="stroke:#000000;stroke-width:1;" x1="535.3896" x2="666.7686" y1="1121.6987" y2="1121.6987"/><text fill="#000000" font-family="Verdana" font-size="13" lengthAdjust="spacing" textLength="79.5806" x="542.3896" y="1116.9692">Err(IOError)</text></g><g class="message" data-participant-1="Result" data-participant-2="UseCase"><polygon fill="#000000" points="234.2754,1147.498,224.2754,1151.498,234.2754,1155.498,230.2754,1151.498" style="stroke:#000000;stroke-width:1;"/><line style="stroke:#000000;stroke-width:1;stroke-dasharray:2,2;" x1="228.2754" x2="671.7686" y1="1151.498" y2="1151.498"/><text fill="#000000" font-family="Verdana" font-size="13" lengthAdjust="spacing" textLength="136.7793" x="240.2754" y="1146.7686">Result.Is_Ok = False</text></g><g class="message" data-participant-1="UseCase" data-participant-2="UseCase"><line style="stroke:#000000;stroke-width:1;" x1="223.2754" x2="265.2754" y1="1181.2974" y2="1181.2974"/><line style="stroke:#000000;stroke-width:1;" x1="265.2754" x2="265.2754" y1="1181.2974" y2="1194.2974"/><line style="stroke:#000000;stroke-width:1;" x1="224.2754" x2="265.2754" y1="1194.2974" y2="1194.2974"/><polygon fill="#000000" points="234.2754,1190.2974,224.2754,1194.2974,234.2754,1198.2974,230.2754,1194.2974" style="stroke:#000000;stroke-width:1;"/><text fill="#000000" font-family="Verdana" font-size="13" lengthAdjust="spacing" textLength="60.0742" x="230.2754" y="1176.5679">Log error</text></g><g class="message" data-participant-1="UseCase" data-participant-2="UseCase"><line style="stroke:#000000;stroke-width:1;" x1="223.2754" x2="265.2754" y1="1224.0967" y2="1224.0967"/><line style="stroke:#000000;stroke-width:1;" x1="265.2754" x2="265.2754" y1="1224.0967" y2="1237.0967"/><line style="stroke:#000000;stroke-width:1;" x1="224.2754" x2="265.2754" y1="1237.0967" y2="1237.0967"/><polygon fill="#000000" points="234.2754,1233.0967,224.2754,1237.0967,234.2754,1241.0967,230.2754,1237.0967" style="stroke:#000000;stroke-width:1;"/><text fill="#000000" font-family="Verdana" font-size="13" lengthAdjust="spacing" textLength="144.5361" x="230.2754" y="1219.3672">Increment retry count</text></g><path d="M25,1266.0967 L89.0493,1266.0967 L89.0493,1273.896 L79.0493,1283.896 L25,1283.896 L25,1266.0967" fill="#FFFFFF" style="stroke:#000000;stroke-width:1;"/><rect fill="none" height="152.3652" style="stroke:#000000;stroke-width:1;" width="719.3047" x="25" y="1266.0967"/><text fill="#000000" font-family="Verdana" font-size="13" font-weight="bold" lengthAdjust="spacing" textLength="19.0493" x="40" y="1280.1665">alt</text><text fill="#000000" font-family="Verdana" font-size="11" font-weight="bold" lengthAdjust="spacing" textLength="110.8862" x="104.0493" y="1279.1558">[All retries failed]</text><g class="message" data-participant-1="UseCase" data-participant-2="Result"><polygon fill="#000000" points="660.7686,1301.6953,670.7686,1305.6953,660.7686,1309.6953,664.7686,1305.6953" style="stroke:#000000;stroke-width:1;"/><line style="stroke:#000000;stroke-width:1;" x1="223.2754" x2="666.7686" y1="1305.6953" y2="1305.6953"/><text fill="#000000" font-family="Verdana" font-size="13" lengthAdjust="spacing" textLength="210.4883" x="230.2754" y="1300.9658">Err("Read failed after 3 retries")</text></g><g class="message" data-participant-1="Result" data-participant-2="Client"><polygon fill="#000000" points="83.0874,1331.4946,73.0874,1335.4946,83.0874,1339.4946,79.0874,1335.4946" style="stroke:#000000;stroke-width:1;"/><line style="stroke:#000000;stroke-width:1;stroke-dasharray:2,2;" x1="77.0874" x2="671.7686" y1="1335.4946" y2="1335.4946"/><text fill="#000000" font-family="Verdana" font-size="13" lengthAdjust="spacing" textLength="32.7539" x="89.0874" y="1330.7651">Error</text></g><line style="stroke:#000000;stroke-width:1;stroke-dasharray:2,2;" x1="25" x2="744.3047" y1="1344.4946" y2="1344.4946"/><text fill="#000000" font-family="Verdana" font-size="11" font-weight="bold" lengthAdjust="spacing" textLength="128.6162" x="30" y="1355.5537">[Success after retry]</text><g class="message" data-participant-1="UseCase" data-participant-2="Result"><polygon fill="#000000" points="660.7686,1376.6626,670.7686,1380.6626,660.7686,1384.6626,664.7686,1380.6626" style="stroke:#000000;stroke-width:1;"/><line style="stroke:#000000;stroke-width:1;" x1="223.2754" x2="666.7686" y1="1380.6626" y2="1380.6626"/><text fill="#000000" font-family="Verdana" font-size="13" lengthAdjust="spacing" textLength="58.5698" x="230.2754" y="1375.9331">Ok(data)</text></g><g class="message" data-participant-1="Result" data-participant-2="Client"><polygon fill="#000000" points="83.0874,1406.4619,73.0874,1410.4619,83.0874,1414.4619,79.0874,1410.4619" style="stroke:#000000;stroke-width:1;"/><line style="stroke:#000000;stroke-width:1;stroke-dasharray:2,2;" x1="77.0874" x2="671.7686" y1="1410.4619" y2="1410.4619"/><text fill="#000000" font-family="Verdana" font-size="13" lengthAdjust="spacing" textLength="51.9492" x="89.0874" y="1405.7324">Success</text></g><path d="M553,1430.4619 L553,1534.4619 L791,1534.4619 L791,1440.4619 L781,1430.4619 L553,1430.4619" fill="#FFFFFF" style="stroke:#000000;stroke-width:1;"/><path d="M781,1430.4619 L781,1440.4619 L791,1440.4619 L781,1430.4619" fill="#FFFFFF" style="stroke:#000000;stroke-width:1;"/><text fill="#000000" font-family="Verdana" font-size="13" font-weight="bold" lengthAdjust="spacing" textLength="174.6685" x="559" y="1448.5317">Result Pattern Benefits:</text><text fill="#000000" font-family="Verdana" font-size="13" lengthAdjust="spacing" textLength="217.1724" x="559" y="1464.3311">- No exceptions cross boundaries</text><text fill="#000000" font-family="Verdana" font-size="13" lengthAdjust="spacing" textLength="154.3242" x="559" y="1480.1304">- Explicit error handling</text><text fill="#000000" font-family="Verdana" font-size="13" lengthAdjust="spacing" textLength="194.397" x="559" y="1495.9297">- Type-safe error propagation</text><text fill="#000000" font-family="Verdana" font-size="13" lengthAdjust="spacing" textLength="187.3066" x="559" y="1511.729">- Composable error handling</text><text fill="#000000" font-family="Verdana" font-size="13" lengthAdjust="spacing" textLength="181.3271" x="559" y="1527.5283">- Forces error consideration</text><path d="M445,1545.2578 L445,1649.2578 L624,1649.2578 L624,1555.2578 L614,1545.2578 L445,1545.2578" fill="#FFFFFF" style="stroke:#000000;stroke-width:1;"/><path d="M614,1545.2578 L614,1555.2578 L624,1555.2578 L614,1545.2578" fill="#FFFFFF" style="stroke:#000000;stroke-width:1;"/><text fill="#000000" font-family="Verdana" font-size="13" font-weight="bold" lengthAdjust="spacing" textLength="158.8564" x="451" y="1563.3276">Infrastructure Errors:</text><text fill="#000000" font-family="Verdana" font-size="13" lengthAdjust="spacing" textLength="100.2168" x="451" y="1579.127">- File not found</text><text fill="#000000" font-family="Verdana" font-size="13" lengthAdjust="spacing" textLength="129.0986" x="451" y="1594.9263">- Permission denied</text><text fill="#000000" font-family="Verdana" font-size="13" lengthAdjust="spacing" textLength="63.0259" x="451" y="1610.7256">- Disk full</text><text fill="#000000" font-family="Verdana" font-size="13" lengthAdjust="spacing" textLength="119.7231" x="451" y="1626.5249">- Network timeout</text><text fill="#000000" font-family="Verdana" font-size="13" lengthAdjust="spacing" textLength="138.0361" x="451" y="1642.3242">All wrapped in Result</text><!--SRC=[lLLDRniX4BtpAwO-fLRTIszM7QbD7DLIrKI9csj4TcTjP0mKs7pqrtSOM6TNMbTH8_LWYsKUpBpt1dWNjxX7S5eg8wAA6c7flVNmJPfQAxE1HnMtS8sXrH6kP8peZH1E-gWgvQI9C3dJ2asSW0oGXyFmpu1m9WCoW3xIU8WujtjA3pVe7rILSMKynArCusM8lgrYwpEEfuQeNEldzOVbAKFojn2B1ToqLOKX91vRM2n4BXTcfrrTC8ShRndJADB2uwyMGnHTc92bCaBUIgrg6H6KSMqKNO0mHQuvNEvE7WgglgD_-LwKs6oGD4z-N8MxonqiOErR5FsaJ9DniePgsvgTo5EzsDe_KxqKjmwzZCgQ5qo_85x-bc9U5EYqoXKT4S1bqDi4w6yOiejt7eEp9k1WosBflFEQVSyj_TzSftGdrApiVDO6WlgDazTnlv0w3Cc_GFbK8fIU8ei14xLHfL8LjmSWIp2kL5Q7ptcDKIgTHHkUjZxg6YFrsZygETBAGblhogwjWsZX4qIrno00NjFc098uyORS6rYdbRsrnze_WKOjwPed0Uufsuv6IBRa90rhD9uXgRwwB6eVtN_KyeGUTVsxtHIVZq9Mfl9qaPCPdcMiR4ltC1LjQf5-8YdqHMiEAmpC0Mins6xOm0UgM8DiwDudLyhgIQ9sj9K4AzNTjNafLtKa6vdIsV6tWymqZAMJPnzentAj0qodmzS9lgB1HiKmdqufF8CV5l2fGfTwXUugRwcgUzAdbeaBGvPFJjC34hFCi2sF7yVMpmvdGJPOWdIVERdfEcy6PtRlR93t6iTMNrXFrPT8HGMekcjR8WI9JvzLViyIgR7ZTw1qaGuNhO8cyU2fA_Hx5KAw4seq2lFikGexQ5gjin8O7wtVyU6oRH8ljSIZbywHoVG45r4FbVq1]--></g></svg>
