<svg xmlns="http://www.w3.org/2000/svg" xmlns:xlink="http://www.w3.org/1999/xlink" contentStyleType="text/css" data-diagram-type="ACTIVITY" height="1138px" preserveAspectRatio="none" style="width:972px;height:1138px;background:#FFFFFF;" version="1.1" viewBox="0 0 972 1138" width="972px" zoomAndPan="magnify"><title>Parallel Chunk Processing - Activity Diagram</title><defs/><g><g class="title" data-source-line="2"><text fill="#000000" font-family="Verdana" font-size="22" font-weight="bold" lengthAdjust="spacing" textLength="552.3633" x="208.332" y="37.1182">Parallel Chunk Processing - Activity Diagram</text></g><ellipse cx="486.0137" cy="62.7373" fill="#FFFFFF" rx="10" ry="10" style="stroke:#000000;stroke-width:1;"/><rect fill="#FFFFFF" height="34.584" rx="12.5" ry="12.5" style="stroke:#000000;stroke-width:1;" width="200.9141" x="385.5566" y="92.7373"/><text fill="#000000" font-family="Verdana" font-size="12" lengthAdjust="spacing" textLength="180.9141" x="395.5566" y="114.8018">Client requests file processing</text><rect fill="#000000" height="6" rx="2.5" ry="2.5" style="stroke:#000000;stroke-width:1;" width="555.4336" x="208.2969" y="147.3213"/><rect fill="#FFFFFF" height="34.584" rx="12.5" ry="12.5" style="stroke:#000000;stroke-width:1;" width="165.4063" x="222.2969" y="208.1133"/><text fill="#000000" font-family="Verdana" font-size="12" lengthAdjust="spacing" textLength="145.4063" x="232.2969" y="230.1777">Create Progress Tracker</text><rect fill="#FFFFFF" height="34.584" rx="12.5" ry="12.5" style="stroke:#000000;stroke-width:1;" width="113.1758" x="420.2676" y="173.3213"/><text fill="#000000" font-family="Verdana" font-size="12" lengthAdjust="spacing" textLength="93.1758" x="430.2676" y="195.3857">Open Input File</text><rect fill="#FFFFFF" height="34.584" rx="12.5" ry="12.5" style="stroke:#000000;stroke-width:1;" width="122.3047" x="415.7031" y="242.9053"/><text fill="#000000" font-family="Verdana" font-size="12" lengthAdjust="spacing" textLength="102.3047" x="425.7031" y="264.9697">Memory Map File</text><rect fill="#FFFFFF" height="34.584" rx="12.5" ry="12.5" style="stroke:#000000;stroke-width:1;" width="122.2988" x="596.7197" y="173.3213"/><text fill="#000000" font-family="Verdana" font-size="12" lengthAdjust="spacing" textLength="102.2988" x="606.7197" y="195.3857">Open Output File</text><rect fill="#FFFFFF" height="34.584" rx="12.5" ry="12.5" style="stroke:#000000;stroke-width:1;" width="183.7227" x="566.0078" y="242.9053"/><text fill="#000000" font-family="Verdana" font-size="12" lengthAdjust="spacing" textLength="163.7227" x="576.0078" y="264.9697">Prepare for Random Writes</text><rect fill="#000000" height="6" rx="2.5" ry="2.5" style="stroke:#000000;stroke-width:1;" width="555.4336" x="208.2969" y="297.4893"/><path d="M584.9932,319.9819 L584.9932,336.7813 L564.9932,340.7813 L584.9932,344.7813 L584.9932,361.5806 A0,0 0 0 0 584.9932,361.5806 L853.0059,361.5806 A0,0 0 0 0 853.0059,361.5806 L853.0059,329.9819 L843.0059,319.9819 L584.9932,319.9819 A0,0 0 0 0 584.9932,319.9819" fill="#FFFFFF" style="stroke:#000000;stroke-width:1;"/><path d="M843.0059,319.9819 L843.0059,329.9819 L853.0059,329.9819 L843.0059,319.9819" fill="#FFFFFF" style="stroke:#000000;stroke-width:1;"/><text fill="#000000" font-family="Verdana" font-size="13" lengthAdjust="spacing" textLength="247.0127" x="590.9932" y="338.0518">Total Chunks = File Size / Chunk Size</text><text fill="#000000" font-family="Verdana" font-size="13" lengthAdjust="spacing" textLength="212.5513" x="590.9932" y="353.8511">Chunks are processed in parallel</text><rect fill="#FFFFFF" height="34.584" rx="12.5" ry="12.5" style="stroke:#000000;stroke-width:1;" width="157.959" x="407.0342" y="323.4893"/><text fill="#000000" font-family="Verdana" font-size="12" lengthAdjust="spacing" textLength="137.959" x="417.0342" y="345.5537">Calculate Total Chunks</text><rect fill="#FFFFFF" height="34.584" rx="12.5" ry="12.5" style="stroke:#000000;stroke-width:1;" width="146.6797" x="412.6738" y="381.5806"/><text fill="#000000" font-family="Verdana" font-size="12" lengthAdjust="spacing" textLength="126.6797" x="422.6738" y="403.645">Initialize Thread Pool</text><rect fill="#FFFFFF" height="393.74" style="stroke:#000000;stroke-width:1;" width="960.0273" x="6" y="426.1646"/><path d="M185.0117,426.1646 L185.0117,436.1792 L175.0117,446.1792 L6,446.1792" fill="none" style="stroke:#000000;stroke-width:1;"/><text fill="#000000" font-family="Verdana" font-size="14" lengthAdjust="spacing" textLength="169.0117" x="9" y="441.2397">Parallel Processing Loop</text><rect fill="#000000" height="6" rx="2.5" ry="2.5" style="stroke:#000000;stroke-width:1;" width="904.0273" x="34" y="519.7383"/><rect fill="#FFFFFF" height="34.584" rx="12.5" ry="12.5" style="stroke:#000000;stroke-width:1;" width="169.3086" x="53.6846" y="545.7383"/><text fill="#000000" font-family="Verdana" font-size="12" lengthAdjust="spacing" textLength="149.3086" x="63.6846" y="567.8027">Thread 1: Read Chunk N</text><rect fill="#FFFFFF" height="34.584" rx="12.5" ry="12.5" style="stroke:#000000;stroke-width:1;" width="184.6777" x="46" y="600.3223"/><text fill="#000000" font-family="Verdana" font-size="12" lengthAdjust="spacing" textLength="164.6777" x="56" y="622.3867">Thread 1: Process Chunk N</text><rect fill="#FFFFFF" height="34.584" rx="12.5" ry="12.5" style="stroke:#000000;stroke-width:1;" width="171.2891" x="52.6943" y="667.2292"/><text fill="#000000" font-family="Verdana" font-size="12" lengthAdjust="spacing" textLength="151.2891" x="62.6943" y="689.2937">Thread 1: Write Chunk N</text><rect fill="#FFFFFF" height="34.584" rx="12.5" ry="12.5" style="stroke:#000000;stroke-width:1;" width="186.7578" x="266.3623" y="545.7383"/><text fill="#000000" font-family="Verdana" font-size="12" lengthAdjust="spacing" textLength="166.7578" x="276.3623" y="567.8027">Thread 2: Read Chunk N+1</text><rect fill="#FFFFFF" height="34.584" rx="12.5" ry="12.5" style="stroke:#000000;stroke-width:1;" width="202.127" x="258.6777" y="600.3223"/><text fill="#000000" font-family="Verdana" font-size="12" lengthAdjust="spacing" textLength="182.127" x="268.6777" y="622.3867">Thread 2: Process Chunk N+1</text><rect fill="#FFFFFF" height="34.584" rx="12.5" ry="12.5" style="stroke:#000000;stroke-width:1;" width="188.7383" x="265.3721" y="667.2292"/><text fill="#000000" font-family="Verdana" font-size="12" lengthAdjust="spacing" textLength="168.7383" x="275.3721" y="689.2937">Thread 2: Write Chunk N+1</text><rect fill="#FFFFFF" height="34.584" rx="12.5" ry="12.5" style="stroke:#000000;stroke-width:1;" width="186.7578" x="496.4893" y="545.7383"/><text fill="#000000" font-family="Verdana" font-size="12" lengthAdjust="spacing" textLength="166.7578" x="506.4893" y="567.8027">Thread 3: Read Chunk N+2</text><rect fill="#FFFFFF" height="34.584" rx="12.5" ry="12.5" style="stroke:#000000;stroke-width:1;" width="202.127" x="488.8047" y="600.3223"/><text fill="#000000" font-family="Verdana" font-size="12" lengthAdjust="spacing" textLength="182.127" x="498.8047" y="622.3867">Thread 3: Process Chunk N+2</text><rect fill="#FFFFFF" height="34.584" rx="12.5" ry="12.5" style="stroke:#000000;stroke-width:1;" width="188.7383" x="495.499" y="667.2292"/><text fill="#000000" font-family="Verdana" font-size="12" lengthAdjust="spacing" textLength="168.7383" x="505.499" y="689.2937">Thread 3: Write Chunk N+2</text><rect fill="#FFFFFF" height="34.584" rx="12.5" ry="12.5" style="stroke:#000000;stroke-width:1;" width="191.7266" x="726.6162" y="545.7383"/><text fill="#000000" font-family="Verdana" font-size="12" lengthAdjust="spacing" textLength="171.7266" x="736.6162" y="567.8027">Thread M: Read Chunk N+M</text><rect fill="#FFFFFF" height="34.584" rx="12.5" ry="12.5" style="stroke:#000000;stroke-width:1;" width="207.0957" x="718.9316" y="600.3223"/><text fill="#000000" font-family="Verdana" font-size="12" lengthAdjust="spacing" textLength="187.0957" x="728.9316" y="622.3867">Thread M: Process Chunk N+M</text><rect fill="#FFFFFF" height="34.584" rx="12.5" ry="12.5" style="stroke:#000000;stroke-width:1;" width="193.707" x="725.626" y="667.2292"/><text fill="#000000" font-family="Verdana" font-size="12" lengthAdjust="spacing" textLength="173.707" x="735.626" y="689.2937">Thread M: Write Chunk N+M</text><rect fill="#000000" height="6" rx="2.5" ry="2.5" style="stroke:#000000;stroke-width:1;" width="904.0273" x="34" y="721.8132"/><path d="M590.2607,744.3059 L590.2607,761.1052 L570.2607,765.1052 L590.2607,769.1052 L590.2607,785.9045 A0,0 0 0 0 590.2607,785.9045 L806.9844,785.9045 A0,0 0 0 0 806.9844,785.9045 L806.9844,754.3059 L796.9844,744.3059 L590.2607,744.3059 A0,0 0 0 0 590.2607,744.3059" fill="#FFFFFF" style="stroke:#000000;stroke-width:1;"/><path d="M796.9844,744.3059 L796.9844,754.3059 L806.9844,754.3059 L796.9844,744.3059" fill="#FFFFFF" style="stroke:#000000;stroke-width:1;"/><text fill="#000000" font-family="Verdana" font-size="13" lengthAdjust="spacing" textLength="195.7236" x="596.2607" y="762.3757">Thread-safe progress updates</text><text fill="#000000" font-family="Verdana" font-size="13" lengthAdjust="spacing" textLength="138.4932" x="596.2607" y="778.175">Real-time monitoring</text><rect fill="#FFFFFF" height="34.584" rx="12.5" ry="12.5" style="stroke:#000000;stroke-width:1;" width="168.4941" x="401.7666" y="747.8132"/><text fill="#000000" font-family="Verdana" font-size="12" lengthAdjust="spacing" textLength="148.4941" x="411.7666" y="769.8777">Update Progress Tracker</text><polygon fill="#FFFFFF" points="417.6987,463.1792,554.3286,463.1792,566.3286,475.1792,554.3286,487.1792,417.6987,487.1792,405.6987,475.1792,417.6987,463.1792" style="stroke:#000000;stroke-width:1;"/><text fill="#000000" font-family="Verdana" font-size="11" lengthAdjust="spacing" textLength="18.7935" x="490.0137" y="498.2383">yes</text><text fill="#000000" font-family="Verdana" font-size="11" lengthAdjust="spacing" textLength="136.6299" x="417.6987" y="479.554">More chunks to process?</text><text fill="#000000" font-family="Verdana" font-size="11" lengthAdjust="spacing" textLength="13.6372" x="392.0615" y="472.8696">no</text><rect fill="#FFFFFF" height="34.584" rx="12.5" ry="12.5" style="stroke:#000000;stroke-width:1;" width="139.3555" x="416.3359" y="839.9045"/><text fill="#000000" font-family="Verdana" font-size="12" lengthAdjust="spacing" textLength="119.3555" x="426.3359" y="861.969">Wait for All Threads</text><rect fill="#FFFFFF" height="34.584" rx="12.5" ry="12.5" style="stroke:#000000;stroke-width:1;" width="187.2148" x="392.4063" y="894.4885"/><text fill="#000000" font-family="Verdana" font-size="12" lengthAdjust="spacing" textLength="167.2148" x="402.4063" y="916.553">Verify All Chunks Processed</text><rect fill="#000000" height="6" rx="2.5" ry="2.5" style="stroke:#000000;stroke-width:1;" width="535.4238" x="218.3018" y="949.0725"/><rect fill="#FFFFFF" height="34.584" rx="12.5" ry="12.5" style="stroke:#000000;stroke-width:1;" width="113.8672" x="232.3018" y="975.0725"/><text fill="#000000" font-family="Verdana" font-size="12" lengthAdjust="spacing" textLength="93.8672" x="242.3018" y="997.137">Close Input File</text><rect fill="#FFFFFF" height="34.584" rx="12.5" ry="12.5" style="stroke:#000000;stroke-width:1;" width="185.334" x="374.1689" y="975.0725"/><text fill="#000000" font-family="Verdana" font-size="12" lengthAdjust="spacing" textLength="165.334" x="384.1689" y="997.137">Flush and Close Output File</text><rect fill="#FFFFFF" height="34.584" rx="12.5" ry="12.5" style="stroke:#000000;stroke-width:1;" width="152.2227" x="587.5029" y="975.0725"/><text fill="#000000" font-family="Verdana" font-size="12" lengthAdjust="spacing" textLength="132.2227" x="597.5029" y="997.137">Generate Final Report</text><rect fill="#000000" height="6" rx="2.5" ry="2.5" style="stroke:#000000;stroke-width:1;" width="535.4238" x="218.3018" y="1029.6565"/><rect fill="#FFFFFF" height="34.584" rx="12.5" ry="12.5" style="stroke:#000000;stroke-width:1;" width="112.7012" x="429.6631" y="1055.6565"/><text fill="#000000" font-family="Verdana" font-size="12" lengthAdjust="spacing" textLength="92.7012" x="439.6631" y="1077.7209">Return Success</text><ellipse cx="486.0137" cy="1121.2405" fill="none" rx="11" ry="11" style="stroke:#000000;stroke-width:1;"/><ellipse cx="486.0137" cy="1121.2405" fill="#FFFFFF" rx="6" ry="6" style="stroke:#000000;stroke-width:1;"/><line style="stroke:#000000;stroke-width:1;" x1="486.0137" x2="486.0137" y1="72.7373" y2="92.7373"/><polygon fill="#000000" points="482.0137,82.7373,486.0137,92.7373,490.0137,82.7373,486.0137,86.7373" style="stroke:#000000;stroke-width:1;"/><line style="stroke:#000000;stroke-width:1;" x1="476.8555" x2="476.8555" y1="207.9053" y2="242.9053"/><polygon fill="#000000" points="472.8555,232.9053,476.8555,242.9053,480.8555,232.9053,476.8555,236.9053" style="stroke:#000000;stroke-width:1;"/><line style="stroke:#000000;stroke-width:1;" x1="657.8691" x2="657.8691" y1="207.9053" y2="242.9053"/><polygon fill="#000000" points="653.8691,232.9053,657.8691,242.9053,661.8691,232.9053,657.8691,236.9053" style="stroke:#000000;stroke-width:1;"/><line style="stroke:#000000;stroke-width:1;" x1="305" x2="305" y1="153.3213" y2="208.1133"/><polygon fill="#000000" points="301,198.1133,305,208.1133,309,198.1133,305,202.1133" style="stroke:#000000;stroke-width:1;"/><line style="stroke:#000000;stroke-width:1;" x1="476.8555" x2="476.8555" y1="153.3213" y2="173.3213"/><polygon fill="#000000" points="472.8555,163.3213,476.8555,173.3213,480.8555,163.3213,476.8555,167.3213" style="stroke:#000000;stroke-width:1;"/><line style="stroke:#000000;stroke-width:1;" x1="657.8691" x2="657.8691" y1="153.3213" y2="173.3213"/><polygon fill="#000000" points="653.8691,163.3213,657.8691,173.3213,661.8691,163.3213,657.8691,167.3213" style="stroke:#000000;stroke-width:1;"/><line style="stroke:#000000;stroke-width:1;" x1="305" x2="305" y1="242.6973" y2="297.4893"/><polygon fill="#000000" points="301,287.4893,305,297.4893,309,287.4893,305,291.4893" style="stroke:#000000;stroke-width:1;"/><line style="stroke:#000000;stroke-width:1;" x1="476.8555" x2="476.8555" y1="277.4893" y2="297.4893"/><polygon fill="#000000" points="472.8555,287.4893,476.8555,297.4893,480.8555,287.4893,476.8555,291.4893" style="stroke:#000000;stroke-width:1;"/><line style="stroke:#000000;stroke-width:1;" x1="657.8691" x2="657.8691" y1="277.4893" y2="297.4893"/><polygon fill="#000000" points="653.8691,287.4893,657.8691,297.4893,661.8691,287.4893,657.8691,291.4893" style="stroke:#000000;stroke-width:1;"/><line style="stroke:#000000;stroke-width:1;" x1="486.0137" x2="486.0137" y1="127.3213" y2="147.3213"/><polygon fill="#000000" points="482.0137,137.3213,486.0137,147.3213,490.0137,137.3213,486.0137,141.3213" style="stroke:#000000;stroke-width:1;"/><line style="stroke:#000000;stroke-width:1;" x1="486.0137" x2="486.0137" y1="303.4893" y2="323.4893"/><polygon fill="#000000" points="482.0137,313.4893,486.0137,323.4893,490.0137,313.4893,486.0137,317.4893" style="stroke:#000000;stroke-width:1;"/><line style="stroke:#000000;stroke-width:1;" x1="486.0137" x2="486.0137" y1="358.0732" y2="381.5806"/><polygon fill="#000000" points="482.0137,371.5806,486.0137,381.5806,490.0137,371.5806,486.0137,375.5806" style="stroke:#000000;stroke-width:1;"/><line style="stroke:#000000;stroke-width:1;" x1="138.3389" x2="138.3389" y1="580.3223" y2="600.3223"/><polygon fill="#000000" points="134.3389,590.3223,138.3389,600.3223,142.3389,590.3223,138.3389,594.3223" style="stroke:#000000;stroke-width:1;"/><line style="stroke:#000000;stroke-width:1;" x1="138.3389" x2="138.3389" y1="634.9063" y2="667.2292"/><polygon fill="#000000" points="134.3389,657.2292,138.3389,667.2292,142.3389,657.2292,138.3389,661.2292" style="stroke:#000000;stroke-width:1;"/><line style="stroke:#000000;stroke-width:1;" x1="359.7412" x2="359.7412" y1="580.3223" y2="600.3223"/><polygon fill="#000000" points="355.7412,590.3223,359.7412,600.3223,363.7412,590.3223,359.7412,594.3223" style="stroke:#000000;stroke-width:1;"/><line style="stroke:#000000;stroke-width:1;" x1="359.7412" x2="359.7412" y1="634.9063" y2="667.2292"/><polygon fill="#000000" points="355.7412,657.2292,359.7412,667.2292,363.7412,657.2292,359.7412,661.2292" style="stroke:#000000;stroke-width:1;"/><line style="stroke:#000000;stroke-width:1;" x1="589.8682" x2="589.8682" y1="580.3223" y2="600.3223"/><polygon fill="#000000" points="585.8682,590.3223,589.8682,600.3223,593.8682,590.3223,589.8682,594.3223" style="stroke:#000000;stroke-width:1;"/><line style="stroke:#000000;stroke-width:1;" x1="589.8682" x2="589.8682" y1="634.9063" y2="667.2292"/><polygon fill="#000000" points="585.8682,657.2292,589.8682,667.2292,593.8682,657.2292,589.8682,661.2292" style="stroke:#000000;stroke-width:1;"/><line style="stroke:#000000;stroke-width:1;" x1="822.4795" x2="822.4795" y1="580.3223" y2="600.3223"/><polygon fill="#000000" points="818.4795,590.3223,822.4795,600.3223,826.4795,590.3223,822.4795,594.3223" style="stroke:#000000;stroke-width:1;"/><line style="stroke:#000000;stroke-width:1;" x1="822.4795" x2="822.4795" y1="634.9063" y2="667.2292"/><polygon fill="#000000" points="818.4795,657.2292,822.4795,667.2292,826.4795,657.2292,822.4795,661.2292" style="stroke:#000000;stroke-width:1;"/><line style="stroke:#000000;stroke-width:1;" x1="138.3389" x2="138.3389" y1="525.7383" y2="545.7383"/><polygon fill="#000000" points="134.3389,535.7383,138.3389,545.7383,142.3389,535.7383,138.3389,539.7383" style="stroke:#000000;stroke-width:1;"/><line style="stroke:#000000;stroke-width:1;" x1="359.7412" x2="359.7412" y1="525.7383" y2="545.7383"/><polygon fill="#000000" points="355.7412,535.7383,359.7412,545.7383,363.7412,535.7383,359.7412,539.7383" style="stroke:#000000;stroke-width:1;"/><line style="stroke:#000000;stroke-width:1;" x1="589.8682" x2="589.8682" y1="525.7383" y2="545.7383"/><polygon fill="#000000" points="585.8682,535.7383,589.8682,545.7383,593.8682,535.7383,589.8682,539.7383" style="stroke:#000000;stroke-width:1;"/><line style="stroke:#000000;stroke-width:1;" x1="822.4795" x2="822.4795" y1="525.7383" y2="545.7383"/><polygon fill="#000000" points="818.4795,535.7383,822.4795,545.7383,826.4795,535.7383,822.4795,539.7383" style="stroke:#000000;stroke-width:1;"/><line style="stroke:#000000;stroke-width:1;" x1="138.3389" x2="138.3389" y1="701.8132" y2="721.8132"/><polygon fill="#000000" points="134.3389,711.8132,138.3389,721.8132,142.3389,711.8132,138.3389,715.8132" style="stroke:#000000;stroke-width:1;"/><line style="stroke:#000000;stroke-width:1;" x1="359.7412" x2="359.7412" y1="701.8132" y2="721.8132"/><polygon fill="#000000" points="355.7412,711.8132,359.7412,721.8132,363.7412,711.8132,359.7412,715.8132" style="stroke:#000000;stroke-width:1;"/><line style="stroke:#000000;stroke-width:1;" x1="589.8682" x2="589.8682" y1="701.8132" y2="721.8132"/><polygon fill="#000000" points="585.8682,711.8132,589.8682,721.8132,593.8682,711.8132,589.8682,715.8132" style="stroke:#000000;stroke-width:1;"/><line style="stroke:#000000;stroke-width:1;" x1="822.4795" x2="822.4795" y1="701.8132" y2="721.8132"/><polygon fill="#000000" points="818.4795,711.8132,822.4795,721.8132,826.4795,711.8132,822.4795,715.8132" style="stroke:#000000;stroke-width:1;"/><line style="stroke:#000000;stroke-width:1;" x1="486.0137" x2="486.0137" y1="727.8132" y2="747.8132"/><polygon fill="#000000" points="482.0137,737.8132,486.0137,747.8132,490.0137,737.8132,486.0137,741.8132" style="stroke:#000000;stroke-width:1;"/><line style="stroke:#000000;stroke-width:1;" x1="486.0137" x2="486.0137" y1="487.1792" y2="519.7383"/><polygon fill="#000000" points="482.0137,509.7383,486.0137,519.7383,490.0137,509.7383,486.0137,513.7383" style="stroke:#000000;stroke-width:1;"/><line style="stroke:#000000;stroke-width:1;" x1="486.0137" x2="486.0137" y1="782.3972" y2="795.9045"/><line style="stroke:#000000;stroke-width:1;" x1="486.0137" x2="950.0273" y1="795.9045" y2="795.9045"/><polygon fill="#000000" points="946.0273,647.2292,950.0273,637.2292,954.0273,647.2292,950.0273,643.2292" style="stroke:#000000;stroke-width:1;"/><line style="stroke:#000000;stroke-width:1;" x1="950.0273" x2="950.0273" y1="475.1792" y2="795.9045"/><line style="stroke:#000000;stroke-width:1;" x1="950.0273" x2="566.3286" y1="475.1792" y2="475.1792"/><polygon fill="#000000" points="576.3286,471.1792,566.3286,475.1792,576.3286,479.1792,572.3286,475.1792" style="stroke:#000000;stroke-width:1;"/><line style="stroke:#000000;stroke-width:1;" x1="405.6987" x2="22" y1="475.1792" y2="475.1792"/><polygon fill="#000000" points="18,633.2292,22,643.2292,26,633.2292,22,637.2292" style="stroke:#000000;stroke-width:1;"/><line style="stroke:#000000;stroke-width:1;" x1="22" x2="22" y1="475.1792" y2="807.9045"/><line style="stroke:#000000;stroke-width:1;" x1="22" x2="486.0137" y1="807.9045" y2="807.9045"/><line style="stroke:#000000;stroke-width:1;" x1="486.0137" x2="486.0137" y1="807.9045" y2="839.9045"/><polygon fill="#000000" points="482.0137,829.9045,486.0137,839.9045,490.0137,829.9045,486.0137,833.9045" style="stroke:#000000;stroke-width:1;"/><line style="stroke:#000000;stroke-width:1;" x1="486.0137" x2="486.0137" y1="416.1646" y2="463.1792"/><polygon fill="#000000" points="482.0137,453.1792,486.0137,463.1792,490.0137,453.1792,486.0137,457.1792" style="stroke:#000000;stroke-width:1;"/><line style="stroke:#000000;stroke-width:1;" x1="486.0137" x2="486.0137" y1="874.4885" y2="894.4885"/><polygon fill="#000000" points="482.0137,884.4885,486.0137,894.4885,490.0137,884.4885,486.0137,888.4885" style="stroke:#000000;stroke-width:1;"/><line style="stroke:#000000;stroke-width:1;" x1="289.2354" x2="289.2354" y1="955.0725" y2="975.0725"/><polygon fill="#000000" points="285.2354,965.0725,289.2354,975.0725,293.2354,965.0725,289.2354,969.0725" style="stroke:#000000;stroke-width:1;"/><line style="stroke:#000000;stroke-width:1;" x1="466.8359" x2="466.8359" y1="955.0725" y2="975.0725"/><polygon fill="#000000" points="462.8359,965.0725,466.8359,975.0725,470.8359,965.0725,466.8359,969.0725" style="stroke:#000000;stroke-width:1;"/><line style="stroke:#000000;stroke-width:1;" x1="663.6143" x2="663.6143" y1="955.0725" y2="975.0725"/><polygon fill="#000000" points="659.6143,965.0725,663.6143,975.0725,667.6143,965.0725,663.6143,969.0725" style="stroke:#000000;stroke-width:1;"/><line style="stroke:#000000;stroke-width:1;" x1="289.2354" x2="289.2354" y1="1009.6565" y2="1029.6565"/><polygon fill="#000000" points="285.2354,1019.6565,289.2354,1029.6565,293.2354,1019.6565,289.2354,1023.6565" style="stroke:#000000;stroke-width:1;"/><line style="stroke:#000000;stroke-width:1;" x1="466.8359" x2="466.8359" y1="1009.6565" y2="1029.6565"/><polygon fill="#000000" points="462.8359,1019.6565,466.8359,1029.6565,470.8359,1019.6565,466.8359,1023.6565" style="stroke:#000000;stroke-width:1;"/><line style="stroke:#000000;stroke-width:1;" x1="663.6143" x2="663.6143" y1="1009.6565" y2="1029.6565"/><polygon fill="#000000" points="659.6143,1019.6565,663.6143,1029.6565,667.6143,1019.6565,663.6143,1023.6565" style="stroke:#000000;stroke-width:1;"/><line style="stroke:#000000;stroke-width:1;" x1="486.0137" x2="486.0137" y1="929.0725" y2="949.0725"/><polygon fill="#000000" points="482.0137,939.0725,486.0137,949.0725,490.0137,939.0725,486.0137,943.0725" style="stroke:#000000;stroke-width:1;"/><line style="stroke:#000000;stroke-width:1;" x1="486.0137" x2="486.0137" y1="1035.6565" y2="1055.6565"/><polygon fill="#000000" points="482.0137,1045.6565,486.0137,1055.6565,490.0137,1045.6565,486.0137,1049.6565" style="stroke:#000000;stroke-width:1;"/><line style="stroke:#000000;stroke-width:1;" x1="486.0137" x2="486.0137" y1="1090.2405" y2="1110.2405"/><polygon fill="#000000" points="482.0137,1100.2405,486.0137,1110.2405,490.0137,1100.2405,486.0137,1104.2405" style="stroke:#000000;stroke-width:1;"/><!--SRC=[XPHHZn8n4CVV-od6UpfYY3byOsFC1OEvnFK8XtVFpJAm3TssjhCQD7vtfzs2553t1RRpx_ncf_FlAsgnGt1QAYD8aKPOI2-rHWspjZSxM7ZRO0ZAR64CzmsfRuhsy479hPUT486a9o6cCwtG47ZyscEW01l5gTnnRoN4nlgT09ZEF4h2c7VhEGWhBviT-Ye9G6vZ9InxT6ZWmRYUOCwvghXMOsVz7chfyjgLBOyz5NiM7ftq22o5fJHhsy6BLuIX4cZMaAhYygLkUXthMbcI-TjPOYmlURLjYNETXk1TGi2J-e7m9lSglh0kAo8rTm3Ne0outDa4ZfaP_60KAQbZbbNBdLd3mbhDxM8nduUo1cwE9t9o5f-iTJVmasdVsrZ7RMqPrmnaiWVm-n6e0BTx32EM0kH3YCyqy-wci8o_moTyhYx36ViFHUfe6I-EvbG-ANclxwfBmHdnggPW7XH_fRuzeqwgIy4vzPgcf4x-GwtFg7LrAJYdNjEKrApuCxv9_SMjh_igHeivZi-GUnpa9WtfiALFAKAMSELwJ8glXyxob5hFStS43-ER_kS1D7OaVl54lqX5oMttMcSC6sdwZ5vjzcan-sDnyCRfvQ1jmCBsfSNdkWyji8rXK1PkBwKVqQ2F7PahmxPTehEU2jClaNfluAblOXrLlCoi4xy1]--></g></svg>
