<svg xmlns="http://www.w3.org/2000/svg" xmlns:xlink="http://www.w3.org/1999/xlink" contentStyleType="text/css" data-diagram-type="DESCRIPTION" height="934px" preserveAspectRatio="none" style="width:2474px;height:934px;background:#FFFFFF;" version="1.1" viewBox="0 0 2474 934" width="2474px" zoomAndPan="magnify"><title>Pipelib Architecture Overview - DDD/Clean/Hexagonal Architecture</title><defs/><g><g class="title" data-source-line="2"><text fill="#000000" font-family="Verdana" font-size="22" font-weight="bold" lengthAdjust="spacing" textLength="839.0293" x="813.3404" y="37.1182">Pipelib Architecture Overview - DDD/Clean/Hexagonal Architecture</text></g><!--cluster Presentation Layer--><g class="cluster" data-entity="Presentation Layer" data-source-line="12" data-uid="ent0002" id="cluster_Presentation Layer"><path d="M1986.21,58.7373 L2136.2061,58.7373 A3.75,3.75 0 0 1 2138.7061,61.2373 L2145.7061,81.752 L2272.21,81.752 A2.5,2.5 0 0 1 2274.71,84.252 L2274.71,162.2473 A2.5,2.5 0 0 1 2272.21,164.7473 L1986.21,164.7473 A2.5,2.5 0 0 1 1983.71,162.2473 L1983.71,61.2373 A2.5,2.5 0 0 1 1986.21,58.7373" fill="#FFFFFF" style="stroke:#000000;stroke-width:1;"/><line style="stroke:#000000;stroke-width:1;" x1="1983.71" x2="2145.7061" y1="81.752" y2="81.752"/><text fill="#000000" font-family="Verdana" font-size="14" font-weight="bold" lengthAdjust="spacing" textLength="148.9961" x="1987.71" y="74.8125">Presentation Layer</text><text fill="#000000" font-family="Verdana" font-size="14" font-style="italic" lengthAdjust="spacing" textLength="79.543" x="2093.4385" y="97.8271">&#171;interface&#187;</text></g><!--cluster Application Layer--><g class="cluster" data-entity="Application Layer" data-source-line="17" data-uid="ent0005" id="cluster_Application Layer"><path d="M2041.21,213.7473 L2178.9903,213.7473 A3.75,3.75 0 0 1 2181.4903,216.2473 L2188.4903,236.762 L2465.21,236.762 A2.5,2.5 0 0 1 2467.71,239.262 L2467.71,540.4673 A2.5,2.5 0 0 1 2465.21,542.9673 L2041.21,542.9673 A2.5,2.5 0 0 1 2038.71,540.4673 L2038.71,216.2473 A2.5,2.5 0 0 1 2041.21,213.7473" fill="#FFFFFF" style="stroke:#000000;stroke-width:1;"/><line style="stroke:#000000;stroke-width:1;" x1="2038.71" x2="2188.4903" y1="236.762" y2="236.762"/><text fill="#000000" font-family="Verdana" font-size="14" font-weight="bold" lengthAdjust="spacing" textLength="136.7803" x="2042.71" y="229.8225">Application Layer</text><text fill="#000000" font-family="Verdana" font-size="14" font-style="italic" lengthAdjust="spacing" textLength="43.9004" x="2235.2598" y="252.8371">&#171;app&#187;</text></g><!--cluster Domain Layer (Core)--><g class="cluster" data-entity="Domain Layer .Core." data-source-line="23" data-uid="ent0009" id="cluster_Domain Layer .Core."><path d="M993.21,384.9573 L1158.792,384.9573 A3.75,3.75 0 0 1 1161.292,387.4573 L1168.292,407.972 L2004.21,407.972 A2.5,2.5 0 0 1 2006.71,410.472 L2006.71,925.4973 A2.5,2.5 0 0 1 2004.21,927.9973 L993.21,927.9973 A2.5,2.5 0 0 1 990.71,925.4973 L990.71,387.4573 A2.5,2.5 0 0 1 993.21,384.9573" fill="#FFFFFF" style="stroke:#000000;stroke-width:1;"/><line style="stroke:#000000;stroke-width:1;" x1="990.71" x2="1168.292" y1="407.972" y2="407.972"/><text fill="#000000" font-family="Verdana" font-size="14" font-weight="bold" lengthAdjust="spacing" textLength="164.582" x="994.71" y="401.0325">Domain Layer (Core)</text><text fill="#000000" font-family="Verdana" font-size="14" font-style="italic" lengthAdjust="spacing" textLength="48.1523" x="1478.6338" y="424.0471">&#171;core&#187;</text></g><!--cluster Entities--><g class="cluster" data-entity="Entities" data-source-line="24" data-uid="ent0010" id="cluster_Entities"><path d="M1680.21,453.9573 L1740.6758,453.9573 A3.75,3.75 0 0 1 1743.1758,456.4573 L1750.1758,476.972 L1972.21,476.972 A2.5,2.5 0 0 1 1974.71,479.472 L1974.71,540.4673 A2.5,2.5 0 0 1 1972.21,542.9673 L1680.21,542.9673 A2.5,2.5 0 0 1 1677.71,540.4673 L1677.71,456.4573 A2.5,2.5 0 0 1 1680.21,453.9573" fill="#FFFFFF" style="stroke:#000000;stroke-width:1;"/><line style="stroke:#000000;stroke-width:1;" x1="1677.71" x2="1750.1758" y1="476.972" y2="476.972"/><text fill="#000000" font-family="Verdana" font-size="14" font-weight="bold" lengthAdjust="spacing" textLength="59.4658" x="1681.71" y="470.0325">Entities</text></g><!--cluster Value Objects--><g class="cluster" data-entity="Value Objects" data-source-line="29" data-uid="ent0013" id="cluster_Value Objects"><path d="M1046.21,668.9673 L1155.6416,668.9673 A3.75,3.75 0 0 1 1158.1416,671.4673 L1165.1416,691.982 L1565.21,691.982 A2.5,2.5 0 0 1 1567.71,694.482 L1567.71,755.4873 A2.5,2.5 0 0 1 1565.21,757.9873 L1046.21,757.9873 A2.5,2.5 0 0 1 1043.71,755.4873 L1043.71,671.4673 A2.5,2.5 0 0 1 1046.21,668.9673" fill="#FFFFFF" style="stroke:#000000;stroke-width:1;"/><line style="stroke:#000000;stroke-width:1;" x1="1043.71" x2="1165.1416" y1="691.982" y2="691.982"/><text fill="#000000" font-family="Verdana" font-size="14" font-weight="bold" lengthAdjust="spacing" textLength="108.4316" x="1047.71" y="685.0425">Value Objects</text></g><!--cluster Domain Services--><g class="cluster" data-entity="Domain Services" data-source-line="36" data-uid="ent0018" id="cluster_Domain Services"><path d="M1594.21,668.9673 L1726.0772,668.9673 A3.75,3.75 0 0 1 1728.5772,671.4673 L1735.5772,691.982 L1972.21,691.982 A2.5,2.5 0 0 1 1974.71,694.482 L1974.71,893.4973 A2.5,2.5 0 0 1 1972.21,895.9973 L1594.21,895.9973 A2.5,2.5 0 0 1 1591.71,893.4973 L1591.71,671.4673 A2.5,2.5 0 0 1 1594.21,668.9673" fill="#FFFFFF" style="stroke:#000000;stroke-width:1;"/><line style="stroke:#000000;stroke-width:1;" x1="1591.71" x2="1735.5772" y1="691.982" y2="691.982"/><text fill="#000000" font-family="Verdana" font-size="14" font-weight="bold" lengthAdjust="spacing" textLength="130.8672" x="1595.71" y="685.0425">Domain Services</text></g><!--cluster Ports (Interfaces)--><g class="cluster" data-entity="Ports .Interfaces." data-source-line="42" data-uid="ent0022" id="cluster_Ports .Interfaces."><path d="M1033.21,453.9573 L1177.0811,453.9573 A3.75,3.75 0 0 1 1179.5811,456.4573 L1186.5811,476.972 L1651.21,476.972 A2.5,2.5 0 0 1 1653.71,479.472 L1653.71,540.4673 A2.5,2.5 0 0 1 1651.21,542.9673 L1033.21,542.9673 A2.5,2.5 0 0 1 1030.71,540.4673 L1030.71,456.4573 A2.5,2.5 0 0 1 1033.21,453.9573" fill="#FFFFFF" style="stroke:#000000;stroke-width:1;"/><line style="stroke:#000000;stroke-width:1;" x1="1030.71" x2="1186.5811" y1="476.972" y2="476.972"/><text fill="#000000" font-family="Verdana" font-size="14" font-weight="bold" lengthAdjust="spacing" textLength="142.8711" x="1034.71" y="470.0325">Ports (Interfaces)</text></g><!--cluster Infrastructure Layer--><g class="cluster" data-entity="Infrastructure Layer" data-source-line="49" data-uid="ent0026" id="cluster_Infrastructure Layer"><path d="M311.21,599.9673 L472.9366,599.9673 A3.75,3.75 0 0 1 475.4366,602.4673 L482.4366,622.982 L948.21,622.982 A2.5,2.5 0 0 1 950.71,625.482 L950.71,925.4973 A2.5,2.5 0 0 1 948.21,927.9973 L311.21,927.9973 A2.5,2.5 0 0 1 308.71,925.4973 L308.71,602.4673 A2.5,2.5 0 0 1 311.21,599.9673" fill="#FFFFFF" style="stroke:#000000;stroke-width:1;"/><line style="stroke:#000000;stroke-width:1;" x1="308.71" x2="482.4366" y1="622.982" y2="622.982"/><text fill="#000000" font-family="Verdana" font-size="14" font-weight="bold" lengthAdjust="spacing" textLength="160.7266" x="312.71" y="616.0425">Infrastructure Layer</text><text fill="#000000" font-family="Verdana" font-size="14" font-style="italic" lengthAdjust="spacing" textLength="50.0527" x="608.6836" y="639.0571">&#171;infra&#187;</text></g><!--cluster I/O Adapters--><g class="cluster" data-entity="I.O Adapters" data-source-line="50" data-uid="ent0027" id="cluster_I.O Adapters"><path d="M351.21,668.9673 L456.9297,668.9673 A3.75,3.75 0 0 1 459.4297,671.4673 L466.4297,691.982 L916.21,691.982 A2.5,2.5 0 0 1 918.71,694.482 L918.71,755.4873 A2.5,2.5 0 0 1 916.21,757.9873 L351.21,757.9873 A2.5,2.5 0 0 1 348.71,755.4873 L348.71,671.4673 A2.5,2.5 0 0 1 351.21,668.9673" fill="#FFFFFF" style="stroke:#000000;stroke-width:1;"/><line style="stroke:#000000;stroke-width:1;" x1="348.71" x2="466.4297" y1="691.982" y2="691.982"/><text fill="#000000" font-family="Verdana" font-size="14" font-weight="bold" lengthAdjust="spacing" textLength="104.7197" x="352.71" y="685.0425">I/O Adapters</text></g><!--cluster External Services--><g class="cluster" data-entity="External Services" data-source-line="56" data-uid="ent0031" id="cluster_External Services"><path d="M397.21,806.9873 L534.5938,806.9873 A3.75,3.75 0 0 1 537.0938,809.4873 L544.0938,830.002 L729.21,830.002 A2.5,2.5 0 0 1 731.71,832.502 L731.71,893.4973 A2.5,2.5 0 0 1 729.21,895.9973 L397.21,895.9973 A2.5,2.5 0 0 1 394.71,893.4973 L394.71,809.4873 A2.5,2.5 0 0 1 397.21,806.9873" fill="#FFFFFF" style="stroke:#000000;stroke-width:1;"/><line style="stroke:#000000;stroke-width:1;" x1="394.71" x2="544.0938" y1="830.002" y2="830.002"/><text fill="#000000" font-family="Verdana" font-size="14" font-weight="bold" lengthAdjust="spacing" textLength="136.3838" x="398.71" y="823.0625">External Services</text></g><!--entity CLI--><g class="entity" data-entity="CLI" data-source-line="13" data-uid="ent0003" id="entity_CLI"><rect fill="#FFFFFF" height="37.0146" rx="2.5" ry="2.5" style="stroke:#000000;stroke-width:1;" width="111.9297" x="1999.75" y="111.7373"/><text fill="#000000" font-family="Verdana" font-size="14" lengthAdjust="spacing" textLength="91.9297" x="2009.75" y="135.8125">CLI Interface</text></g><!--entity API--><g class="entity" data-entity="API" data-source-line="14" data-uid="ent0004" id="entity_API"><rect fill="#FFFFFF" height="37.0146" rx="2.5" ry="2.5" style="stroke:#000000;stroke-width:1;" width="112.374" x="2146.52" y="111.7373"/><text fill="#000000" font-family="Verdana" font-size="14" lengthAdjust="spacing" textLength="92.374" x="2156.52" y="135.8125">API Interface</text></g><!--entity Orchestrator--><g class="entity" data-entity="Orchestrator" data-source-line="18" data-uid="ent0006" id="entity_Orchestrator"><rect fill="#FFFFFF" height="37.0146" rx="2.5" ry="2.5" style="stroke:#000000;stroke-width:1;" width="167.8203" x="2054.8" y="266.7473"/><text fill="#000000" font-family="Verdana" font-size="14" lengthAdjust="spacing" textLength="147.8203" x="2064.8" y="290.8225">Pipeline Orchestrator</text></g><!--entity ParallelProc--><g class="entity" data-entity="ParallelProc" data-source-line="19" data-uid="ent0007" id="entity_ParallelProc"><rect fill="#FFFFFF" height="37.0146" rx="2.5" ry="2.5" style="stroke:#000000;stroke-width:1;" width="193.1885" x="2258.12" y="266.7473"/><text fill="#000000" font-family="Verdana" font-size="14" lengthAdjust="spacing" textLength="173.1885" x="2268.12" y="290.8225">Parallel Chunk Processor</text></g><!--entity Factory--><g class="entity" data-entity="Factory" data-source-line="20" data-uid="ent0008" id="entity_Factory"><rect fill="#FFFFFF" height="37.0146" rx="2.5" ry="2.5" style="stroke:#000000;stroke-width:1;" width="131.1729" x="2073.12" y="489.9573"/><text fill="#000000" font-family="Verdana" font-size="14" lengthAdjust="spacing" textLength="111.1729" x="2083.12" y="514.0325">Pipeline Factory</text></g><!--entity Chunk--><g class="entity" data-entity="Chunk" data-source-line="25" data-uid="ent0011" id="entity_Chunk"><rect fill="#FFFFFF" height="37.0146" rx="2.5" ry="2.5" style="stroke:#000000;stroke-width:1;" width="110.4326" x="1693.49" y="489.9573"/><text fill="#000000" font-family="Verdana" font-size="14" lengthAdjust="spacing" textLength="90.4326" x="1703.49" y="514.0325">Chunk Entity</text></g><!--entity Pipeline--><g class="entity" data-entity="Pipeline" data-source-line="26" data-uid="ent0012" id="entity_Pipeline"><rect fill="#FFFFFF" height="37.0146" rx="2.5" ry="2.5" style="stroke:#000000;stroke-width:1;" width="120.0234" x="1838.7" y="489.9573"/><text fill="#000000" font-family="Verdana" font-size="14" lengthAdjust="spacing" textLength="100.0234" x="1848.7" y="514.0325">Pipeline Entity</text></g><!--entity FileChunk--><g class="entity" data-entity="FileChunk" data-source-line="30" data-uid="ent0014" id="entity_FileChunk"><rect fill="#FFFFFF" height="37.0146" rx="2.5" ry="2.5" style="stroke:#000000;stroke-width:1;" width="93.6299" x="1059.9" y="704.9673"/><text fill="#000000" font-family="Verdana" font-size="14" lengthAdjust="spacing" textLength="73.6299" x="1069.9" y="729.0425">File Chunk</text></g><!--entity ChunkSize--><g class="entity" data-entity="ChunkSize" data-source-line="31" data-uid="ent0015" id="entity_ChunkSize"><rect fill="#FFFFFF" height="37.0146" rx="2.5" ry="2.5" style="stroke:#000000;stroke-width:1;" width="98.668" x="1188.38" y="704.9673"/><text fill="#000000" font-family="Verdana" font-size="14" lengthAdjust="spacing" textLength="78.668" x="1198.38" y="729.0425">Chunk Size</text></g><!--entity Algorithm--><g class="entity" data-entity="Algorithm" data-source-line="32" data-uid="ent0016" id="entity_Algorithm"><rect fill="#FFFFFF" height="37.0146" rx="2.5" ry="2.5" style="stroke:#000000;stroke-width:1;" width="88.4414" x="1322.49" y="704.9673"/><text fill="#000000" font-family="Verdana" font-size="14" lengthAdjust="spacing" textLength="68.4414" x="1332.49" y="729.0425">Algorithm</text></g><!--entity StageOrder--><g class="entity" data-entity="StageOrder" data-source-line="33" data-uid="ent0017" id="entity_StageOrder"><rect fill="#FFFFFF" height="37.0146" rx="2.5" ry="2.5" style="stroke:#000000;stroke-width:1;" width="105.5107" x="1445.96" y="704.9673"/><text fill="#000000" font-family="Verdana" font-size="14" lengthAdjust="spacing" textLength="85.5107" x="1455.96" y="729.0425">Stage Order</text></g><!--entity Progress--><g class="entity" data-entity="Progress" data-source-line="37" data-uid="ent0019" id="entity_Progress"><rect fill="#FFFFFF" height="37.0146" rx="2.5" ry="2.5" style="stroke:#000000;stroke-width:1;" width="138.3643" x="1607.53" y="704.9673"/><text fill="#000000" font-family="Verdana" font-size="14" lengthAdjust="spacing" textLength="118.3643" x="1617.53" y="729.0425">Progress Tracker</text></g><!--entity StageInterface--><g class="entity" data-entity="StageInterface" data-source-line="38" data-uid="ent0020" id="entity_StageInterface"><rect fill="#FFFFFF" height="37.0146" rx="2.5" ry="2.5" style="stroke:#000000;stroke-width:1;" width="129.0264" x="1822.2" y="842.9873"/><text fill="#000000" font-family="Verdana" font-size="14" lengthAdjust="spacing" textLength="109.0264" x="1832.2" y="867.0625">Stage Interface</text></g><!--entity GenericStage--><g class="entity" data-entity="GenericStage" data-source-line="39" data-uid="ent0021" id="entity_GenericStage"><rect fill="#FFFFFF" height="37.0146" rx="2.5" ry="2.5" style="stroke:#000000;stroke-width:1;" width="178.1357" x="1780.64" y="704.9673"/><text fill="#000000" font-family="Verdana" font-size="14" lengthAdjust="spacing" textLength="158.1357" x="1790.64" y="729.0425">Generic Pipeline Stage</text></g><!--entity ReaderPort--><g class="entity" data-entity="ReaderPort" data-source-line="43" data-uid="ent0023" id="entity_ReaderPort"><rect fill="#FFFFFF" height="37.0146" rx="2.5" ry="2.5" style="stroke:#000000;stroke-width:1;" width="166.9795" x="1242.22" y="489.9573"/><text fill="#000000" font-family="Verdana" font-size="14" lengthAdjust="spacing" textLength="146.9795" x="1252.22" y="514.0325">File Reader Interface</text></g><!--entity WriterPort--><g class="entity" data-entity="WriterPort" data-source-line="44" data-uid="ent0024" id="entity_WriterPort"><rect fill="#FFFFFF" height="37.0146" rx="2.5" ry="2.5" style="stroke:#000000;stroke-width:1;" width="160.9502" x="1046.24" y="489.9573"/><text fill="#000000" font-family="Verdana" font-size="14" lengthAdjust="spacing" textLength="140.9502" x="1056.24" y="514.0325">File Writer Interface</text></g><!--entity ChunkPort--><g class="entity" data-entity="ChunkPort" data-source-line="45" data-uid="ent0025" id="entity_ChunkPort"><rect fill="#FFFFFF" height="37.0146" rx="2.5" ry="2.5" style="stroke:#000000;stroke-width:1;" width="193.2842" x="1444.07" y="489.9573"/><text fill="#000000" font-family="Verdana" font-size="14" lengthAdjust="spacing" textLength="173.2842" x="1454.07" y="514.0325">Chunk Adapter Interface</text></g><!--entity MMFile--><g class="entity" data-entity="MMFile" data-source-line="51" data-uid="ent0028" id="entity_MMFile"><rect fill="#FFFFFF" height="37.0146" rx="2.5" ry="2.5" style="stroke:#000000;stroke-width:1;" width="165.1406" x="549.14" y="704.9673"/><text fill="#000000" font-family="Verdana" font-size="14" lengthAdjust="spacing" textLength="145.1406" x="559.14" y="729.0425">Memory Mapped File</text></g><!--entity RWFile--><g class="entity" data-entity="RWFile" data-source-line="52" data-uid="ent0029" id="entity_RWFile"><rect fill="#FFFFFF" height="37.0146" rx="2.5" ry="2.5" style="stroke:#000000;stroke-width:1;" width="149.2676" x="365.08" y="704.9673"/><text fill="#000000" font-family="Verdana" font-size="14" lengthAdjust="spacing" textLength="129.2676" x="375.08" y="729.0425">Random Write File</text></g><!--entity MMAdapter--><g class="entity" data-entity="MMAdapter" data-source-line="53" data-uid="ent0030" id="entity_MMAdapter"><rect fill="#FFFFFF" height="37.0146" rx="2.5" ry="2.5" style="stroke:#000000;stroke-width:1;" width="153.335" x="749.04" y="704.9673"/><text fill="#000000" font-family="Verdana" font-size="14" lengthAdjust="spacing" textLength="133.335" x="759.04" y="729.0425">MM Chunk Adapter</text></g><!--entity FS--><g class="entity" data-entity="FS" data-source-line="57" data-uid="ent0032" id="entity_FS"><rect fill="#FFFFFF" height="37.0146" rx="2.5" ry="2.5" style="stroke:#000000;stroke-width:1;" width="101.6143" x="410.9" y="842.9873"/><text fill="#000000" font-family="Verdana" font-size="14" lengthAdjust="spacing" textLength="81.6143" x="420.9" y="867.0625">File System</text></g><!--entity OSMem--><g class="entity" data-entity="OSMem" data-source-line="58" data-uid="ent0033" id="entity_OSMem"><rect fill="#FFFFFF" height="37.0146" rx="2.5" ry="2.5" style="stroke:#000000;stroke-width:1;" width="167.458" x="547.98" y="842.9873"/><text fill="#000000" font-family="Verdana" font-size="14" lengthAdjust="spacing" textLength="147.458" x="557.98" y="867.0625">OS Memory Manager</text></g><g class="entity" data-entity="GMN51" data-source-line="90" data-uid="ent0052" id="entity_GMN51"><path d="M870.42,256.5573 L870.42,313.9553 L1126.9942,313.9553 L1126.9942,266.5573 L1116.9942,256.5573 L870.42,256.5573" fill="#FFFFFF" style="stroke:#000000;stroke-width:1;"/><path d="M1116.9942,256.5573 L1116.9942,266.5573 L1126.9942,266.5573 L1116.9942,256.5573" fill="#FFFFFF" style="stroke:#000000;stroke-width:1;"/><text fill="#000000" font-family="Verdana" font-size="13" lengthAdjust="spacing" textLength="125.4805" x="876.42" y="274.6271">Core business logic</text><text fill="#000000" font-family="Verdana" font-size="13" lengthAdjust="spacing" textLength="214.519" x="876.42" y="290.4264">No dependencies on outer layers</text><text fill="#000000" font-family="Verdana" font-size="13" lengthAdjust="spacing" textLength="235.5742" x="876.42" y="306.2258">Pure Ada, no external dependencies</text></g><g class="entity" data-entity="GMN54" data-source-line="96" data-uid="ent0055" id="entity_GMN54"><path d="M11,832.7873 L11,890.1853 L284.4209,890.1853 L284.4209,842.7873 L274.4209,832.7873 L11,832.7873" fill="#FFFFFF" style="stroke:#000000;stroke-width:1;"/><path d="M274.4209,832.7873 L274.4209,842.7873 L284.4209,842.7873 L274.4209,832.7873" fill="#FFFFFF" style="stroke:#000000;stroke-width:1;"/><text fill="#000000" font-family="Verdana" font-size="13" lengthAdjust="spacing" textLength="174.0146" x="17" y="850.8571">Technical implementations</text><text fill="#000000" font-family="Verdana" font-size="13" lengthAdjust="spacing" textLength="200.5605" x="17" y="866.6564">Depends on Domain interfaces</text><text fill="#000000" font-family="Verdana" font-size="13" lengthAdjust="spacing" textLength="252.4209" x="17" y="882.4558">Can be replaced without affecting core</text></g><!--link CLI to Orchestrator--><g class="link" data-entity-1="CLI" data-entity-2="Orchestrator" data-source-line="63" data-uid="lnk34" id="link_CLI_Orchestrator"><path d="M2065.39,149.0873 C2081.39,178.5773 2110.2796,231.833 2126.2296,261.243" fill="none" id="CLI-to-Orchestrator" style="stroke:#000000;stroke-width:1;"/><polygon fill="#000000" points="2129.09,266.5173,2128.3156,256.6989,2126.7063,262.1221,2121.2832,260.5128,2129.09,266.5173" style="stroke:#000000;stroke-width:1;"/><text fill="#000000" font-family="Verdana" font-size="13" lengthAdjust="spacing" textLength="29.5166" x="2090.78" y="194.8171">uses</text></g><!--link API to Orchestrator--><g class="link" data-entity-1="API" data-entity-2="Orchestrator" data-source-line="64" data-uid="lnk35" id="link_API_Orchestrator"><path d="M2195.24,149.0873 C2182.91,178.5773 2160.745,231.5719 2148.445,260.9819" fill="none" id="API-to-Orchestrator" style="stroke:#000000;stroke-width:1;"/><polygon fill="#000000" points="2146.13,266.5173,2153.2928,259.7576,2148.0592,261.9045,2145.9123,256.6709,2146.13,266.5173" style="stroke:#000000;stroke-width:1;"/><text fill="#000000" font-family="Verdana" font-size="13" lengthAdjust="spacing" textLength="29.5166" x="2181.18" y="194.8171">uses</text></g><!--link Orchestrator to Pipeline--><g class="link" data-entity-1="Orchestrator" data-entity-2="Pipeline" data-source-line="67" data-uid="lnk36" id="link_Orchestrator_Pipeline"><path d="M2054.59,298.5273 C2000.75,308.1673 1937.74,323.4173 1919.71,343.9573 C1883.46,385.2473 1888.7999,450.6563 1894.2199,483.7363" fill="none" id="Orchestrator-to-Pipeline" style="stroke:#000000;stroke-width:1;"/><polygon fill="#000000" points="1895.19,489.6573,1897.6822,480.129,1894.3816,484.7231,1889.7874,481.4225,1895.19,489.6573" style="stroke:#000000;stroke-width:1;"/><text fill="#000000" font-family="Verdana" font-size="13" lengthAdjust="spacing" textLength="59.103" x="1920.71" y="358.0271">manages</text></g><!--link Orchestrator to Factory--><g class="link" data-entity-1="Orchestrator" data-entity-2="Factory" data-source-line="68" data-uid="lnk37" id="link_Orchestrator_Factory"><path d="M2138.71,303.9873 C2138.71,345.3973 2138.71,442.1473 2138.71,483.6473" fill="none" id="Orchestrator-to-Factory" style="stroke:#000000;stroke-width:1;"/><polygon fill="#000000" points="2138.71,489.6473,2142.71,480.6473,2138.71,484.6473,2134.71,480.6473,2138.71,489.6473" style="stroke:#000000;stroke-width:1;"/><text fill="#000000" font-family="Verdana" font-size="13" lengthAdjust="spacing" textLength="109.4717" x="2139.71" y="358.0271">creates pipelines</text></g><!--link ParallelProc to Chunk--><g class="link" data-entity-1="ParallelProc" data-entity-2="Chunk" data-source-line="69" data-uid="lnk38" id="link_ParallelProc_Chunk"><path d="M2283.41,304.2073 C2268.98,307.6173 2253.89,311.0373 2239.71,313.9573 C2162.42,329.8673 2142.21,329.0873 2064.71,343.9573 C2029.01,350.8073 2020.76,356.2773 1984.71,360.9573 C1966.62,363.2973 1836.07,359.1073 1820.71,368.9573 C1777.59,396.5973 1760.1918,453.0602 1753.3618,483.7902" fill="none" id="ParallelProc-to-Chunk" style="stroke:#000000;stroke-width:1;"/><polygon fill="#000000" points="1752.06,489.6473,1757.9174,481.7295,1753.1448,484.7664,1750.108,479.9938,1752.06,489.6473" style="stroke:#000000;stroke-width:1;"/><text fill="#000000" font-family="Verdana" font-size="13" lengthAdjust="spacing" textLength="64.1177" x="2065.71" y="358.0271">processes</text></g><!--link ParallelProc to StageInterface--><g class="link" data-entity-1="ParallelProc" data-entity-2="StageInterface" data-source-line="70" data-uid="lnk39" id="link_ParallelProc_StageInterface"><path d="M2348.27,304.1973 C2331.74,348.7773 2284.67,467.0373 2221.71,550.9673 C2125.26,679.5573 1975.9643,795.2835 1916.2743,839.1635" fill="none" id="ParallelProc-to-StageInterface" style="stroke:#000000;stroke-width:1;"/><polygon fill="#000000" points="1911.44,842.7173,1921.0606,840.6094,1915.4686,839.7558,1916.3222,834.1637,1911.44,842.7173" style="stroke:#000000;stroke-width:1;"/><text fill="#000000" font-family="Verdana" font-size="13" lengthAdjust="spacing" textLength="75.4419" x="2214.15" y="573.0371">coordinates</text></g><!--link Pipeline to GenericStage--><g class="link" data-entity-1="Pipeline" data-entity-2="GenericStage" data-source-line="73" data-uid="lnk40" id="link_Pipeline_GenericStage"><path d="M1896.29,527.2573 C1890.83,567.3573 1878.4292,658.4421 1872.9592,698.6321" fill="none" id="Pipeline-to-GenericStage" style="stroke:#000000;stroke-width:1;"/><polygon fill="#000000" points="1872.15,704.5773,1877.3272,696.199,1872.8243,699.623,1869.4003,695.1201,1872.15,704.5773" style="stroke:#000000;stroke-width:1;"/><text fill="#000000" font-family="Verdana" font-size="13" lengthAdjust="spacing" textLength="54.3867" x="1892.7" y="573.0371">contains</text></g><!--link GenericStage to StageInterface--><g class="link" data-entity-1="GenericStage" data-entity-2="StageInterface" data-source-line="74" data-uid="lnk41" id="link_GenericStage_StageInterface"><path d="M1871.93,742.2573 C1875.19,768.3273 1880.4855,810.6837 1883.7455,836.7537" fill="none" id="GenericStage-to-StageInterface" style="stroke:#000000;stroke-width:1;"/><polygon fill="#000000" points="1884.49,842.7073,1887.3424,833.2805,1883.8696,837.7459,1879.4042,834.2732,1884.49,842.7073" style="stroke:#000000;stroke-width:1;"/><text fill="#000000" font-family="Verdana" font-size="13" lengthAdjust="spacing" textLength="76.1338" x="1878.7" y="788.0571">implements</text></g><!--link Chunk to FileChunk--><g class="link" data-entity-1="Chunk" data-entity-2="FileChunk" data-source-line="75" data-uid="lnk42" id="link_Chunk_FileChunk"><path d="M1716.37,527.3673 C1698.48,536.2973 1675.51,546.1873 1653.71,550.9673 C1567.96,569.7873 1345.54,545.9773 1258.71,558.9673 C1218.5,564.9873 1201.61,557.5473 1170.71,583.9673 C1133.06,616.1573 1117.5269,669.3604 1111.2069,698.8604" fill="none" id="Chunk-to-FileChunk" style="stroke:#000000;stroke-width:1;"/><polygon fill="#000000" points="1109.95,704.7273,1115.7466,696.7649,1110.9974,699.8382,1107.9241,695.0891,1109.95,704.7273" style="stroke:#000000;stroke-width:1;"/><text fill="#000000" font-family="Verdana" font-size="13" lengthAdjust="spacing" textLength="54.3867" x="1259.71" y="573.0371">contains</text></g><!--link Chunk to ChunkSize--><g class="link" data-entity-1="Chunk" data-entity-2="ChunkSize" data-source-line="76" data-uid="lnk43" id="link_Chunk_ChunkSize"><path d="M1714.91,527.3673 C1697.17,535.9473 1674.79,545.5173 1653.71,550.9673 C1578.29,570.4773 1368.68,539.5173 1304.71,583.9673 C1263.25,612.7773 1247.6402,668.6486 1241.7102,699.0086" fill="none" id="Chunk-to-ChunkSize" style="stroke:#000000;stroke-width:1;"/><polygon fill="#000000" points="1240.56,704.8973,1246.2111,696.831,1241.5185,699.99,1238.3595,695.2974,1240.56,704.8973" style="stroke:#000000;stroke-width:1;"/><text fill="#000000" font-family="Verdana" font-size="13" lengthAdjust="spacing" textLength="29.5166" x="1426.37" y="573.0371">uses</text></g><!--link Progress to Chunk--><g class="link" data-entity-1="Progress" data-entity-2="Chunk" data-source-line="77" data-uid="lnk44" id="link_Progress_Chunk"><path d="M1682.76,704.5773 C1696.34,664.3873 1727.218,573.0411 1740.778,532.9411" fill="none" id="Progress-to-Chunk" style="stroke:#000000;stroke-width:1;"/><polygon fill="#000000" points="1742.7,527.2573,1736.0278,534.5017,1741.0983,531.9938,1743.6062,537.0644,1742.7,527.2573" style="stroke:#000000;stroke-width:1;"/><text fill="#000000" font-family="Verdana" font-size="13" lengthAdjust="spacing" textLength="39.7173" x="1732.31" y="573.0371">tracks</text></g><!--reverse link ReaderPort to MMFile--><g class="link" data-entity-1="ReaderPort" data-entity-2="MMFile" data-source-line="80" data-uid="lnk45" id="link_ReaderPort_MMFile"><path d="M1274.9003,534.994 C1255.8403,543.924 1247.72,546.1673 1224.71,550.9673 C1117.22,573.3673 823.46,523.6473 731.71,583.9673 C685.12,614.5973 653.03,674.9373 639.27,704.8373" fill="none" id="ReaderPort-backto-MMFile" style="stroke:#000000;stroke-width:1;stroke-dasharray:7,7;"/><polygon fill="none" points="1291.2,527.3573,1272.3547,529.5608,1277.4459,540.4273,1291.2,527.3573" style="stroke:#000000;stroke-width:1;"/><text fill="#000000" font-family="Verdana" font-size="13" lengthAdjust="spacing" textLength="76.1338" x="808.89" y="573.0371">implements</text></g><!--reverse link WriterPort to RWFile--><g class="link" data-entity-1="WriterPort" data-entity-2="RWFile" data-source-line="81" data-uid="lnk46" id="link_WriterPort_RWFile"><path d="M1082.7284,536.2871 C1066.9884,545.2271 1062.31,546.2173 1042.71,550.9673 C1016.03,557.4273 572.87,545.9273 548.71,558.9673 C490.02,590.6473 457.4,669.2973 445.26,704.7073" fill="none" id="WriterPort-backto-RWFile" style="stroke:#000000;stroke-width:1;stroke-dasharray:7,7;"/><polygon fill="none" points="1098.38,527.3973,1079.7652,531.0699,1085.6917,541.5043,1098.38,527.3973" style="stroke:#000000;stroke-width:1;"/><text fill="#000000" font-family="Verdana" font-size="13" lengthAdjust="spacing" textLength="76.1338" x="549.71" y="573.0371">implements</text></g><!--reverse link ChunkPort to MMAdapter--><g class="link" data-entity-1="ChunkPort" data-entity-2="MMAdapter" data-source-line="82" data-uid="lnk47" id="link_ChunkPort_MMAdapter"><path d="M1484.6076,534.2851 C1463.0576,543.1651 1452.27,546.1373 1426.71,550.9673 C1354.41,564.6273 1167.25,541.7573 1095.71,558.9673 C1070.78,564.9673 1066.13,571.5173 1043.71,583.9673 C972.17,623.7073 891.84,677.1773 851.61,704.6073" fill="none" id="ChunkPort-backto-MMAdapter" style="stroke:#000000;stroke-width:1;stroke-dasharray:7,7;"/><polygon fill="none" points="1501.25,527.4273,1482.3216,528.7376,1486.8935,539.8326,1501.25,527.4273" style="stroke:#000000;stroke-width:1;"/><text fill="#000000" font-family="Verdana" font-size="13" lengthAdjust="spacing" textLength="76.1338" x="1096.71" y="573.0371">implements</text></g><!--link MMFile to FS--><g class="link" data-entity-1="MMFile" data-entity-2="FS" data-source-line="85" data-uid="lnk48" id="link_MMFile_FS"><path d="M606.32,742.2173 C585.59,756.9373 555.75,778.6573 530.71,798.9873 C513.39,813.0373 498.9557,825.905 485.3357,838.435" fill="none" id="MMFile-to-FS" style="stroke:#000000;stroke-width:1;"/><polygon fill="#000000" points="480.92,842.4973,490.2517,839.3477,484.5997,839.1121,484.8353,833.4601,480.92,842.4973" style="stroke:#000000;stroke-width:1;"/><text fill="#000000" font-family="Verdana" font-size="13" lengthAdjust="spacing" textLength="35.9722" x="561.62" y="788.0571">reads</text></g><!--link MMFile to OSMem--><g class="link" data-entity-1="MMFile" data-entity-2="OSMem" data-source-line="86" data-uid="lnk49" id="link_MMFile_OSMem"><path d="M631.71,742.2573 C631.71,768.3273 631.71,810.6373 631.71,836.7073" fill="none" id="MMFile-to-OSMem" style="stroke:#000000;stroke-width:1;"/><polygon fill="#000000" points="631.71,842.7073,635.71,833.7073,631.71,837.7073,627.71,833.7073,631.71,842.7073" style="stroke:#000000;stroke-width:1;"/><text fill="#000000" font-family="Verdana" font-size="13" lengthAdjust="spacing" textLength="94.0596" x="632.71" y="788.0571">maps memory</text></g><!--link RWFile to FS--><g class="link" data-entity-1="RWFile" data-entity-2="FS" data-source-line="87" data-uid="lnk50" id="link_RWFile_FS"><path d="M442.59,742.2573 C446.8,768.3273 453.6635,810.714 457.8735,836.784" fill="none" id="RWFile-to-FS" style="stroke:#000000;stroke-width:1;"/><polygon fill="#000000" points="458.83,842.7073,461.344,833.1847,458.0329,837.7713,453.4464,834.4601,458.83,842.7073" style="stroke:#000000;stroke-width:1;"/><text fill="#000000" font-family="Verdana" font-size="13" lengthAdjust="spacing" textLength="39.3936" x="451.05" y="788.0571">writes</text></g><!--link GMN51 to Domain Layer (Core)--><g class="link" data-entity-1="GMN51" data-entity-2="Domain Layer .Core." data-source-line="90" data-uid="lnk53" id="link_GMN51_Domain Layer .Core."><path d="M998.71,314.2673 C998.71,328.9173 998.71,348.0567 998.71,368.5887 C998.71,373.7217 998.71,378.9418 998.71,384.2005" fill="none" id="GMN51-Domain Layer (Core)" style="stroke:#000000;stroke-width:1;stroke-dasharray:7,7;"/></g><!--link Infrastructure Layer to GMN54--><g class="link" data-entity-1="Infrastructure Layer" data-entity-2="GMN54" data-source-line="96" data-uid="lnk56" id="link_Infrastructure Layer_GMN54"><path d="M308.6687,730.9494 C308.564,731.0336 308.4585,731.1186 308.3521,731.2042 C307.9263,731.5468 307.4861,731.901 307.0318,732.2665 C305.2149,733.7285 303.1736,735.3711 300.9355,737.1721 C291.9828,744.3764 279.8794,754.1167 266.3763,764.9836 C239.37,786.7173 206.765,812.9573 182.57,832.4273" fill="none" id="Infrastructure Layer-GMN54" style="stroke:#000000;stroke-width:1;stroke-dasharray:7,7;"/></g><!--SRC=[VLPDRzGy4BxxLypR2wr4wRsgAYsx52frsLM3G0Xny2QpMLF7jcnlI-7blpF-I3R9fjpYyJCpptmw__aTDWX6Sg6O5ruYh8L1AJOmi-LEU2pztYAi7j4-2do2SrWi5XTpYLnTVC2VlDQAom6MCVSWbE6MDr3gncY5oXV-cKnRGd1LIvo2m6y6y9QN3xNLUrNDjTJswghK5g-luKxKE_zMxd4Amurf8Uyjefh22BMrl4LzHIdrqpJCeztoilEv5kg1_M7C49BN22ThYuxOSY-qWZl-ZFO4XdeXZaDKt-Ptjt3RNdy7xe0aGyXiFOQGPE1rPemKvSXfYdlaBfLFKSce9kYyvLxRQBCl6EbG9QH42VFTNZt0skeIdSjgxMMGlk3gXfTaypd2y_U0_K8tr5-9E9pEgQHdWN-kRGYWWxvJr8K2tKaK3nCPoKL0SXK5OrH7gWTiPOGbMZrldpcr5AmsFwWnfrpU2EhQw2R5HiT9fubQ8NxXWLWuZN4pMMih_Av9HMvFOrZX0xkLhJ2L89xZyIY2dDeYZ6SvcJQgMqqzw-2J9QLiiHLEUnxsOfHreh76UrHeHTdbEC6ZOhwAWYFYQsszWzFEhZjxAV_to2do4Qaa34OcTRvGNezqad1A9zLlLd5ph1NlijAVGLlVXfr20xLFExAt3DAk6JJsxSMgTJ1LfIKsD3Mmf9d6AZPQTBvSXiyn-9whIZSfdWFs_iiKThc4GNJPR3uTbUNTJvA6bVwFZeePBfwTnzJ7DyKOiIgW2qYHtRo02XAsMNm5WqtgDVHs70jBy_pyUh2pu1Bs3XqBs_AbEpBRNvLaDGq86u23TjUlbz14ZkuOatSPGKgBtAC3axKSww_524vPlWIJjkSKP3X9mQpMjX8gc0xKyp37noJKmAACSRYTC6IkPHnCzMSh6g942kNOG3xfKpH6qfkll6E9SeoqtMnzMuVhRg6rUUwMIZzo7nPCFn1A_sX6JXy5XpZwP-mmmd3r_vitkTU730yZcp2fnoUYw9jfvtY08bOZBiIkxNQMVSTK5AH8vQvSNnfxD_QAST34tcQPJAVq5CYI9wLzi6v0RwVVFfg1y06RlGkzv43gMeJ7zQE62Wsg2bL9Zo1G2-jz24K6zR2jru4v1VWQb0PiXxMlnEWB0eLCPAEzfsKHk4mkB3Bw2SkTefcHXuIblgExHJGTgVJRCwxi40TNi0b_TlGBMTBcUgBtZ2W3tsxfJHMgXl3A7pZz1G00]--></g></svg>
